<svg width="1735" height="1017" viewBox="0 0 1735 1017" xmlns="http://www.w3.org/2000/svg" xmlns:xlink="http://www.w3.org/1999/xlink"><title>app-build-framed</title><defs><rect id="a" width="1363.89" height="928.922" rx="23"/><mask id="d" x="0" y="0" width="1363.89" height="928.922" fill="#fff"><use xlink:href="#a"/></mask><linearGradient x1="50%" y1="0%" x2="50%" y2="100%" id="e"><stop stop-color="#151515" offset="0%"/><stop stop-color="#2C2C2C" offset="100%"/></linearGradient><linearGradient x1="50%" y1="0%" x2="50%" y2="100%" id="h"><stop stop-color="#96979B" offset="0%"/><stop stop-color="#2A2B2D" offset="100%"/></linearGradient><path d="M.054 31.319S17.479 48.72 66.826 53.317h1535.8s40.942-3.079 67.5-21.24H38.75L.054 31.32z" id="g"/><filter x="-50%" y="-50%" width="200%" height="200%" filterUnits="objectBoundingBox" id="f"><feOffset dy="2" in="SourceAlpha" result="shadowOffsetOuter1"/><feGaussianBlur stdDeviation="2" in="shadowOffsetOuter1" result="shadowBlurOuter1"/><feColorMatrix values="0 0 0 0 0 0 0 0 0 0 0 0 0 0 0 0 0 0 0.5 0" in="shadowBlurOuter1"/></filter><linearGradient x1="100%" y1="50%" x2="0%" y2="50%" id="i"><stop stop-color="#808185" offset="0%"/><stop stop-color="#CFD0D2" offset=".797%"/><stop stop-color="#949599" offset="2.104%"/><stop stop-color="#A7A8AC" offset="3.732%"/><stop stop-color="#B6B7BB" offset="4.234%"/><stop stop-color="#CFD0D4" offset=".212%"/><stop stop-color="#D8D8D8" offset="9.64%"/><stop stop-color="#DDDEE0" offset="90.91%"/><stop stop-color="#B1B2B4" offset="95.62%"/><stop stop-color="#C2C3C7" offset="98.255%"/><stop stop-color="#F1F3F2" offset="99.128%"/><stop stop-color="#E9EBEA" offset="99.357%"/><stop stop-color="#D4D5D7" offset="99.731%"/><stop stop-color="#7A7B7F" offset="100%"/></linearGradient><linearGradient x1="100%" y1="37.234%" x2="0%" y2="37.234%" id="j"><stop stop-color="#949599" offset="0%"/><stop stop-color="#9E9FA3" offset="3.582%"/><stop stop-color="#B9BABC" offset="5.166%"/><stop stop-color="#E0E1E3" offset="8.56%"/><stop stop-color="#D8D9DB" offset="91.829%"/><stop stop-color="#C2C3C5" offset="94.545%"/><stop stop-color="#8D8E90" offset="100%"/></linearGradient><path d="M717.262 1.065s.19 13.316 13.522 19.678h207.335s11.405-4.14 13.944-19.678h-231.44" id="k"/><filter x="-50%" y="-50%" width="200%" height="200%" filterUnits="objectBoundingBox" id="l"><feGaussianBlur stdDeviation=".5" in="SourceAlpha" result="shadowBlurInner1"/><feOffset in="shadowBlurInner1" result="shadowOffsetInner1"/><feComposite in="shadowOffsetInner1" in2="SourceAlpha" operator="arithmetic" k2="-1" k3="1" result="shadowInnerInner1"/><feColorMatrix values="0 0 0 0 0 0 0 0 0 0 0 0 0 0 0 0 0 0 0.301441866 0" in="shadowInnerInner1"/></filter><circle id="n" cx="13" cy="13" r="13"/><filter x="-50%" y="-50%" width="200%" height="200%" filterUnits="objectBoundingBox" id="m"><feOffset dy="2" in="SourceAlpha" result="shadowOffsetOuter1"/><feGaussianBlur stdDeviation="2" in="shadowOffsetOuter1" result="shadowBlurOuter1"/><feColorMatrix values="0 0 0 0 0 0 0 0 0 0 0 0 0 0 0 0 0 0 0.5 0" in="shadowBlurOuter1"/></filter><circle id="p" cx="13" cy="13" r="13"/><filter x="-50%" y="-50%" width="200%" height="200%" filterUnits="objectBoundingBox" id="o"><feOffset dy="2" in="SourceAlpha" result="shadowOffsetOuter1"/><feGaussianBlur stdDeviation="2" in="shadowOffsetOuter1" result="shadowBlurOuter1"/><feColorMatrix values="0 0 0 0 0 0 0 0 0 0 0 0 0 0 0 0 0 0 0.5 0" in="shadowBlurOuter1"/></filter><circle id="r" cx="13" cy="13" r="13"/><filter x="-50%" y="-50%" width="200%" height="200%" filterUnits="objectBoundingBox" id="q"><feOffset dy="2" in="SourceAlpha" result="shadowOffsetOuter1"/><feGaussianBlur stdDeviation="2" in="shadowOffsetOuter1" result="shadowBlurOuter1"/><feColorMatrix values="0 0 0 0 0 0 0 0 0 0 0 0 0 0 0 0 0 0 0.5 0" in="shadowBlurOuter1"/></filter><circle id="t" cx="13" cy="13" r="13"/><filter x="-50%" y="-50%" width="200%" height="200%" filterUnits="objectBoundingBox" id="s"><feOffset dy="2" in="SourceAlpha" result="shadowOffsetOuter1"/><feGaussianBlur stdDeviation="2" in="shadowOffsetOuter1" result="shadowBlurOuter1"/><feColorMatrix values="0 0 0 0 0 0 0 0 0 0 0 0 0 0 0 0 0 0 0.5 0" in="shadowBlurOuter1"/></filter><circle id="v" cx="13" cy="13" r="13"/><filter x="-50%" y="-50%" width="200%" height="200%" filterUnits="objectBoundingBox" id="u"><feOffset dy="2" in="SourceAlpha" result="shadowOffsetOuter1"/><feGaussianBlur stdDeviation="2" in="shadowOffsetOuter1" result="shadowBlurOuter1"/><feColorMatrix values="0 0 0 0 0 0 0 0 0 0 0 0 0 0 0 0 0 0 0.5 0" in="shadowBlurOuter1"/></filter><circle id="x" cx="13" cy="13" r="13"/><filter x="-50%" y="-50%" width="200%" height="200%" filterUnits="objectBoundingBox" id="w"><feOffset dy="2" in="SourceAlpha" result="shadowOffsetOuter1"/><feGaussianBlur stdDeviation="2" in="shadowOffsetOuter1" result="shadowBlurOuter1"/><feColorMatrix values="0 0 0 0 0 0 0 0 0 0 0 0 0 0 0 0 0 0 0.5 0" in="shadowBlurOuter1"/></filter><circle id="z" cx="13" cy="13" r="13"/><filter x="-50%" y="-50%" width="200%" height="200%" filterUnits="objectBoundingBox" id="y"><feOffset dy="2" in="SourceAlpha" result="shadowOffsetOuter1"/><feGaussianBlur stdDeviation="2" in="shadowOffsetOuter1" result="shadowBlurOuter1"/><feColorMatrix values="0 0 0 0 0 0 0 0 0 0 0 0 0 0 0 0 0 0 0.5 0" in="shadowBlurOuter1"/></filter><circle id="B" cx="13" cy="13" r="13"/><filter x="-50%" y="-50%" width="200%" height="200%" filterUnits="objectBoundingBox" id="A"><feOffset dy="2" in="SourceAlpha" result="shadowOffsetOuter1"/><feGaussianBlur stdDeviation="2" in="shadowOffsetOuter1" result="shadowBlurOuter1"/><feColorMatrix values="0 0 0 0 0 0 0 0 0 0 0 0 0 0 0 0 0 0 0.5 0" in="shadowBlurOuter1"/></filter><circle id="D" cx="13" cy="13" r="13"/><filter x="-50%" y="-50%" width="200%" height="200%" filterUnits="objectBoundingBox" id="C"><feOffset dy="2" in="SourceAlpha" result="shadowOffsetOuter1"/><feGaussianBlur stdDeviation="2" in="shadowOffsetOuter1" result="shadowBlurOuter1"/><feColorMatrix values="0 0 0 0 0 0 0 0 0 0 0 0 0 0 0 0 0 0 0.5 0" in="shadowBlurOuter1"/></filter><circle id="F" cx="21.5" cy="21.5" r="21.5"/><filter x="-50%" y="-50%" width="200%" height="200%" filterUnits="objectBoundingBox" id="E"><feOffset dy="2" in="SourceAlpha" result="shadowOffsetOuter1"/><feGaussianBlur stdDeviation="2" in="shadowOffsetOuter1" result="shadowBlurOuter1"/><feColorMatrix values="0 0 0 0 0 0 0 0 0 0 0 0 0 0 0 0 0 0 0.5 0" in="shadowBlurOuter1"/></filter><path id="H" d="M0 0h1283v47H0z"/><filter x="-50%" y="-50%" width="200%" height="200%" filterUnits="objectBoundingBox" id="G"><feOffset dy="2" in="SourceAlpha" result="shadowOffsetOuter1"/><feGaussianBlur stdDeviation="2" in="shadowOffsetOuter1" result="shadowBlurOuter1"/><feColorMatrix values="0 0 0 0 0 0 0 0 0 0 0 0 0 0 0 0 0 0 0.5 0" in="shadowBlurOuter1"/></filter><circle id="J" cx="24" cy="22" r="20"/><filter x="-50%" y="-50%" width="200%" height="200%" filterUnits="objectBoundingBox" id="I"><feOffset dy="2" in="SourceAlpha" result="shadowOffsetOuter1"/><feGaussianBlur stdDeviation="2" in="shadowOffsetOuter1" result="shadowBlurOuter1"/><feColorMatrix values="0 0 0 0 0 0 0 0 0 0 0 0 0 0 0 0 0 0 0.5 0" in="shadowBlurOuter1"/></filter><path d="M0 2h15.923v21.413H0V2z" id="b"/><mask id="K" x="0" y="0" width="15.923" height="21.413" fill="#fff"><use xlink:href="#b"/></mask><circle id="M" cx="24" cy="22" r="20"/><filter x="-50%" y="-50%" width="200%" height="200%" filterUnits="objectBoundingBox" id="L"><feOffset dy="2" in="SourceAlpha" result="shadowOffsetOuter1"/><feGaussianBlur stdDeviation="2" in="shadowOffsetOuter1" result="shadowBlurOuter1"/><feColorMatrix values="0 0 0 0 0 0 0 0 0 0 0 0 0 0 0 0 0 0 0.5 0" in="shadowBlurOuter1"/></filter><path id="O" d="M0 0h570v58H0z"/><filter x="-50%" y="-50%" width="200%" height="200%" filterUnits="objectBoundingBox" id="N"><feOffset dy="2" in="SourceAlpha" result="shadowOffsetOuter1"/><feGaussianBlur stdDeviation="2" in="shadowOffsetOuter1" result="shadowBlurOuter1"/><feColorMatrix values="0 0 0 0 0 0 0 0 0 0 0 0 0 0 0 0 0 0 0.5 0" in="shadowBlurOuter1"/></filter><filter x="-50%" y="-50%" width="200%" height="200%" filterUnits="objectBoundingBox" id="P"><feOffset dy="2" in="SourceAlpha" result="shadowOffsetOuter1"/><feGaussianBlur stdDeviation="2" in="shadowOffsetOuter1" result="shadowBlurOuter1"/><feColorMatrix values="0 0 0 0 0 0 0 0 0 0 0 0 0 0 0 0 0 0 0.5 0" in="shadowBlurOuter1" result="shadowMatrixOuter1"/><feMerge><feMergeNode in="shadowMatrixOuter1"/><feMergeNode in="SourceGraphic"/></feMerge></filter><ellipse id="R" cx="209.634" cy="192.5" rx="174.695" ry="175"/><filter x="-50%" y="-50%" width="200%" height="200%" filterUnits="objectBoundingBox" id="Q"><feOffset dy="2" in="SourceAlpha" result="shadowOffsetOuter1"/><feGaussianBlur stdDeviation="2" in="shadowOffsetOuter1" result="shadowBlurOuter1"/><feColorMatrix values="0 0 0 0 0 0 0 0 0 0 0 0 0 0 0 0 0 0 0.5 0" in="shadowBlurOuter1"/></filter><ellipse id="c" cx="21.62" cy="115.72" rx="20.797" ry="20.833"/><mask id="S" x="-20" y="-20" width="81.594" height="81.667"><path fill="#fff" d="M-19.177 74.887h81.594v81.667h-81.594z"/><use xlink:href="#c"/></mask></defs><g fill="none" fill-rule="evenodd"><g transform="translate(184.783 31)"><path fill="#FFF" d="M43.7 59.782h1278.791v800.16H43.7z"/><use stroke="#C6C6C6" mask="url(#d)" stroke-width="4" xlink:href="#a"/></g><g transform="translate(858.678 58.592)"><ellipse fill="url(#e)" cx="9.2" cy="9.197" rx="9.2" ry="9.197"/><ellipse fill="#103470" cx="9.2" cy="9.197" rx="4.6" ry="4.599"/></g><g transform="translate(32 943.827)"><use fill="#000" filter="url(#f)" xlink:href="#g"/><use fill="url(#h)" xlink:href="#g"/></g><path fill="url(#i)" d="M.984 0h1669.788v32.19H.984z" transform="translate(32 943.827)"/><g transform="translate(32 943.827)"><use fill="url(#j)" xlink:href="#k"/><use fill="#000" filter="url(#l)" xlink:href="#k"/></g><path d="M227 444h1280" stroke="#979797" opacity=".2"/><path d="M807 656c7.18 0 13-5.82 13-13s-5.82-13-13-13-13 5.82-13 13 5.82 13 13 13z"/><path d="M807 654.79c6.512 0 11.79-5.278 11.79-11.79s-5.278-11.79-11.79-11.79-11.79 5.278-11.79 11.79 5.278 11.79 11.79 11.79z" stroke="#CFD8DC" stroke-dasharray="3" fill="#FAFAFA"/><path fill="#CFD8DC" d="M807.384 642.658v-2.364h-.734v2.364h-2.354v.735h2.354v2.364h.734v-2.364h2.354v-.735z"/><text font-family="Roboto-Regular, Roboto" font-size="8" fill="#CFD8DC" transform="translate(793 630)"><tspan x="5.885" y="35">Peer</tspan></text><g font-family="Roboto-Regular, Roboto" fill="#979797"><text font-size="15" transform="translate(964 383)"><tspan x="0" y="14">Michael</tspan></text><text font-size="8" transform="translate(964 383)"><tspan x="0" y="23">QA Manager</tspan></text></g><g opacity=".6"><g transform="translate(794 362)"><use fill="#000" filter="url(#m)" xlink:href="#n"/><use fill="#CFD8DC" xlink:href="#n"/></g><text font-family="Roboto-Bold, Roboto" font-size="10.464" font-weight="bold" fill="#FFF" transform="translate(794 362)"><tspan x="6.762" y="17.25">LH</tspan></text></g><g opacity=".6"><g transform="translate(794 292)"><use fill="#000" filter="url(#o)" xlink:href="#p"/><use fill="#CFD8DC" xlink:href="#p"/></g><text font-family="Roboto-Bold, Roboto" font-size="10.464" font-weight="bold" fill="#FFF" transform="translate(794 292)"><tspan x="7.086" y="17.25">RF</tspan></text></g><g opacity=".6"><g transform="translate(794 572)"><use fill="#000" filter="url(#q)" xlink:href="#r"/><use fill="#CFD8DC" xlink:href="#r"/></g><text font-family="Roboto-Bold, Roboto" font-size="10.464" font-weight="bold" fill="#FFF" transform="translate(794 572)"><tspan x="6.578" y="17.25">BP</tspan></text></g><path stroke="#FFF" fill="#929292" d="M881 590v-12l4 6z"/><g opacity=".6"><g transform="translate(794 502)"><use fill="#000" filter="url(#s)" xlink:href="#t"/><use fill="#CFD8DC" xlink:href="#t"/></g><text font-family="Roboto-Bold, Roboto" font-size="10.464" font-weight="bold" fill="#FFF" transform="translate(794 502)"><tspan x="5.015" y="17.25">MN</tspan></text></g><g font-family="Roboto-Regular, Roboto" fill="#979797"><text font-size="15" transform="translate(964 432)"><tspan x="0" y="14">Taylor</tspan></text><text font-size="8" transform="translate(964 432)"><tspan x="0" y="23">Architect</tspan></text></g><g font-family="Roboto-Regular, Roboto" fill="#979797"><text font-size="15" transform="translate(964 481)"><tspan x="0" y="14">David</tspan></text><text font-size="8" transform="translate(964 481)"><tspan x="0" y="23">Sr. iOS Developer</tspan></text></g><path stroke="#FFF" fill="#929292" d="M1021 349v-12l4 6zm0 49v-12l4 6z"/><g transform="translate(655 430)"><use fill="#000" filter="url(#u)" xlink:href="#v"/><use fill="#CFD8DC" xlink:href="#v"/></g><text font-family="Roboto-Bold, Roboto" font-size="10.464" font-weight="bold" fill="#FFF" transform="translate(655 430)"><tspan x="6.828" y="17.25">AE</tspan></text><path stroke="#FFF" fill="#929292" d="M647 438v12l-4-6z"/><g transform="translate(924 381)"><use fill="#000" filter="url(#w)" xlink:href="#x"/><use fill="#CFD8DC" xlink:href="#x"/></g><text font-family="Roboto-Bold, Roboto" font-size="10.464" font-weight="bold" fill="#FFF" transform="translate(924 381)"><tspan x="5.786" y="17.25">MJ</tspan></text><g transform="translate(924 331)"><use fill="#000" filter="url(#y)" xlink:href="#z"/><use fill="#CFD8DC" xlink:href="#z"/></g><text font-family="Roboto-Bold, Roboto" font-size="10.464" font-weight="bold" fill="#FFF" transform="translate(924 331)"><tspan x="6.512" y="17.25">SG</tspan></text><g transform="translate(924 431)"><use fill="#000" filter="url(#A)" xlink:href="#B"/><use fill="#CFD8DC" xlink:href="#B"/></g><text font-family="Roboto-Bold, Roboto" font-size="10.464" font-weight="bold" fill="#FFF" transform="translate(924 431)"><tspan x="7.189" y="17.25">TF</tspan></text><g transform="translate(924 481)"><use fill="#000" filter="url(#C)" xlink:href="#D"/><use fill="#CFD8DC" xlink:href="#D"/></g><text font-family="Roboto-Bold, Roboto" font-size="10.464" font-weight="bold" fill="#FFF" transform="translate(924 481)"><tspan x="6.491" y="17.25">DD</tspan></text><g opacity=".6" font-family="Roboto-Regular, Roboto" fill="#979797"><text font-size="12" transform="translate(830 296)"><tspan x="0" y="11">Roger</tspan></text><text font-size="5" transform="translate(830 296)"><tspan x="1" y="18">Director Engineering</tspan></text></g><g opacity=".6" font-family="Roboto-Regular, Roboto" fill="#979797"><text font-size="12" transform="translate(830 366)"><tspan x="0" y="11">Lisa</tspan></text><text font-size="5" transform="translate(830 366)"><tspan x="1" y="18">Human Resources</tspan></text></g><g opacity=".6" font-family="Roboto-Regular, Roboto" fill="#979797"><text font-size="12" transform="translate(830 506)"><tspan x="0" y="11">Matt</tspan></text><text font-size="5" transform="translate(830 506)"><tspan x="1" y="18">Creative Director</tspan></text></g><g opacity=".6" font-family="Roboto-Regular, Roboto" fill="#979797"><text font-size="12" transform="translate(830 576)"><tspan x="0" y="11">Ben</tspan></text><text font-size="5" transform="translate(830 576)"><tspan x="1" y="18">Program Manager</tspan></text></g><g font-family="Roboto-Regular, Roboto" fill="#979797"><text font-size="12" transform="translate(690 433)"><tspan x="0" y="11">Albert</tspan></text><text font-size="5" transform="translate(690 433)"><tspan x="1" y="18">Managing Director</tspan></text></g><g font-family="Roboto-Regular, Roboto" fill="#979797"><text font-size="15" transform="translate(964 333)"><tspan x="0" y="14">Simon</tspan></text><text font-size="8" transform="translate(964 333)"><tspan x="0" y="23">Dev Manager</tspan></text></g><g transform="translate(785 422)"><use fill="#000" filter="url(#E)" xlink:href="#F"/><use fill="#0097FF" xlink:href="#F"/></g><text font-family="Roboto-Bold, Roboto" font-size="17.306" font-weight="bold" fill="#FFF" transform="translate(785 422)"><tspan x="10.057" y="28">TP</tspan></text><path d="M832 450v-12l4 6zm-50-12v12l-4-6zm19 32h12l-6 4zm12-50h-12l6-4z" stroke="#FFF" fill="#D8D8D8"/><path fill="#455A64" d="M1277 140h230v752h-230z"/><path fill="#607D8B" d="M1277 140h28v28h-28z"/><path fill="#FAFAFA" d="M1295.875 151l-.875-.875-3.5 3.5-3.5-3.5-.875.875 3.5 3.5-3.5 3.5.875.875 3.5-3.5 3.5 3.5.875-.875-3.5-3.5z"/><path fill="#607D8B" d="M1478 170h28v28h-28z"/><path d="M1488.482 185.821v1.697h1.697l4.91-4.956-1.696-1.696-4.91 4.955zm7.902-4.553a.432.432 0 0 0 0-.625l-1.027-1.027a.432.432 0 0 0-.625 0l-.803.804 1.696 1.696.759-.848z" fill="#FAFAFA"/><text font-family="HelveticaNeue, Helvetica Neue" font-size="12" fill="#B6B6B6" transform="translate(1277 140)"><tspan x="44" y="104">Dev Manager</tspan></text><path fill="#0097FF" d="M1321 252h63v15h-63z"/><text font-family="HelveticaNeue-Bold, Helvetica Neue" font-size="7" font-weight="bold" fill="#FFF" transform="translate(1321 252)"><tspan x="7" y="10">ENGINEERING</tspan></text><text font-family="HelveticaNeue-Bold, Helvetica Neue" font-size="12" font-weight="bold" fill="#607D8B" transform="translate(1277 140)"><tspan x="13" y="49">Resource</tspan></text><text font-family="HelveticaNeue, Helvetica Neue" font-size="12" fill="#B6B6B6" transform="translate(1277 140)"><tspan x="44" y="217">Direct Reports</tspan></text><text font-family="HelveticaNeue, Helvetica Neue" font-size="12" fill="#B6B6B6" transform="translate(1277 140)"><tspan x="44" y="237">Total Reports</tspan></text><text font-family="HelveticaNeue-Bold, Helvetica Neue" font-size="17" font-weight="bold" fill="#CFD8DC" transform="translate(1277 140)"><tspan x="44" y="87">Tiger Penguin</tspan></text><path d="M1277.664 409.941h230.113" stroke="#607D8B"/><text font-family="HelveticaNeue-Bold, Helvetica Neue" font-size="12" font-weight="bold" fill="#607D8B" transform="translate(1277 140)"><tspan x="13" y="159">Stats</tspan></text><path d="M1277.664 309.941h230.113m-230.113-140h230" stroke="#607D8B"/><text font-family="HelveticaNeue-Bold, Helvetica Neue" font-size="12" font-weight="bold" fill="#B6B6B6" transform="translate(1277 140)"><tspan x="200" y="218">4</tspan></text><text font-family="HelveticaNeue-Bold, Helvetica Neue" font-size="12" font-weight="bold" fill="#B6B6B6" transform="translate(1277 140)"><tspan x="200" y="238">30</tspan></text><path d="M1311.5 214h-12c-.825 0-1.5.675-1.5 1.5v12c0 .825.675 1.5 1.5 1.5h12c.825 0 1.5-.675 1.5-1.5v-12c0-.825-.675-1.5-1.5-1.5zm-9 12.75h-2.25V220h2.25v6.75zm-1.125-8.025c-.75 0-1.35-.6-1.35-1.35 0-.75.6-1.35 1.35-1.35.75 0 1.35.6 1.35 1.35 0 .75-.6 1.35-1.35 1.35zm9.375 8.025h-2.25v-3.975c0-.6-.525-1.125-1.125-1.125s-1.125.525-1.125 1.125v3.975H1304V220h2.25v.9c.375-.6 1.2-1.05 1.875-1.05 1.425 0 2.625 1.2 2.625 2.625v4.275z" opacity=".2" fill="#CFD8DC"/><g transform="translate(227 94)"><use fill="#000" filter="url(#G)" xlink:href="#H"/><use fill="#FFF" xlink:href="#H"/></g><path d="M1280 94h230v45h-230z"/><path fill="#455A64" d="M1485 117h9l-4.5 3zm-90 0h9l-4.5 3z"/><text font-family="Roboto-Bold, Roboto" font-size="14" font-weight="bold" fill="#455A64" transform="translate(1280 94)"><tspan x="169" y="28">Mike</tspan></text><text font-family="Roboto-Bold, Roboto" font-size="14" font-weight="bold" fill="#455A64" transform="translate(1280 94)"><tspan x="27.35" y="28">Organization</tspan></text><path d="M1290 114.75h2.75V112H1290v2.75zm4.125 8.25h2.75v-2.75h-2.75V123zm-4.125 0h2.75v-2.75H1290V123zm0-4.125h2.75v-2.75H1290v2.75zm4.125 0h2.75v-2.75h-2.75v2.75zm4.125-6.875v2.75h2.75V112h-2.75zm-4.125 2.75h2.75V112h-2.75v2.75zm4.125 4.125h2.75v-2.75h-2.75v2.75zm0 4.125h2.75v-2.75h-2.75V123zm138.25-6.5a2.758 2.758 0 0 0 2.75-2.75 2.758 2.758 0 0 0-2.75-2.75 2.758 2.758 0 0 0-2.75 2.75 2.758 2.758 0 0 0 2.75 2.75zm0 1.375c-1.856 0-5.5.894-5.5 2.75V122h11v-1.375c0-1.856-3.644-2.75-5.5-2.75z" fill="#455A64"/><g font-size="14" fill="#000"><text font-family="OpenSans-Bold, Open Sans" font-weight="bold" transform="translate(267 106)"><tspan x="4" y="15">PEOPLE</tspan></text><text font-family="OpenSans, Open Sans" transform="translate(267 106)"><tspan x="58.172" y="15">TREE</tspan></text></g><g transform="translate(273 271)"><use fill="#000" filter="url(#I)" xlink:href="#J"/><use fill="#FFF" xlink:href="#J"/></g><g transform="translate(289.078 280.31)"><use stroke="#CFD8DC" mask="url(#K)" stroke-width="4" fill="#CFD8DC" xlink:href="#b"/><path d="M3.49 9.224h8.785M3.49 14.166h8.785M3.49 10.871h8.785M3.49 12.518h8.785" stroke="#607D8B"/><path d="M3.294 2.5h9.334" stroke="#607D8B" stroke-width="5"/></g><text font-family="HelveticaNeue, Helvetica Neue" font-size="12" fill="#CFD8DC" transform="translate(277 273)"><tspan x="48" y="23">Share</tspan></text><g transform="translate(273 216)"><use fill="#000" filter="url(#L)" xlink:href="#M"/><use fill="#FFF" xlink:href="#M"/></g><g transform="translate(284.619 225.619)"><path d="M17.857 24.206c0-5.925-9.87-17.063-9.87-22.579m9.87-.437c0 5.93-9.668 14.912-9.668 22.627m15.224-11.084H1.984" stroke="#B0BEC5" stroke-dasharray="1" opacity=".5"/><ellipse fill="#CFD8DC" cx="12.698" cy="12.698" rx="2.381" ry="2.381"/><ellipse fill="#607D8B" cx="7.937" cy="1.587" rx="1.587" ry="1.587"/><ellipse fill="#607D8B" cx="17.46" cy="1.587" rx="1.587" ry="1.587"/><ellipse fill="#607D8B" cx="23.81" cy="12.698" rx="1.587" ry="1.587"/><ellipse fill="#607D8B" cx="7.937" cy="23.81" rx="1.587" ry="1.587"/><ellipse fill="#607D8B" cx="17.46" cy="23.81" rx="1.587" ry="1.587"/><ellipse fill="#607D8B" cx="1.587" cy="12.698" rx="1.587" ry="1.587"/></g><text font-family="HelveticaNeue, Helvetica Neue" font-size="12" fill="#CFD8DC" transform="translate(277 218)"><tspan x="48" y="23">Explore</tspan></text><g transform="translate(582 801)"><use fill="#000" filter="url(#N)" xlink:href="#O"/><use fill="#607D8B" xlink:href="#O"/></g><g transform="translate(600 815)" opacity=".3"><rect fill="#455A64" width="531" height="30" rx="7"/><text font-family="Roboto-Regular, Roboto" font-size="14" fill="#FFF"><tspan x="11" y="20">Search, Build, Edit</tspan></text></g><path d="M207.777 33.3c-12.699 0-22.994 10.303-22.994 22.99v887.537h1363.89V56.29c0-12.698-10.29-22.992-22.994-22.992H207.777zm20.706 57.482v800.16h1278.79V90.782H228.484z" fill="#121212"/><g filter="url(#P)" transform="translate(0 115)"><use fill="#000" filter="url(#Q)" xlink:href="#R"/><use fill="#607D8B" xlink:href="#R"/><g transform="translate(126.037 83.724)"><path d="M105.575 17.472c-72.047 0-35.972 98.899-91.43 98.899m91.43-49.449c-72.047 0-35.972 49.449-91.43 49.449m95.953 0H14.144m91.431 49.449c-72.047 0-35.972-49.449-91.43-49.449m91.43 98.899c-72.047 0-35.972-98.899-91.43-98.899" stroke="#CFD8DC" stroke-dasharray="1" opacity=".5"/><ellipse fill="#FAFAFA" cx="105.781" cy="14.331" rx="13.865" ry="13.889"/><ellipse fill="#FAFAFA" cx="105.781" cy="64.331" rx="13.865" ry="13.889"/><ellipse fill="#FAFAFA" cx="105.781" cy="114.331" rx="13.865" ry="13.889"/><ellipse fill="#FAFAFA" cx="105.781" cy="214.331" rx="13.865" ry="13.889"/><ellipse fill="#FAFAFA" cx="105.781" cy="164.331" rx="13.865" ry="13.889"/><use fill="#FFF" xlink:href="#c"/><use stroke-opacity=".4" stroke="#FFF" mask="url(#S)" stroke-width="40" xlink:href="#c"/></g></g></g></svg>