<svg width="1735" height="1017" viewBox="0 0 1735 1017" xmlns="http://www.w3.org/2000/svg" xmlns:xlink="http://www.w3.org/1999/xlink"><title>app-share-framed</title><defs><rect id="a" width="1363.89" height="928.922" rx="23"/><mask id="b" x="0" y="0" width="1363.89" height="928.922" fill="#fff"><use xlink:href="#a"/></mask><linearGradient x1="50%" y1="0%" x2="50%" y2="100%" id="c"><stop stop-color="#151515" offset="0%"/><stop stop-color="#2C2C2C" offset="100%"/></linearGradient><linearGradient x1="50%" y1="0%" x2="50%" y2="100%" id="f"><stop stop-color="#96979B" offset="0%"/><stop stop-color="#2A2B2D" offset="100%"/></linearGradient><path d="M.054 31.319S17.479 48.72 66.826 53.317h1535.8s40.942-3.079 67.5-21.24H38.75L.054 31.32z" id="e"/><filter x="-50%" y="-50%" width="200%" height="200%" filterUnits="objectBoundingBox" id="d"><feOffset dy="2" in="SourceAlpha" result="shadowOffsetOuter1"/><feGaussianBlur stdDeviation="2" in="shadowOffsetOuter1" result="shadowBlurOuter1"/><feColorMatrix values="0 0 0 0 0 0 0 0 0 0 0 0 0 0 0 0 0 0 0.5 0" in="shadowBlurOuter1"/></filter><linearGradient x1="100%" y1="50%" x2="0%" y2="50%" id="g"><stop stop-color="#808185" offset="0%"/><stop stop-color="#CFD0D2" offset=".797%"/><stop stop-color="#949599" offset="2.104%"/><stop stop-color="#A7A8AC" offset="3.732%"/><stop stop-color="#B6B7BB" offset="4.234%"/><stop stop-color="#CFD0D4" offset=".212%"/><stop stop-color="#D8D8D8" offset="9.64%"/><stop stop-color="#DDDEE0" offset="90.91%"/><stop stop-color="#B1B2B4" offset="95.62%"/><stop stop-color="#C2C3C7" offset="98.255%"/><stop stop-color="#F1F3F2" offset="99.128%"/><stop stop-color="#E9EBEA" offset="99.357%"/><stop stop-color="#D4D5D7" offset="99.731%"/><stop stop-color="#7A7B7F" offset="100%"/></linearGradient><linearGradient x1="100%" y1="37.234%" x2="0%" y2="37.234%" id="h"><stop stop-color="#949599" offset="0%"/><stop stop-color="#9E9FA3" offset="3.582%"/><stop stop-color="#B9BABC" offset="5.166%"/><stop stop-color="#E0E1E3" offset="8.56%"/><stop stop-color="#D8D9DB" offset="91.829%"/><stop stop-color="#C2C3C5" offset="94.545%"/><stop stop-color="#8D8E90" offset="100%"/></linearGradient><path d="M717.262 1.065s.19 13.316 13.522 19.678h207.335s11.405-4.14 13.944-19.678h-231.44" id="i"/><filter x="-50%" y="-50%" width="200%" height="200%" filterUnits="objectBoundingBox" id="j"><feGaussianBlur stdDeviation=".5" in="SourceAlpha" result="shadowBlurInner1"/><feOffset in="shadowBlurInner1" result="shadowOffsetInner1"/><feComposite in="shadowOffsetInner1" in2="SourceAlpha" operator="arithmetic" k2="-1" k3="1" result="shadowInnerInner1"/><feColorMatrix values="0 0 0 0 0 0 0 0 0 0 0 0 0 0 0 0 0 0 0.301441866 0" in="shadowInnerInner1"/></filter><path id="l" d="M0 0h1283v47H0z"/><filter x="-50%" y="-50%" width="200%" height="200%" filterUnits="objectBoundingBox" id="k"><feOffset dy="2" in="SourceAlpha" result="shadowOffsetOuter1"/><feGaussianBlur stdDeviation="2" in="shadowOffsetOuter1" result="shadowBlurOuter1"/><feColorMatrix values="0 0 0 0 0 0 0 0 0 0 0 0 0 0 0 0 0 0 0.5 0" in="shadowBlurOuter1"/></filter><circle id="n" cx="13" cy="13" r="13"/><filter x="-50%" y="-50%" width="200%" height="200%" filterUnits="objectBoundingBox" id="m"><feOffset dy="2" in="SourceAlpha" result="shadowOffsetOuter1"/><feGaussianBlur stdDeviation="2" in="shadowOffsetOuter1" result="shadowBlurOuter1"/><feColorMatrix values="0 0 0 0 0 0 0 0 0 0 0 0 0 0 0 0 0 0 0.5 0" in="shadowBlurOuter1"/></filter><circle id="p" cx="13" cy="13" r="13"/><filter x="-50%" y="-50%" width="200%" height="200%" filterUnits="objectBoundingBox" id="o"><feOffset dy="2" in="SourceAlpha" result="shadowOffsetOuter1"/><feGaussianBlur stdDeviation="2" in="shadowOffsetOuter1" result="shadowBlurOuter1"/><feColorMatrix values="0 0 0 0 0 0 0 0 0 0 0 0 0 0 0 0 0 0 0.5 0" in="shadowBlurOuter1"/></filter><circle id="r" cx="13" cy="13" r="13"/><filter x="-50%" y="-50%" width="200%" height="200%" filterUnits="objectBoundingBox" id="q"><feOffset dy="2" in="SourceAlpha" result="shadowOffsetOuter1"/><feGaussianBlur stdDeviation="2" in="shadowOffsetOuter1" result="shadowBlurOuter1"/><feColorMatrix values="0 0 0 0 0 0 0 0 0 0 0 0 0 0 0 0 0 0 0.5 0" in="shadowBlurOuter1"/></filter><circle id="t" cx="13" cy="13" r="13"/><filter x="-50%" y="-50%" width="200%" height="200%" filterUnits="objectBoundingBox" id="s"><feOffset dy="2" in="SourceAlpha" result="shadowOffsetOuter1"/><feGaussianBlur stdDeviation="2" in="shadowOffsetOuter1" result="shadowBlurOuter1"/><feColorMatrix values="0 0 0 0 0 0 0 0 0 0 0 0 0 0 0 0 0 0 0.5 0" in="shadowBlurOuter1"/></filter><circle id="v" cx="13" cy="13" r="13"/><filter x="-50%" y="-50%" width="200%" height="200%" filterUnits="objectBoundingBox" id="u"><feOffset dy="2" in="SourceAlpha" result="shadowOffsetOuter1"/><feGaussianBlur stdDeviation="2" in="shadowOffsetOuter1" result="shadowBlurOuter1"/><feColorMatrix values="0 0 0 0 0 0 0 0 0 0 0 0 0 0 0 0 0 0 0.5 0" in="shadowBlurOuter1"/></filter><circle id="x" cx="21.5" cy="21.5" r="21.5"/><filter x="-50%" y="-50%" width="200%" height="200%" filterUnits="objectBoundingBox" id="w"><feOffset dy="2" in="SourceAlpha" result="shadowOffsetOuter1"/><feGaussianBlur stdDeviation="2" in="shadowOffsetOuter1" result="shadowBlurOuter1"/><feColorMatrix values="0 0 0 0 0 0 0 0 0 0 0 0 0 0 0 0 0 0 0.5 0" in="shadowBlurOuter1"/></filter><circle id="z" cx="13" cy="13" r="13"/><filter x="-50%" y="-50%" width="200%" height="200%" filterUnits="objectBoundingBox" id="y"><feOffset dy="2" in="SourceAlpha" result="shadowOffsetOuter1"/><feGaussianBlur stdDeviation="2" in="shadowOffsetOuter1" result="shadowBlurOuter1"/><feColorMatrix values="0 0 0 0 0 0 0 0 0 0 0 0 0 0 0 0 0 0 0.5 0" in="shadowBlurOuter1"/></filter><circle id="B" cx="13" cy="13" r="13"/><filter x="-50%" y="-50%" width="200%" height="200%" filterUnits="objectBoundingBox" id="A"><feOffset dy="2" in="SourceAlpha" result="shadowOffsetOuter1"/><feGaussianBlur stdDeviation="2" in="shadowOffsetOuter1" result="shadowBlurOuter1"/><feColorMatrix values="0 0 0 0 0 0 0 0 0 0 0 0 0 0 0 0 0 0 0.5 0" in="shadowBlurOuter1"/></filter><circle id="D" cx="13" cy="13" r="13"/><filter x="-50%" y="-50%" width="200%" height="200%" filterUnits="objectBoundingBox" id="C"><feOffset dy="2" in="SourceAlpha" result="shadowOffsetOuter1"/><feGaussianBlur stdDeviation="2" in="shadowOffsetOuter1" result="shadowBlurOuter1"/><feColorMatrix values="0 0 0 0 0 0 0 0 0 0 0 0 0 0 0 0 0 0 0.5 0" in="shadowBlurOuter1"/></filter><circle id="F" cx="13" cy="13" r="13"/><filter x="-50%" y="-50%" width="200%" height="200%" filterUnits="objectBoundingBox" id="E"><feOffset dy="2" in="SourceAlpha" result="shadowOffsetOuter1"/><feGaussianBlur stdDeviation="2" in="shadowOffsetOuter1" result="shadowBlurOuter1"/><feColorMatrix values="0 0 0 0 0 0 0 0 0 0 0 0 0 0 0 0 0 0 0.5 0" in="shadowBlurOuter1"/></filter><circle id="H" cx="13" cy="13" r="13"/><filter x="-50%" y="-50%" width="200%" height="200%" filterUnits="objectBoundingBox" id="G"><feOffset dy="2" in="SourceAlpha" result="shadowOffsetOuter1"/><feGaussianBlur stdDeviation="2" in="shadowOffsetOuter1" result="shadowBlurOuter1"/><feColorMatrix values="0 0 0 0 0 0 0 0 0 0 0 0 0 0 0 0 0 0 0.5 0" in="shadowBlurOuter1"/></filter><circle id="J" cx="13" cy="13" r="13"/><filter x="-50%" y="-50%" width="200%" height="200%" filterUnits="objectBoundingBox" id="I"><feOffset dy="2" in="SourceAlpha" result="shadowOffsetOuter1"/><feGaussianBlur stdDeviation="2" in="shadowOffsetOuter1" result="shadowBlurOuter1"/><feColorMatrix values="0 0 0 0 0 0 0 0 0 0 0 0 0 0 0 0 0 0 0.5 0" in="shadowBlurOuter1"/></filter><circle id="L" cx="13" cy="13" r="13"/><filter x="-50%" y="-50%" width="200%" height="200%" filterUnits="objectBoundingBox" id="K"><feOffset dy="2" in="SourceAlpha" result="shadowOffsetOuter1"/><feGaussianBlur stdDeviation="2" in="shadowOffsetOuter1" result="shadowBlurOuter1"/><feColorMatrix values="0 0 0 0 0 0 0 0 0 0 0 0 0 0 0 0 0 0 0.5 0" in="shadowBlurOuter1"/></filter><circle id="N" cx="13" cy="13" r="13"/><filter x="-50%" y="-50%" width="200%" height="200%" filterUnits="objectBoundingBox" id="M"><feOffset dy="2" in="SourceAlpha" result="shadowOffsetOuter1"/><feGaussianBlur stdDeviation="2" in="shadowOffsetOuter1" result="shadowBlurOuter1"/><feColorMatrix values="0 0 0 0 0 0 0 0 0 0 0 0 0 0 0 0 0 0 0.5 0" in="shadowBlurOuter1"/></filter><circle id="P" cx="13" cy="13" r="13"/><filter x="-50%" y="-50%" width="200%" height="200%" filterUnits="objectBoundingBox" id="O"><feOffset dy="2" in="SourceAlpha" result="shadowOffsetOuter1"/><feGaussianBlur stdDeviation="2" in="shadowOffsetOuter1" result="shadowBlurOuter1"/><feColorMatrix values="0 0 0 0 0 0 0 0 0 0 0 0 0 0 0 0 0 0 0.5 0" in="shadowBlurOuter1"/></filter><circle id="R" cx="13" cy="13" r="13"/><filter x="-50%" y="-50%" width="200%" height="200%" filterUnits="objectBoundingBox" id="Q"><feOffset dy="2" in="SourceAlpha" result="shadowOffsetOuter1"/><feGaussianBlur stdDeviation="2" in="shadowOffsetOuter1" result="shadowBlurOuter1"/><feColorMatrix values="0 0 0 0 0 0 0 0 0 0 0 0 0 0 0 0 0 0 0.5 0" in="shadowBlurOuter1"/></filter><circle id="T" cx="13" cy="13" r="13"/><filter x="-50%" y="-50%" width="200%" height="200%" filterUnits="objectBoundingBox" id="S"><feOffset dy="2" in="SourceAlpha" result="shadowOffsetOuter1"/><feGaussianBlur stdDeviation="2" in="shadowOffsetOuter1" result="shadowBlurOuter1"/><feColorMatrix values="0 0 0 0 0 0 0 0 0 0 0 0 0 0 0 0 0 0 0.5 0" in="shadowBlurOuter1"/></filter><circle id="V" cx="13" cy="13" r="13"/><filter x="-50%" y="-50%" width="200%" height="200%" filterUnits="objectBoundingBox" id="U"><feOffset dy="2" in="SourceAlpha" result="shadowOffsetOuter1"/><feGaussianBlur stdDeviation="2" in="shadowOffsetOuter1" result="shadowBlurOuter1"/><feColorMatrix values="0 0 0 0 0 0 0 0 0 0 0 0 0 0 0 0 0 0 0.5 0" in="shadowBlurOuter1"/></filter><circle id="X" cx="13" cy="13" r="13"/><filter x="-50%" y="-50%" width="200%" height="200%" filterUnits="objectBoundingBox" id="W"><feOffset dy="2" in="SourceAlpha" result="shadowOffsetOuter1"/><feGaussianBlur stdDeviation="2" in="shadowOffsetOuter1" result="shadowBlurOuter1"/><feColorMatrix values="0 0 0 0 0 0 0 0 0 0 0 0 0 0 0 0 0 0 0.5 0" in="shadowBlurOuter1"/></filter><circle id="Z" cx="13" cy="13" r="13"/><filter x="-50%" y="-50%" width="200%" height="200%" filterUnits="objectBoundingBox" id="Y"><feOffset dy="2" in="SourceAlpha" result="shadowOffsetOuter1"/><feGaussianBlur stdDeviation="2" in="shadowOffsetOuter1" result="shadowBlurOuter1"/><feColorMatrix values="0 0 0 0 0 0 0 0 0 0 0 0 0 0 0 0 0 0 0.5 0" in="shadowBlurOuter1"/></filter><circle id="ab" cx="13" cy="13" r="13"/><filter x="-50%" y="-50%" width="200%" height="200%" filterUnits="objectBoundingBox" id="aa"><feOffset dy="2" in="SourceAlpha" result="shadowOffsetOuter1"/><feGaussianBlur stdDeviation="2" in="shadowOffsetOuter1" result="shadowBlurOuter1"/><feColorMatrix values="0 0 0 0 0 0 0 0 0 0 0 0 0 0 0 0 0 0 0.5 0" in="shadowBlurOuter1"/></filter><circle id="ad" cx="13" cy="13" r="13"/><filter x="-50%" y="-50%" width="200%" height="200%" filterUnits="objectBoundingBox" id="ac"><feOffset dy="2" in="SourceAlpha" result="shadowOffsetOuter1"/><feGaussianBlur stdDeviation="2" in="shadowOffsetOuter1" result="shadowBlurOuter1"/><feColorMatrix values="0 0 0 0 0 0 0 0 0 0 0 0 0 0 0 0 0 0 0.5 0" in="shadowBlurOuter1"/></filter><circle id="af" cx="13" cy="13" r="13"/><filter x="-50%" y="-50%" width="200%" height="200%" filterUnits="objectBoundingBox" id="ae"><feOffset dy="2" in="SourceAlpha" result="shadowOffsetOuter1"/><feGaussianBlur stdDeviation="2" in="shadowOffsetOuter1" result="shadowBlurOuter1"/><feColorMatrix values="0 0 0 0 0 0 0 0 0 0 0 0 0 0 0 0 0 0 0.5 0" in="shadowBlurOuter1"/></filter><circle id="ah" cx="13" cy="13" r="13"/><filter x="-50%" y="-50%" width="200%" height="200%" filterUnits="objectBoundingBox" id="ag"><feOffset dy="2" in="SourceAlpha" result="shadowOffsetOuter1"/><feGaussianBlur stdDeviation="2" in="shadowOffsetOuter1" result="shadowBlurOuter1"/><feColorMatrix values="0 0 0 0 0 0 0 0 0 0 0 0 0 0 0 0 0 0 0.5 0" in="shadowBlurOuter1"/></filter><circle id="aj" cx="13" cy="13" r="13"/><filter x="-50%" y="-50%" width="200%" height="200%" filterUnits="objectBoundingBox" id="ai"><feOffset dy="2" in="SourceAlpha" result="shadowOffsetOuter1"/><feGaussianBlur stdDeviation="2" in="shadowOffsetOuter1" result="shadowBlurOuter1"/><feColorMatrix values="0 0 0 0 0 0 0 0 0 0 0 0 0 0 0 0 0 0 0.5 0" in="shadowBlurOuter1"/></filter><circle id="al" cx="13" cy="13" r="13"/><filter x="-50%" y="-50%" width="200%" height="200%" filterUnits="objectBoundingBox" id="ak"><feOffset dy="2" in="SourceAlpha" result="shadowOffsetOuter1"/><feGaussianBlur stdDeviation="2" in="shadowOffsetOuter1" result="shadowBlurOuter1"/><feColorMatrix values="0 0 0 0 0 0 0 0 0 0 0 0 0 0 0 0 0 0 0.5 0" in="shadowBlurOuter1"/></filter><circle id="an" cx="13" cy="13" r="13"/><filter x="-50%" y="-50%" width="200%" height="200%" filterUnits="objectBoundingBox" id="am"><feOffset dy="2" in="SourceAlpha" result="shadowOffsetOuter1"/><feGaussianBlur stdDeviation="2" in="shadowOffsetOuter1" result="shadowBlurOuter1"/><feColorMatrix values="0 0 0 0 0 0 0 0 0 0 0 0 0 0 0 0 0 0 0.5 0" in="shadowBlurOuter1"/></filter><circle id="ap" cx="24" cy="22" r="20"/><filter x="-50%" y="-50%" width="200%" height="200%" filterUnits="objectBoundingBox" id="ao"><feOffset dy="2" in="SourceAlpha" result="shadowOffsetOuter1"/><feGaussianBlur stdDeviation="2" in="shadowOffsetOuter1" result="shadowBlurOuter1"/><feColorMatrix values="0 0 0 0 0 0 0 0 0 0 0 0 0 0 0 0 0 0 0.5 0" in="shadowBlurOuter1"/></filter><circle id="ar" cx="24" cy="22" r="20"/><filter x="-50%" y="-50%" width="200%" height="200%" filterUnits="objectBoundingBox" id="aq"><feOffset dy="2" in="SourceAlpha" result="shadowOffsetOuter1"/><feGaussianBlur stdDeviation="2" in="shadowOffsetOuter1" result="shadowBlurOuter1"/><feColorMatrix values="0 0 0 0 0 0 0 0 0 0 0 0 0 0 0 0 0 0 0.5 0" in="shadowBlurOuter1"/></filter><filter x="-50%" y="-50%" width="200%" height="200%" filterUnits="objectBoundingBox" id="as"><feOffset dy="2" in="SourceAlpha" result="shadowOffsetOuter1"/><feGaussianBlur stdDeviation="2" in="shadowOffsetOuter1" result="shadowBlurOuter1"/><feColorMatrix values="0 0 0 0 0 0 0 0 0 0 0 0 0 0 0 0 0 0 0.5 0" in="shadowBlurOuter1" result="shadowMatrixOuter1"/><feMerge><feMergeNode in="shadowMatrixOuter1"/><feMergeNode in="SourceGraphic"/></feMerge></filter><ellipse id="au" cx="210" cy="192.5" rx="175" ry="175"/><filter x="-50%" y="-50%" width="200%" height="200%" filterUnits="objectBoundingBox" id="at"><feOffset dy="2" in="SourceAlpha" result="shadowOffsetOuter1"/><feGaussianBlur stdDeviation="2" in="shadowOffsetOuter1" result="shadowBlurOuter1"/><feColorMatrix values="0 0 0 0 0 0 0 0 0 0 0 0 0 0 0 0 0 0 0.5 0" in="shadowBlurOuter1"/></filter></defs><g fill="none" fill-rule="evenodd"><g transform="translate(184.783 31)"><path fill="#FFF" d="M43.7 59.782h1278.791v800.16H43.7z"/><use stroke="#C6C6C6" mask="url(#b)" stroke-width="4" xlink:href="#a"/></g><g transform="translate(858.678 58.592)"><ellipse fill="url(#c)" cx="9.2" cy="9.197" rx="9.2" ry="9.197"/><ellipse fill="#103470" cx="9.2" cy="9.197" rx="4.6" ry="4.599"/></g><g transform="translate(32 943.827)"><use fill="#000" filter="url(#d)" xlink:href="#e"/><use fill="url(#f)" xlink:href="#e"/></g><path fill="url(#g)" d="M.984 0h1669.788v32.19H.984z" transform="translate(32 943.827)"/><g transform="translate(32 943.827)"><use fill="url(#h)" xlink:href="#i"/><use fill="#000" filter="url(#j)" xlink:href="#i"/></g><path d="M227 444h1280" stroke="#979797" opacity=".2"/><g transform="translate(227 94)"><use fill="#000" filter="url(#k)" xlink:href="#l"/><use fill="#FFF" xlink:href="#l"/></g><path d="M1280 94h230v45h-230z"/><path fill="#455A64" d="M1485 117h9l-4.5 3zm-90 0h9l-4.5 3z"/><text font-family="Roboto-Bold, Roboto" font-size="14" font-weight="bold" fill="#455A64" transform="translate(1280 94)"><tspan x="169" y="28">Mike</tspan></text><text font-family="Roboto-Bold, Roboto" font-size="14" font-weight="bold" fill="#455A64" transform="translate(1280 94)"><tspan x="27.35" y="28">Organization</tspan></text><path d="M1290 114.75h2.75V112H1290v2.75zm4.125 8.25h2.75v-2.75h-2.75V123zm-4.125 0h2.75v-2.75H1290V123zm0-4.125h2.75v-2.75H1290v2.75zm4.125 0h2.75v-2.75h-2.75v2.75zm4.125-6.875v2.75h2.75V112h-2.75zm-4.125 2.75h2.75V112h-2.75v2.75zm4.125 4.125h2.75v-2.75h-2.75v2.75zm0 4.125h2.75v-2.75h-2.75V123zm138.25-6.5a2.758 2.758 0 0 0 2.75-2.75 2.758 2.758 0 0 0-2.75-2.75 2.758 2.758 0 0 0-2.75 2.75 2.758 2.758 0 0 0 2.75 2.75zm0 1.375c-1.856 0-5.5.894-5.5 2.75V122h11v-1.375c0-1.856-3.644-2.75-5.5-2.75z" fill="#455A64"/><g font-size="14" fill="#000"><text font-family="OpenSans-Bold, Open Sans" font-weight="bold" transform="translate(267 106)"><tspan x="4" y="15">PEOPLE</tspan></text><text font-family="OpenSans, Open Sans" transform="translate(267 106)"><tspan x="58.172" y="15">TREE</tspan></text></g><path d="M866.959 496c0 18.746 82.541 14.605 82.541 30m-82.942-5.399V496m-.517 0c0 18.746-82.541 14.605-82.541 30m-300.088 47.5c0 18.746 74.088 14.605 74.088 30m-74.448-5.399V573.5m-.464 0c0 18.746-74.088 14.605-74.088 30M558.459 496c0 18.746 82.541 14.605 82.541 30m-82.541-30c0 18.746 154.541 14.605 154.541 30m-154.942-5.399V496m-.517 0c0 18.746-82.541 14.605-82.541 30m82.541-30c0 18.746-143.541 14.605-143.541 30m674.776-30c0 30 150.724 14.605 150.724 30m-151.276-30c0 18.746-49.724 14.605-49.724 30M867 408c0 18.746 221 14.605 221 30m-221-30c0 18.746 304 14.605 304 30m-304.437-5.399V408m-.563 0c0 18.746-78 14.605-78 30m78-30c0 18.746-308 14.605-308 30" stroke="#CFD8DC"/><g transform="translate(545 431)"><use fill="#000" filter="url(#m)" xlink:href="#n"/><use fill="#CFD8DC" xlink:href="#n"/></g><text font-family="Roboto-Bold, Roboto" font-size="10.464" font-weight="bold" fill="#FFF" transform="translate(545 431)"><tspan x="7.086" y="17.25">RF</tspan></text><g fill="#979797"><text font-family="Roboto-Bold, Roboto" font-size="9" font-weight="bold" transform="translate(516 468)"><tspan x="18.902" y="8">Ron Flamer</tspan></text><text font-family="Roboto-Regular, Roboto" font-size="6" transform="translate(516 468)"><tspan x="19.252" y="15">Sr. iOS Developer</tspan></text></g><g transform="translate(775 431)"><use fill="#000" filter="url(#o)" xlink:href="#p"/><use fill="#CFD8DC" xlink:href="#p"/></g><text font-family="Roboto-Bold, Roboto" font-size="10.464" font-weight="bold" fill="#FFF" transform="translate(775 431)"><tspan x="6.762" y="17.25">LH</tspan></text><g fill="#979797"><text font-family="Roboto-Bold, Roboto" font-size="9" font-weight="bold" transform="translate(746 468)"><tspan x="16.417" y="8">Lauren Hello</tspan></text><text font-family="Roboto-Regular, Roboto" font-size="6" transform="translate(746 468)"><tspan x="19.252" y="15">Sr. iOS Developer</tspan></text></g><g transform="translate(1076 431)"><use fill="#000" filter="url(#q)" xlink:href="#r"/><use fill="#CFD8DC" xlink:href="#r"/></g><text font-family="Roboto-Bold, Roboto" font-size="10.464" font-weight="bold" fill="#FFF" transform="translate(1076 431)"><tspan x="5.015" y="17.25">MN</tspan></text><g fill="#979797"><text font-family="Roboto-Bold, Roboto" font-size="9" font-weight="bold" transform="translate(1047 468)"><tspan x="20.531" y="8">Mike Nash</tspan></text><text font-family="Roboto-Regular, Roboto" font-size="6" transform="translate(1047 468)"><tspan x="19.252" y="15">Sr. iOS Developer</tspan></text></g><g transform="translate(853 431)"><use fill="#000" filter="url(#s)" xlink:href="#t"/><use fill="#CFD8DC" xlink:href="#t"/></g><text font-family="Roboto-Bold, Roboto" font-size="10.464" font-weight="bold" fill="#FFF" transform="translate(853 431)"><tspan x="6.68" y="17.25">TP</tspan></text><g fill="#979797"><text font-family="Roboto-Bold, Roboto" font-size="9" font-weight="bold" transform="translate(824 468)"><tspan x="13.633" y="8">Tiger Penguin</tspan></text><text font-family="Roboto-Regular, Roboto" font-size="6" transform="translate(824 468)"><tspan x="24.441" y="15">Dev Manager</tspan></text></g><g transform="translate(1159 431)"><use fill="#000" filter="url(#u)" xlink:href="#v"/><use fill="#CFD8DC" xlink:href="#v"/></g><text font-family="Roboto-Bold, Roboto" font-size="10.464" font-weight="bold" fill="#FFF" transform="translate(1159 431)"><tspan x="6.578" y="17.25">BP</tspan></text><g fill="#979797"><text font-family="Roboto-Bold, Roboto" font-size="9" font-weight="bold" transform="translate(1130 468)"><tspan x="15.147" y="8">Ben Parkison</tspan></text><text font-family="Roboto-Regular, Roboto" font-size="6" transform="translate(1130 468)"><tspan x="19.252" y="15">Sr. iOS Developer</tspan></text></g><g fill="#979797"><text font-family="Roboto-Bold, Roboto" font-size="9" font-weight="bold" transform="translate(826 378)"><tspan x="12.196" y="8">Albert Einstein</tspan></text><text font-family="Roboto-Regular, Roboto" font-size="6" transform="translate(826 378)"><tspan x="17.451" y="15">Managing Director</tspan></text></g><g transform="translate(846 326)"><use fill="#000" filter="url(#w)" xlink:href="#x"/><use fill="#FFF" xlink:href="#x"/></g><text font-family="Roboto-Bold, Roboto" font-size="17.306" font-weight="bold" fill="#4A4A4A" transform="translate(846 326)"><tspan x="10.302" y="28">AE</tspan></text><g fill="#979797"><text font-family="Roboto-Bold, Roboto" font-size="9" font-weight="bold" transform="translate(826 551)"><tspan x="7.786" y="8">Michael Jackson</tspan></text><text font-family="Roboto-Regular, Roboto" font-size="6" transform="translate(826 551)"><tspan x="22.081" y="15">Web Developer</tspan></text></g><g transform="translate(853 517)"><use fill="#000" filter="url(#y)" xlink:href="#z"/><use fill="#CFD8DC" xlink:href="#z"/></g><text font-family="Roboto-Bold, Roboto" font-size="10.464" font-weight="bold" fill="#FFF" transform="translate(853 517)"><tspan x="5.786" y="17.25">MJ</tspan></text><g fill="#979797"><text font-family="Roboto-Bold, Roboto" font-size="9" font-weight="bold" transform="translate(908 551)"><tspan x="16.015" y="8">Taylor Fonda</tspan></text><text font-family="Roboto-Regular, Roboto" font-size="6" transform="translate(908 551)"><tspan x="29.985" y="15">Architect</tspan></text></g><g transform="translate(936 517)"><use fill="#000" filter="url(#A)" xlink:href="#B"/><use fill="#CFD8DC" xlink:href="#B"/></g><text font-family="Roboto-Bold, Roboto" font-size="10.464" font-weight="bold" fill="#FFF" transform="translate(936 517)"><tspan x="7.189" y="17.25">TF</tspan></text><g fill="#979797"><text font-family="Roboto-Bold, Roboto" font-size="9" font-weight="bold" transform="translate(1006 551)"><tspan x="13.646" y="8">Jerome Bettis</tspan></text><text font-family="Roboto-Regular, Roboto" font-size="6" transform="translate(1006 551)"><tspan x="23.789" y="15">Running Back</tspan></text></g><g transform="translate(1034 517)"><use fill="#000" filter="url(#C)" xlink:href="#D"/><use fill="#CFD8DC" xlink:href="#D"/></g><text font-family="Roboto-Bold, Roboto" font-size="10.464" font-weight="bold" fill="#FFF" transform="translate(1034 517)"><tspan x="7.03" y="17.25">JB</tspan></text><g fill="#979797"><text font-family="Roboto-Bold, Roboto" font-size="9" font-weight="bold" transform="translate(1203 551)"><tspan x="13.392" y="8">Barry Sanders</tspan></text><text font-family="Roboto-Regular, Roboto" font-size="6" transform="translate(1203 551)"><tspan x="23.789" y="15">Running Back</tspan></text></g><g transform="translate(1231 517)"><use fill="#000" filter="url(#E)" xlink:href="#F"/><use fill="#CFD8DC" xlink:href="#F"/></g><text font-family="Roboto-Bold, Roboto" font-size="10.464" font-weight="bold" fill="#FFF" transform="translate(1231 517)"><tspan x="6.736" y="17.25">BS</tspan></text><g fill="#979797"><text font-family="Roboto-Bold, Roboto" font-size="9" font-weight="bold" transform="translate(745 551)"><tspan x="16.556" y="8">Donald Duck</tspan></text><text font-family="Roboto-Regular, Roboto" font-size="6" transform="translate(745 551)"><tspan x="19.252" y="15">Sr. iOS Developer</tspan></text></g><g transform="translate(775 517)"><use fill="#000" filter="url(#G)" xlink:href="#H"/><use fill="#CFD8DC" xlink:href="#H"/></g><text font-family="Roboto-Bold, Roboto" font-size="10.464" font-weight="bold" fill="#FFF" transform="translate(775 517)"><tspan x="6.491" y="17.25">DD</tspan></text><g fill="#979797"><text font-family="Roboto-Bold, Roboto" font-size="9" font-weight="bold" transform="translate(442.25 551)"><tspan x="7.786" y="8">Michael Jackson</tspan></text><text font-family="Roboto-Regular, Roboto" font-size="6" transform="translate(442.25 551)"><tspan x="22.081" y="15">Web Developer</tspan></text></g><g transform="translate(469.25 517)"><use fill="#000" filter="url(#I)" xlink:href="#J"/><use fill="#CFD8DC" xlink:href="#J"/></g><text font-family="Roboto-Bold, Roboto" font-size="10.464" font-weight="bold" fill="#FFF" transform="translate(469.25 517)"><tspan x="5.786" y="17.25">MJ</tspan></text><g fill="#979797"><text font-family="Roboto-Bold, Roboto" font-size="9" font-weight="bold" transform="translate(516.5 551)"><tspan x="16.015" y="8">Taylor Fonda</tspan></text><text font-family="Roboto-Regular, Roboto" font-size="6" transform="translate(516.5 551)"><tspan x="29.985" y="15">Architect</tspan></text></g><g transform="translate(544.5 517)"><use fill="#000" filter="url(#K)" xlink:href="#L"/><use fill="#CFD8DC" xlink:href="#L"/></g><text font-family="Roboto-Bold, Roboto" font-size="10.464" font-weight="bold" fill="#FFF" transform="translate(544.5 517)"><tspan x="7.189" y="17.25">TF</tspan></text><g fill="#979797"><text font-family="Roboto-Bold, Roboto" font-size="9" font-weight="bold" transform="translate(516 634)"><tspan x="16.015" y="8">Taylor Fonda</tspan></text><text font-family="Roboto-Regular, Roboto" font-size="6" transform="translate(516 634)"><tspan x="29.985" y="15">Architect</tspan></text></g><g transform="translate(544 600)"><use fill="#000" filter="url(#M)" xlink:href="#N"/><use fill="#CFD8DC" xlink:href="#N"/></g><text font-family="Roboto-Bold, Roboto" font-size="10.464" font-weight="bold" fill="#FFF" transform="translate(544 600)"><tspan x="7.189" y="17.25">TF</tspan></text><g fill="#979797"><text font-family="Roboto-Bold, Roboto" font-size="9" font-weight="bold" transform="translate(368 551)"><tspan x="16.556" y="8">Donald Duck</tspan></text><text font-family="Roboto-Regular, Roboto" font-size="6" transform="translate(368 551)"><tspan x="19.252" y="15">Sr. iOS Developer</tspan></text></g><g transform="translate(398 517)"><use fill="#000" filter="url(#O)" xlink:href="#P"/><use fill="#CFD8DC" xlink:href="#P"/></g><text font-family="Roboto-Bold, Roboto" font-size="10.464" font-weight="bold" fill="#FFF" transform="translate(398 517)"><tspan x="6.491" y="17.25">DD</tspan></text><g fill="#979797"><text font-family="Roboto-Bold, Roboto" font-size="9" font-weight="bold" transform="translate(665 551)"><tspan x="7.786" y="8">Michael Jackson</tspan></text><text font-family="Roboto-Regular, Roboto" font-size="6" transform="translate(665 551)"><tspan x="22.081" y="15">Web Developer</tspan></text></g><g transform="translate(692 517)"><use fill="#000" filter="url(#Q)" xlink:href="#R"/><use fill="#CFD8DC" xlink:href="#R"/></g><text font-family="Roboto-Bold, Roboto" font-size="10.464" font-weight="bold" fill="#FFF" transform="translate(692 517)"><tspan x="5.786" y="17.25">MJ</tspan></text><g fill="#979797"><text font-family="Roboto-Bold, Roboto" font-size="9" font-weight="bold" transform="translate(590.75 551)"><tspan x="16.556" y="8">Donald Duck</tspan></text><text font-family="Roboto-Regular, Roboto" font-size="6" transform="translate(590.75 551)"><tspan x="19.252" y="15">Sr. iOS Developer</tspan></text></g><g transform="translate(620.75 517)"><use fill="#000" filter="url(#S)" xlink:href="#T"/><use fill="#CFD8DC" xlink:href="#T"/></g><text font-family="Roboto-Bold, Roboto" font-size="10.464" font-weight="bold" fill="#FFF" transform="translate(620.75 517)"><tspan x="6.491" y="17.25">DD</tspan></text><g fill="#979797"><text font-family="Roboto-Bold, Roboto" font-size="9" font-weight="bold" transform="translate(369 634)"><tspan x="16.015" y="8">Taylor Fonda</tspan></text><text font-family="Roboto-Regular, Roboto" font-size="6" transform="translate(369 634)"><tspan x="29.985" y="15">Architect</tspan></text></g><g transform="translate(397 600)"><use fill="#000" filter="url(#U)" xlink:href="#V"/><use fill="#CFD8DC" xlink:href="#V"/></g><text font-family="Roboto-Bold, Roboto" font-size="10.464" font-weight="bold" fill="#FFF" transform="translate(397 600)"><tspan x="7.189" y="17.25">TF</tspan></text><g fill="#979797"><text font-family="Roboto-Bold, Roboto" font-size="9" font-weight="bold" transform="translate(438.5 634)"><tspan x="16.556" y="8">Donald Duck</tspan></text><text font-family="Roboto-Regular, Roboto" font-size="6" transform="translate(438.5 634)"><tspan x="19.252" y="15">Sr. iOS Developer</tspan></text></g><g transform="translate(468.5 600)"><use fill="#000" filter="url(#W)" xlink:href="#X"/><use fill="#CFD8DC" xlink:href="#X"/></g><text font-family="Roboto-Bold, Roboto" font-size="10.464" font-weight="bold" fill="#FFF" transform="translate(468.5 600)"><tspan x="6.491" y="17.25">DD</tspan></text><path d="M787.912 574c0 18.746 74.088 14.605 74.088 30m-74.448-5.399V574m-.464 0c0 18.746-74.088 14.605-74.088 30" stroke="#CFD8DC"/><g fill="#979797"><text font-family="Roboto-Bold, Roboto" font-size="9" font-weight="bold" transform="translate(820 634)"><tspan x="16.015" y="8">Taylor Fonda</tspan></text><text font-family="Roboto-Regular, Roboto" font-size="6" transform="translate(820 634)"><tspan x="29.985" y="15">Architect</tspan></text></g><g transform="translate(848 600)"><use fill="#000" filter="url(#Y)" xlink:href="#Z"/><use fill="#CFD8DC" xlink:href="#Z"/></g><text font-family="Roboto-Bold, Roboto" font-size="10.464" font-weight="bold" fill="#FFF" transform="translate(848 600)"><tspan x="7.189" y="17.25">TF</tspan></text><g fill="#979797"><text font-family="Roboto-Bold, Roboto" font-size="9" font-weight="bold" transform="translate(673 634)"><tspan x="16.015" y="8">Taylor Fonda</tspan></text><text font-family="Roboto-Regular, Roboto" font-size="6" transform="translate(673 634)"><tspan x="29.985" y="15">Architect</tspan></text></g><g transform="translate(701 600)"><use fill="#000" filter="url(#aa)" xlink:href="#ab"/><use fill="#CFD8DC" xlink:href="#ab"/></g><text font-family="Roboto-Bold, Roboto" font-size="10.464" font-weight="bold" fill="#FFF" transform="translate(701 600)"><tspan x="7.189" y="17.25">TF</tspan></text><g fill="#979797"><text font-family="Roboto-Bold, Roboto" font-size="9" font-weight="bold" transform="translate(743 634)"><tspan x="16.556" y="8">Donald Duck</tspan></text><text font-family="Roboto-Regular, Roboto" font-size="6" transform="translate(743 634)"><tspan x="19.252" y="15">Sr. iOS Developer</tspan></text></g><g transform="translate(773 600)"><use fill="#000" filter="url(#ac)" xlink:href="#ad"/><use fill="#CFD8DC" xlink:href="#ad"/></g><text font-family="Roboto-Bold, Roboto" font-size="10.464" font-weight="bold" fill="#FFF" transform="translate(773 600)"><tspan x="6.491" y="17.25">DD</tspan></text><path d="M1244.912 574c0 18.746 74.088 14.605 74.088 30m-74.448-5.399V574m-.464 0c0 18.746-74.088 14.605-74.088 30m-122.287-30c0 18.746 38.287 14.605 38.287 30m-38.713-30c0 18.746-38.287 14.605-38.287 30" stroke="#CFD8DC"/><g fill="#979797"><text font-family="Roboto-Bold, Roboto" font-size="9" font-weight="bold" transform="translate(1277 634)"><tspan x="16.015" y="8">Taylor Fonda</tspan></text><text font-family="Roboto-Regular, Roboto" font-size="6" transform="translate(1277 634)"><tspan x="29.985" y="15">Architect</tspan></text></g><g transform="translate(1305 600)"><use fill="#000" filter="url(#ae)" xlink:href="#af"/><use fill="#CFD8DC" xlink:href="#af"/></g><text font-family="Roboto-Bold, Roboto" font-size="10.464" font-weight="bold" fill="#FFF" transform="translate(1305 600)"><tspan x="7.189" y="17.25">TF</tspan></text><g fill="#979797"><text font-family="Roboto-Bold, Roboto" font-size="9" font-weight="bold" transform="translate(1130 634)"><tspan x="16.015" y="8">Taylor Fonda</tspan></text><text font-family="Roboto-Regular, Roboto" font-size="6" transform="translate(1130 634)"><tspan x="29.985" y="15">Architect</tspan></text></g><g transform="translate(1158 600)"><use fill="#000" filter="url(#ag)" xlink:href="#ah"/><use fill="#CFD8DC" xlink:href="#ah"/></g><text font-family="Roboto-Bold, Roboto" font-size="10.464" font-weight="bold" fill="#FFF" transform="translate(1158 600)"><tspan x="7.189" y="17.25">TF</tspan></text><g fill="#979797"><text font-family="Roboto-Bold, Roboto" font-size="9" font-weight="bold" transform="translate(1200 634)"><tspan x="16.556" y="8">Donald Duck</tspan></text><text font-family="Roboto-Regular, Roboto" font-size="6" transform="translate(1200 634)"><tspan x="19.252" y="15">Sr. iOS Developer</tspan></text></g><g transform="translate(1230 600)"><use fill="#000" filter="url(#ai)" xlink:href="#aj"/><use fill="#CFD8DC" xlink:href="#aj"/></g><text font-family="Roboto-Bold, Roboto" font-size="10.464" font-weight="bold" fill="#FFF" transform="translate(1230 600)"><tspan x="6.491" y="17.25">DD</tspan></text><g fill="#979797"><text font-family="Roboto-Bold, Roboto" font-size="9" font-weight="bold" transform="translate(971 634)"><tspan x="16.015" y="8">Taylor Fonda</tspan></text><text font-family="Roboto-Regular, Roboto" font-size="6" transform="translate(971 634)"><tspan x="29.985" y="15">Architect</tspan></text></g><g transform="translate(999 600)"><use fill="#000" filter="url(#ak)" xlink:href="#al"/><use fill="#CFD8DC" xlink:href="#al"/></g><text font-family="Roboto-Bold, Roboto" font-size="10.464" font-weight="bold" fill="#FFF" transform="translate(999 600)"><tspan x="7.189" y="17.25">TF</tspan></text><g fill="#979797"><text font-family="Roboto-Bold, Roboto" font-size="9" font-weight="bold" transform="translate(1041 634)"><tspan x="16.556" y="8">Donald Duck</tspan></text><text font-family="Roboto-Regular, Roboto" font-size="6" transform="translate(1041 634)"><tspan x="19.252" y="15">Sr. iOS Developer</tspan></text></g><g transform="translate(1071 600)"><use fill="#000" filter="url(#am)" xlink:href="#an"/><use fill="#CFD8DC" xlink:href="#an"/></g><text font-family="Roboto-Bold, Roboto" font-size="10.464" font-weight="bold" fill="#FFF" transform="translate(1071 600)"><tspan x="6.491" y="17.25">DD</tspan></text><path fill="#455A64" d="M1277 143h230v751h-230z"/><path fill="#607D8B" d="M1277 143h28v28h-28z"/><path fill="#FAFAFA" d="M1295.875 154l-.875-.875-3.5 3.5-3.5-3.5-.875.875 3.5 3.5-3.5 3.5.875.875 3.5-3.5 3.5 3.5.875-.875-3.5-3.5z"/><text font-family="HelveticaNeue, Helvetica Neue" font-size="12" fill="#B6B6B6" transform="translate(1277 143)"><tspan x="44" y="104">Managing Director</tspan></text><path fill="#0097FF" d="M1321 255h63v15h-63z"/><text font-family="HelveticaNeue-Bold, Helvetica Neue" font-size="7" font-weight="bold" fill="#FFF" transform="translate(1321 255)"><tspan x="7" y="10">ENGINEERING</tspan></text><text font-family="HelveticaNeue-Bold, Helvetica Neue" font-size="12" font-weight="bold" fill="#607D8B" transform="translate(1277 143)"><tspan x="13" y="49">Resource</tspan></text><text font-family="HelveticaNeue-Bold, Helvetica Neue" font-size="17" font-weight="bold" fill="#CFD8DC" transform="translate(1277 143)"><tspan x="44" y="87">Albert Einstein</tspan></text><path d="M1277.664 172.941h230m-230 130h230m-230 300h230" stroke="#607D8B"/><path fill="#607D8B" d="M1277 603h115v20h-115z"/><text opacity=".6" font-family="HelveticaNeue, Helvetica Neue" font-size="10" fill="#FFF" transform="translate(1277 603)"><tspan x="42.015" y="13">Publish</tspan></text><path fill="#455A64" opacity=".1" d="M1391 603h115v20h-115z"/><text font-family="HelveticaNeue-Bold, Helvetica Neue" font-size="10" font-weight="bold" fill="#FFF" transform="translate(1391 603)"><tspan x="42.76" y="13">Export</tspan></text><path fill="#0097FF" d="M1356 656h70v26h-70z"/><text font-family="OpenSans-Bold, Open Sans" font-size="10" font-weight="bold" fill="#FFF" transform="translate(1356 656)"><tspan x="32" y="17">CSV</tspan></text><path d="M1378.667 673.778h-9.334v-8.556H1374V664h-4.667c-.733 0-1.333.55-1.333 1.222v8.556c0 .672.6 1.222 1.333 1.222h9.334c.733 0 1.333-.55 1.333-1.222V669.5h-1.333v4.278zm-3.334-9.778v1.222h2.4l-6.533 5.99.933.855 6.534-5.99v2.2H1380V664h-4.667z" fill="#FFF"/><path fill="#0097FF" d="M1356 687h70v26h-70z"/><text font-family="OpenSans-Bold, Open Sans" font-size="10" font-weight="bold" fill="#FFF" transform="translate(1356 687)"><tspan x="32" y="17">PNG</tspan></text><path d="M1376 704.778v-8.556c0-.672-.55-1.222-1.222-1.222h-8.556c-.672 0-1.222.55-1.222 1.222v8.556c0 .672.55 1.222 1.222 1.222h8.556c.672 0 1.222-.55 1.222-1.222zm-7.639-3.361l1.528 1.833 2.139-2.75 2.75 3.667h-8.556l2.14-2.75z" fill="#FFF"/><path fill="#0097FF" d="M1356 718h70v26h-70z"/><text font-family="OpenSans-Bold, Open Sans" font-size="10" font-weight="bold" fill="#FFF" transform="translate(1356 718)"><tspan x="32" y="17">PDF</tspan></text><path d="M1370.072 729.422c.061-.244.122-.366.122-.55v-.122c.062-.306.062-.55 0-.611v-.061l-.06-.061s0 .06-.062.06c-.122.367-.122.795 0 1.345zm-1.833 4.217c-.122.061-.245.122-.306.183-.427.367-.733.795-.794.978.367-.061.733-.428 1.1-1.161zm5.622-.917c-.061-.06-.305-.244-1.161-.244h-.122v.06c.428.184.855.306 1.16.306h.184v-.06s-.06 0-.06-.062zm.917-6.722h-8.556c-.672 0-1.222.55-1.222 1.222v8.556c0 .672.55 1.222 1.222 1.222h8.556c.672 0 1.222-.55 1.222-1.222v-8.556c0-.672-.55-1.222-1.222-1.222zm-.672 7.211a1.22 1.22 0 0 1-.55.122 4.405 4.405 0 0 1-1.834-.427c-1.039.122-1.833.244-2.444.488-.061 0-.061 0-.122.062-.734 1.283-1.345 1.894-1.834 1.894-.122 0-.183 0-.244-.061l-.306-.183v-.062c-.06-.122-.06-.183-.06-.305.06-.306.427-.856 1.16-1.283.122-.062.306-.184.55-.306.184-.306.367-.672.611-1.1.306-.611.49-1.222.673-1.772-.245-.734-.367-1.161-.123-2.017.061-.244.245-.489.49-.489h.121c.123 0 .245.061.367.122.428.428.245 1.406 0 2.2v.062c.245.672.611 1.222.978 1.588.183.123.305.245.55.367.305 0 .55-.061.794-.061.734 0 1.223.122 1.406.428.061.122.061.244.061.366-.061.062-.122.245-.244.367zm-3.973-2.383c-.122.428-.366.916-.61 1.466-.123.245-.245.428-.367.673h.122c.794-.306 1.528-.49 2.016-.55-.122-.061-.183-.123-.244-.184-.306-.366-.672-.855-.917-1.405z" fill="#FFF"/><text font-family="HelveticaNeue-Bold, Helvetica Neue" font-size="12" font-weight="bold" fill="#607D8B" transform="translate(1290 310)"><tspan x="0" y="12">Settings</tspan></text><path fill="#0097FF" d="M1311 341h12v12h-12z"/><path fill="#FFF" d="M1315.489 348.892l-1.867-1.938-.622.646 2.489 2.585 5.333-5.539-.622-.646z"/><text font-family="OpenSans, Open Sans" font-size="10" fill="#FFF" transform="translate(1290 310)"><tspan x="39" y="40.754">Firstname</tspan></text><path fill="#0097FF" d="M1311 361h12v12h-12z"/><path fill="#FFF" d="M1315.489 368.892l-1.867-1.938-.622.646 2.489 2.585 5.333-5.539-.622-.646z"/><text font-family="OpenSans, Open Sans" font-size="10" fill="#FFF" transform="translate(1290 310)"><tspan x="39" y="60.754">Lastname</tspan></text><path fill="#0097FF" d="M1311 381h12v12h-12z"/><path fill="#FFF" d="M1315.489 388.892l-1.867-1.938-.622.646 2.489 2.585 5.333-5.539-.622-.646z"/><text font-family="OpenSans, Open Sans" font-size="10" fill="#FFF" transform="translate(1290 310)"><tspan x="39" y="80.754">Job Title</tspan></text><g transform="translate(273 218)"><use fill="#000" filter="url(#ao)" xlink:href="#ap"/><use fill="#FFF" xlink:href="#ap"/></g><g transform="translate(284.619 227.619)"><path d="M17.857 24.206c0-5.925-9.87-17.063-9.87-22.579m9.87-.437c0 5.93-9.668 14.912-9.668 22.627m15.224-11.084H1.984" stroke="#B0BEC5" stroke-dasharray="1" opacity=".5"/><ellipse fill="#CFD8DC" cx="12.698" cy="12.698" rx="2.381" ry="2.381"/><ellipse fill="#607D8B" cx="7.937" cy="1.587" rx="1.587" ry="1.587"/><ellipse fill="#607D8B" cx="17.46" cy="1.587" rx="1.587" ry="1.587"/><ellipse fill="#607D8B" cx="23.81" cy="12.698" rx="1.587" ry="1.587"/><ellipse fill="#607D8B" cx="7.937" cy="23.81" rx="1.587" ry="1.587"/><ellipse fill="#607D8B" cx="17.46" cy="23.81" rx="1.587" ry="1.587"/><ellipse fill="#607D8B" cx="1.587" cy="12.698" rx="1.587" ry="1.587"/></g><text font-family="HelveticaNeue, Helvetica Neue" font-size="12" fill="#CFD8DC" transform="translate(277 220)"><tspan x="48" y="23">Explore</tspan></text><g transform="translate(273 275)"><use fill="#000" filter="url(#aq)" xlink:href="#ar"/><use fill="#607D8B" xlink:href="#ar"/></g><path d="M289.19 286.457h15.706v21.121H289.19v-21.121z" fill="#CFD8DC"/><path d="M292.633 293.582h8.665m-8.665 4.875h8.665m-8.665-3.25h8.665m-8.665 1.625h8.665" stroke="#FFF"/><path d="M292.44 286.957h9.206" stroke="#FFF" stroke-width="5"/><text font-family="HelveticaNeue-Bold, Helvetica Neue" font-size="12" font-weight="bold" fill="#607D8B" transform="translate(277 277)"><tspan x="48" y="25">Share</tspan></text><path d="M207.777 33.3c-12.699 0-22.994 10.303-22.994 22.99v887.537h1363.89V56.29c0-12.698-10.29-22.992-22.994-22.992H207.777zm20.706 57.482v800.16h1278.79V90.782H228.484z" fill="#121212"/><g filter="url(#as)" transform="translate(0 115)"><use fill="#000" filter="url(#at)" xlink:href="#au"/><use fill="#607D8B" xlink:href="#au"/><path d="M141.667 100.249h137.422v184.809H141.667v-184.81z" fill-opacity=".4" fill="#FFF"/><path d="M171.793 155.834h75.819m-75.819 71.137h75.819m-75.819-47.749h75.819m-75.819 24.362h75.819" stroke="#FFF" stroke-width="16"/><path d="M170.099 98.827h80.558" stroke="#FFF" stroke-width="27"/></g></g></svg>