<svg width="1735" height="1017" viewBox="0 0 1735 1017" xmlns="http://www.w3.org/2000/svg" xmlns:xlink="http://www.w3.org/1999/xlink"><title>app-explore-framed</title><defs><rect id="a" width="1363.89" height="928.922" rx="23"/><mask id="d" x="0" y="0" width="1363.89" height="928.922" fill="#fff"><use xlink:href="#a"/></mask><linearGradient x1="50%" y1="0%" x2="50%" y2="100%" id="e"><stop stop-color="#151515" offset="0%"/><stop stop-color="#2C2C2C" offset="100%"/></linearGradient><linearGradient x1="50%" y1="0%" x2="50%" y2="100%" id="h"><stop stop-color="#96979B" offset="0%"/><stop stop-color="#2A2B2D" offset="100%"/></linearGradient><path d="M.054 31.319S17.479 48.72 66.826 53.317h1535.8s40.942-3.079 67.5-21.24H38.75L.054 31.32z" id="g"/><filter x="-50%" y="-50%" width="200%" height="200%" filterUnits="objectBoundingBox" id="f"><feOffset dy="2" in="SourceAlpha" result="shadowOffsetOuter1"/><feGaussianBlur stdDeviation="2" in="shadowOffsetOuter1" result="shadowBlurOuter1"/><feColorMatrix values="0 0 0 0 0 0 0 0 0 0 0 0 0 0 0 0 0 0 0.5 0" in="shadowBlurOuter1"/></filter><linearGradient x1="100%" y1="50%" x2="0%" y2="50%" id="i"><stop stop-color="#808185" offset="0%"/><stop stop-color="#CFD0D2" offset=".797%"/><stop stop-color="#949599" offset="2.104%"/><stop stop-color="#A7A8AC" offset="3.732%"/><stop stop-color="#B6B7BB" offset="4.234%"/><stop stop-color="#CFD0D4" offset=".212%"/><stop stop-color="#D8D8D8" offset="9.64%"/><stop stop-color="#DDDEE0" offset="90.91%"/><stop stop-color="#B1B2B4" offset="95.62%"/><stop stop-color="#C2C3C7" offset="98.255%"/><stop stop-color="#F1F3F2" offset="99.128%"/><stop stop-color="#E9EBEA" offset="99.357%"/><stop stop-color="#D4D5D7" offset="99.731%"/><stop stop-color="#7A7B7F" offset="100%"/></linearGradient><linearGradient x1="100%" y1="37.234%" x2="0%" y2="37.234%" id="j"><stop stop-color="#949599" offset="0%"/><stop stop-color="#9E9FA3" offset="3.582%"/><stop stop-color="#B9BABC" offset="5.166%"/><stop stop-color="#E0E1E3" offset="8.56%"/><stop stop-color="#D8D9DB" offset="91.829%"/><stop stop-color="#C2C3C5" offset="94.545%"/><stop stop-color="#8D8E90" offset="100%"/></linearGradient><path d="M717.262 1.065s.19 13.316 13.522 19.678h207.335s11.405-4.14 13.944-19.678h-231.44" id="k"/><filter x="-50%" y="-50%" width="200%" height="200%" filterUnits="objectBoundingBox" id="l"><feGaussianBlur stdDeviation=".5" in="SourceAlpha" result="shadowBlurInner1"/><feOffset in="shadowBlurInner1" result="shadowOffsetInner1"/><feComposite in="shadowOffsetInner1" in2="SourceAlpha" operator="arithmetic" k2="-1" k3="1" result="shadowInnerInner1"/><feColorMatrix values="0 0 0 0 0 0 0 0 0 0 0 0 0 0 0 0 0 0 0.301441866 0" in="shadowInnerInner1"/></filter><path id="n" d="M0 0h1283v47H0z"/><filter x="-50%" y="-50%" width="200%" height="200%" filterUnits="objectBoundingBox" id="m"><feOffset dy="2" in="SourceAlpha" result="shadowOffsetOuter1"/><feGaussianBlur stdDeviation="2" in="shadowOffsetOuter1" result="shadowBlurOuter1"/><feColorMatrix values="0 0 0 0 0 0 0 0 0 0 0 0 0 0 0 0 0 0 0.5 0" in="shadowBlurOuter1"/></filter><circle id="p" cx="24" cy="22" r="20"/><filter x="-50%" y="-50%" width="200%" height="200%" filterUnits="objectBoundingBox" id="o"><feOffset dy="2" in="SourceAlpha" result="shadowOffsetOuter1"/><feGaussianBlur stdDeviation="2" in="shadowOffsetOuter1" result="shadowBlurOuter1"/><feColorMatrix values="0 0 0 0 0 0 0 0 0 0 0 0 0 0 0 0 0 0 0.5 0" in="shadowBlurOuter1"/></filter><path d="M0 2h15.923v21.413H0V2z" id="b"/><mask id="q" x="0" y="0" width="15.923" height="21.413" fill="#fff"><use xlink:href="#b"/></mask><circle id="s" cx="24" cy="22" r="20"/><filter x="-50%" y="-50%" width="200%" height="200%" filterUnits="objectBoundingBox" id="r"><feOffset dy="2" in="SourceAlpha" result="shadowOffsetOuter1"/><feGaussianBlur stdDeviation="2" in="shadowOffsetOuter1" result="shadowBlurOuter1"/><feColorMatrix values="0 0 0 0 0 0 0 0 0 0 0 0 0 0 0 0 0 0 0.5 0" in="shadowBlurOuter1"/></filter><path d="M13 26c7.18 0 13-5.82 13-13S20.18 0 13 0 0 5.82 0 13s5.82 13 13 13z" id="u"/><filter x="-50%" y="-50%" width="200%" height="200%" filterUnits="objectBoundingBox" id="t"><feOffset dy="2" in="SourceAlpha" result="shadowOffsetOuter1"/><feGaussianBlur stdDeviation="2" in="shadowOffsetOuter1" result="shadowBlurOuter1"/><feColorMatrix values="0 0 0 0 0 0 0 0 0 0 0 0 0 0 0 0 0 0 0.5 0" in="shadowBlurOuter1"/></filter><circle id="w" cx="13" cy="13" r="13"/><filter x="-50%" y="-50%" width="200%" height="200%" filterUnits="objectBoundingBox" id="v"><feOffset dy="2" in="SourceAlpha" result="shadowOffsetOuter1"/><feGaussianBlur stdDeviation="2" in="shadowOffsetOuter1" result="shadowBlurOuter1"/><feColorMatrix values="0 0 0 0 0 0 0 0 0 0 0 0 0 0 0 0 0 0 0.5 0" in="shadowBlurOuter1"/></filter><circle id="y" cx="13" cy="13" r="13"/><filter x="-50%" y="-50%" width="200%" height="200%" filterUnits="objectBoundingBox" id="x"><feOffset dy="2" in="SourceAlpha" result="shadowOffsetOuter1"/><feGaussianBlur stdDeviation="2" in="shadowOffsetOuter1" result="shadowBlurOuter1"/><feColorMatrix values="0 0 0 0 0 0 0 0 0 0 0 0 0 0 0 0 0 0 0.5 0" in="shadowBlurOuter1"/></filter><circle id="A" cx="13" cy="13" r="13"/><filter x="-50%" y="-50%" width="200%" height="200%" filterUnits="objectBoundingBox" id="z"><feOffset dy="2" in="SourceAlpha" result="shadowOffsetOuter1"/><feGaussianBlur stdDeviation="2" in="shadowOffsetOuter1" result="shadowBlurOuter1"/><feColorMatrix values="0 0 0 0 0 0 0 0 0 0 0 0 0 0 0 0 0 0 0.5 0" in="shadowBlurOuter1"/></filter><circle id="C" cx="13" cy="13" r="13"/><filter x="-50%" y="-50%" width="200%" height="200%" filterUnits="objectBoundingBox" id="B"><feOffset dy="2" in="SourceAlpha" result="shadowOffsetOuter1"/><feGaussianBlur stdDeviation="2" in="shadowOffsetOuter1" result="shadowBlurOuter1"/><feColorMatrix values="0 0 0 0 0 0 0 0 0 0 0 0 0 0 0 0 0 0 0.5 0" in="shadowBlurOuter1"/></filter><circle id="E" cx="13" cy="13" r="13"/><filter x="-50%" y="-50%" width="200%" height="200%" filterUnits="objectBoundingBox" id="D"><feOffset dy="2" in="SourceAlpha" result="shadowOffsetOuter1"/><feGaussianBlur stdDeviation="2" in="shadowOffsetOuter1" result="shadowBlurOuter1"/><feColorMatrix values="0 0 0 0 0 0 0 0 0 0 0 0 0 0 0 0 0 0 0.5 0" in="shadowBlurOuter1"/></filter><circle id="G" cx="13" cy="13" r="13"/><filter x="-50%" y="-50%" width="200%" height="200%" filterUnits="objectBoundingBox" id="F"><feOffset dy="2" in="SourceAlpha" result="shadowOffsetOuter1"/><feGaussianBlur stdDeviation="2" in="shadowOffsetOuter1" result="shadowBlurOuter1"/><feColorMatrix values="0 0 0 0 0 0 0 0 0 0 0 0 0 0 0 0 0 0 0.5 0" in="shadowBlurOuter1"/></filter><circle id="I" cx="13" cy="13" r="13"/><filter x="-50%" y="-50%" width="200%" height="200%" filterUnits="objectBoundingBox" id="H"><feOffset dy="2" in="SourceAlpha" result="shadowOffsetOuter1"/><feGaussianBlur stdDeviation="2" in="shadowOffsetOuter1" result="shadowBlurOuter1"/><feColorMatrix values="0 0 0 0 0 0 0 0 0 0 0 0 0 0 0 0 0 0 0.5 0" in="shadowBlurOuter1"/></filter><circle id="K" cx="13" cy="13" r="13"/><filter x="-50%" y="-50%" width="200%" height="200%" filterUnits="objectBoundingBox" id="J"><feOffset dy="2" in="SourceAlpha" result="shadowOffsetOuter1"/><feGaussianBlur stdDeviation="2" in="shadowOffsetOuter1" result="shadowBlurOuter1"/><feColorMatrix values="0 0 0 0 0 0 0 0 0 0 0 0 0 0 0 0 0 0 0.5 0" in="shadowBlurOuter1"/></filter><circle id="M" cx="13" cy="13" r="13"/><filter x="-50%" y="-50%" width="200%" height="200%" filterUnits="objectBoundingBox" id="L"><feOffset dy="2" in="SourceAlpha" result="shadowOffsetOuter1"/><feGaussianBlur stdDeviation="2" in="shadowOffsetOuter1" result="shadowBlurOuter1"/><feColorMatrix values="0 0 0 0 0 0 0 0 0 0 0 0 0 0 0 0 0 0 0.5 0" in="shadowBlurOuter1"/></filter><circle id="O" cx="13" cy="13" r="13"/><filter x="-50%" y="-50%" width="200%" height="200%" filterUnits="objectBoundingBox" id="N"><feOffset dy="2" in="SourceAlpha" result="shadowOffsetOuter1"/><feGaussianBlur stdDeviation="2" in="shadowOffsetOuter1" result="shadowBlurOuter1"/><feColorMatrix values="0 0 0 0 0 0 0 0 0 0 0 0 0 0 0 0 0 0 0.5 0" in="shadowBlurOuter1"/></filter><circle id="Q" cx="13" cy="13" r="13"/><filter x="-50%" y="-50%" width="200%" height="200%" filterUnits="objectBoundingBox" id="P"><feOffset dy="2" in="SourceAlpha" result="shadowOffsetOuter1"/><feGaussianBlur stdDeviation="2" in="shadowOffsetOuter1" result="shadowBlurOuter1"/><feColorMatrix values="0 0 0 0 0 0 0 0 0 0 0 0 0 0 0 0 0 0 0.5 0" in="shadowBlurOuter1"/></filter><circle id="S" cx="13" cy="13" r="13"/><filter x="-50%" y="-50%" width="200%" height="200%" filterUnits="objectBoundingBox" id="R"><feOffset dy="2" in="SourceAlpha" result="shadowOffsetOuter1"/><feGaussianBlur stdDeviation="2" in="shadowOffsetOuter1" result="shadowBlurOuter1"/><feColorMatrix values="0 0 0 0 0 0 0 0 0 0 0 0 0 0 0 0 0 0 0.5 0" in="shadowBlurOuter1"/></filter><circle id="U" cx="13" cy="13" r="13"/><filter x="-50%" y="-50%" width="200%" height="200%" filterUnits="objectBoundingBox" id="T"><feOffset dy="2" in="SourceAlpha" result="shadowOffsetOuter1"/><feGaussianBlur stdDeviation="2" in="shadowOffsetOuter1" result="shadowBlurOuter1"/><feColorMatrix values="0 0 0 0 0 0 0 0 0 0 0 0 0 0 0 0 0 0 0.5 0" in="shadowBlurOuter1"/></filter><circle id="W" cx="13" cy="13" r="13"/><filter x="-50%" y="-50%" width="200%" height="200%" filterUnits="objectBoundingBox" id="V"><feOffset dy="2" in="SourceAlpha" result="shadowOffsetOuter1"/><feGaussianBlur stdDeviation="2" in="shadowOffsetOuter1" result="shadowBlurOuter1"/><feColorMatrix values="0 0 0 0 0 0 0 0 0 0 0 0 0 0 0 0 0 0 0.5 0" in="shadowBlurOuter1"/></filter><circle id="Y" cx="13" cy="13" r="13"/><filter x="-50%" y="-50%" width="200%" height="200%" filterUnits="objectBoundingBox" id="X"><feOffset dy="2" in="SourceAlpha" result="shadowOffsetOuter1"/><feGaussianBlur stdDeviation="2" in="shadowOffsetOuter1" result="shadowBlurOuter1"/><feColorMatrix values="0 0 0 0 0 0 0 0 0 0 0 0 0 0 0 0 0 0 0.5 0" in="shadowBlurOuter1"/></filter><circle id="aa" cx="13" cy="13" r="13"/><filter x="-50%" y="-50%" width="200%" height="200%" filterUnits="objectBoundingBox" id="Z"><feOffset dy="2" in="SourceAlpha" result="shadowOffsetOuter1"/><feGaussianBlur stdDeviation="2" in="shadowOffsetOuter1" result="shadowBlurOuter1"/><feColorMatrix values="0 0 0 0 0 0 0 0 0 0 0 0 0 0 0 0 0 0 0.5 0" in="shadowBlurOuter1"/></filter><circle id="ac" cx="13" cy="13" r="13"/><filter x="-50%" y="-50%" width="200%" height="200%" filterUnits="objectBoundingBox" id="ab"><feOffset dy="2" in="SourceAlpha" result="shadowOffsetOuter1"/><feGaussianBlur stdDeviation="2" in="shadowOffsetOuter1" result="shadowBlurOuter1"/><feColorMatrix values="0 0 0 0 0 0 0 0 0 0 0 0 0 0 0 0 0 0 0.5 0" in="shadowBlurOuter1"/></filter><circle id="ae" cx="13" cy="13" r="13"/><filter x="-50%" y="-50%" width="200%" height="200%" filterUnits="objectBoundingBox" id="ad"><feOffset dy="2" in="SourceAlpha" result="shadowOffsetOuter1"/><feGaussianBlur stdDeviation="2" in="shadowOffsetOuter1" result="shadowBlurOuter1"/><feColorMatrix values="0 0 0 0 0 0 0 0 0 0 0 0 0 0 0 0 0 0 0.5 0" in="shadowBlurOuter1"/></filter><circle id="ag" cx="13" cy="13" r="13"/><filter x="-50%" y="-50%" width="200%" height="200%" filterUnits="objectBoundingBox" id="af"><feOffset dy="2" in="SourceAlpha" result="shadowOffsetOuter1"/><feGaussianBlur stdDeviation="2" in="shadowOffsetOuter1" result="shadowBlurOuter1"/><feColorMatrix values="0 0 0 0 0 0 0 0 0 0 0 0 0 0 0 0 0 0 0.5 0" in="shadowBlurOuter1"/></filter><circle id="ai" cx="13" cy="13" r="13"/><filter x="-50%" y="-50%" width="200%" height="200%" filterUnits="objectBoundingBox" id="ah"><feOffset dy="2" in="SourceAlpha" result="shadowOffsetOuter1"/><feGaussianBlur stdDeviation="2" in="shadowOffsetOuter1" result="shadowBlurOuter1"/><feColorMatrix values="0 0 0 0 0 0 0 0 0 0 0 0 0 0 0 0 0 0 0.5 0" in="shadowBlurOuter1"/></filter><circle id="ak" cx="13" cy="13" r="13"/><filter x="-50%" y="-50%" width="200%" height="200%" filterUnits="objectBoundingBox" id="aj"><feOffset dy="2" in="SourceAlpha" result="shadowOffsetOuter1"/><feGaussianBlur stdDeviation="2" in="shadowOffsetOuter1" result="shadowBlurOuter1"/><feColorMatrix values="0 0 0 0 0 0 0 0 0 0 0 0 0 0 0 0 0 0 0.5 0" in="shadowBlurOuter1"/></filter><circle id="am" cx="13" cy="13" r="13"/><filter x="-50%" y="-50%" width="200%" height="200%" filterUnits="objectBoundingBox" id="al"><feOffset dy="2" in="SourceAlpha" result="shadowOffsetOuter1"/><feGaussianBlur stdDeviation="2" in="shadowOffsetOuter1" result="shadowBlurOuter1"/><feColorMatrix values="0 0 0 0 0 0 0 0 0 0 0 0 0 0 0 0 0 0 0.5 0" in="shadowBlurOuter1"/></filter><circle id="ao" cx="13" cy="13" r="13"/><filter x="-50%" y="-50%" width="200%" height="200%" filterUnits="objectBoundingBox" id="an"><feOffset dy="2" in="SourceAlpha" result="shadowOffsetOuter1"/><feGaussianBlur stdDeviation="2" in="shadowOffsetOuter1" result="shadowBlurOuter1"/><feColorMatrix values="0 0 0 0 0 0 0 0 0 0 0 0 0 0 0 0 0 0 0.5 0" in="shadowBlurOuter1"/></filter><circle id="aq" cx="13" cy="13" r="13"/><filter x="-50%" y="-50%" width="200%" height="200%" filterUnits="objectBoundingBox" id="ap"><feOffset dy="2" in="SourceAlpha" result="shadowOffsetOuter1"/><feGaussianBlur stdDeviation="2" in="shadowOffsetOuter1" result="shadowBlurOuter1"/><feColorMatrix values="0 0 0 0 0 0 0 0 0 0 0 0 0 0 0 0 0 0 0.5 0" in="shadowBlurOuter1"/></filter><circle id="as" cx="13" cy="13" r="13"/><filter x="-50%" y="-50%" width="200%" height="200%" filterUnits="objectBoundingBox" id="ar"><feOffset dy="2" in="SourceAlpha" result="shadowOffsetOuter1"/><feGaussianBlur stdDeviation="2" in="shadowOffsetOuter1" result="shadowBlurOuter1"/><feColorMatrix values="0 0 0 0 0 0 0 0 0 0 0 0 0 0 0 0 0 0 0.5 0" in="shadowBlurOuter1"/></filter><circle id="au" cx="13" cy="13" r="13"/><filter x="-50%" y="-50%" width="200%" height="200%" filterUnits="objectBoundingBox" id="at"><feOffset dy="2" in="SourceAlpha" result="shadowOffsetOuter1"/><feGaussianBlur stdDeviation="2" in="shadowOffsetOuter1" result="shadowBlurOuter1"/><feColorMatrix values="0 0 0 0 0 0 0 0 0 0 0 0 0 0 0 0 0 0 0.5 0" in="shadowBlurOuter1"/></filter><circle id="aw" cx="13" cy="13" r="13"/><filter x="-50%" y="-50%" width="200%" height="200%" filterUnits="objectBoundingBox" id="av"><feOffset dy="2" in="SourceAlpha" result="shadowOffsetOuter1"/><feGaussianBlur stdDeviation="2" in="shadowOffsetOuter1" result="shadowBlurOuter1"/><feColorMatrix values="0 0 0 0 0 0 0 0 0 0 0 0 0 0 0 0 0 0 0.5 0" in="shadowBlurOuter1"/></filter><circle id="ay" cx="13" cy="13" r="13"/><filter x="-50%" y="-50%" width="200%" height="200%" filterUnits="objectBoundingBox" id="ax"><feOffset dy="2" in="SourceAlpha" result="shadowOffsetOuter1"/><feGaussianBlur stdDeviation="2" in="shadowOffsetOuter1" result="shadowBlurOuter1"/><feColorMatrix values="0 0 0 0 0 0 0 0 0 0 0 0 0 0 0 0 0 0 0.5 0" in="shadowBlurOuter1"/></filter><circle id="aA" cx="13" cy="13" r="13"/><filter x="-50%" y="-50%" width="200%" height="200%" filterUnits="objectBoundingBox" id="az"><feOffset dy="2" in="SourceAlpha" result="shadowOffsetOuter1"/><feGaussianBlur stdDeviation="2" in="shadowOffsetOuter1" result="shadowBlurOuter1"/><feColorMatrix values="0 0 0 0 0 0 0 0 0 0 0 0 0 0 0 0 0 0 0.5 0" in="shadowBlurOuter1"/></filter><circle id="aC" cx="13" cy="13" r="13"/><filter x="-50%" y="-50%" width="200%" height="200%" filterUnits="objectBoundingBox" id="aB"><feOffset dy="2" in="SourceAlpha" result="shadowOffsetOuter1"/><feGaussianBlur stdDeviation="2" in="shadowOffsetOuter1" result="shadowBlurOuter1"/><feColorMatrix values="0 0 0 0 0 0 0 0 0 0 0 0 0 0 0 0 0 0 0.5 0" in="shadowBlurOuter1"/></filter><path id="aE" d="M0 0h570v58H0z"/><filter x="-50%" y="-50%" width="200%" height="200%" filterUnits="objectBoundingBox" id="aD"><feOffset dy="2" in="SourceAlpha" result="shadowOffsetOuter1"/><feGaussianBlur stdDeviation="2" in="shadowOffsetOuter1" result="shadowBlurOuter1"/><feColorMatrix values="0 0 0 0 0 0 0 0 0 0 0 0 0 0 0 0 0 0 0.5 0" in="shadowBlurOuter1"/></filter><filter x="-50%" y="-50%" width="200%" height="200%" filterUnits="objectBoundingBox" id="aF"><feOffset dy="2" in="SourceAlpha" result="shadowOffsetOuter1"/><feGaussianBlur stdDeviation="2" in="shadowOffsetOuter1" result="shadowBlurOuter1"/><feColorMatrix values="0 0 0 0 0 0 0 0 0 0 0 0 0 0 0 0 0 0 0.5 0" in="shadowBlurOuter1" result="shadowMatrixOuter1"/><feMerge><feMergeNode in="shadowMatrixOuter1"/><feMergeNode in="SourceGraphic"/></feMerge></filter><ellipse id="aH" cx="210" cy="192.5" rx="175" ry="175"/><filter x="-50%" y="-50%" width="200%" height="200%" filterUnits="objectBoundingBox" id="aG"><feOffset dy="2" in="SourceAlpha" result="shadowOffsetOuter1"/><feGaussianBlur stdDeviation="2" in="shadowOffsetOuter1" result="shadowBlurOuter1"/><feColorMatrix values="0 0 0 0 0 0 0 0 0 0 0 0 0 0 0 0 0 0 0.5 0" in="shadowBlurOuter1"/></filter><ellipse id="c" cx="111.111" cy="111.111" rx="20.833" ry="20.833"/><mask id="aI" x="-20" y="-20" width="81.667" height="81.667"><path fill="#fff" d="M70.278 70.278h81.667v81.667H70.278z"/><use xlink:href="#c"/></mask></defs><g fill="none" fill-rule="evenodd"><g transform="translate(184.783 31)"><path fill="#FFF" d="M43.7 59.782h1278.791v800.16H43.7z"/><use stroke="#C6C6C6" mask="url(#d)" stroke-width="4" xlink:href="#a"/></g><g transform="translate(858.678 58.592)"><ellipse fill="url(#e)" cx="9.2" cy="9.197" rx="9.2" ry="9.197"/><ellipse fill="#103470" cx="9.2" cy="9.197" rx="4.6" ry="4.599"/></g><g transform="translate(32 943.827)"><use fill="#000" filter="url(#f)" xlink:href="#g"/><use fill="url(#h)" xlink:href="#g"/></g><path fill="url(#i)" d="M.984 0h1669.788v32.19H.984z" transform="translate(32 943.827)"/><g transform="translate(32 943.827)"><use fill="url(#j)" xlink:href="#k"/><use fill="#000" filter="url(#l)" xlink:href="#k"/></g><path d="M227 444h1280" stroke="#979797" opacity=".2"/><g transform="translate(227 94)"><use fill="#000" filter="url(#m)" xlink:href="#n"/><use fill="#FFF" xlink:href="#n"/></g><path d="M1280 94h230v45h-230z"/><path fill="#455A64" d="M1485 117h9l-4.5 3zm-90 0h9l-4.5 3z"/><text font-family="Roboto-Bold, Roboto" font-size="14" font-weight="bold" fill="#455A64" transform="translate(1280 94)"><tspan x="169" y="28">Mike</tspan></text><text font-family="Roboto-Bold, Roboto" font-size="14" font-weight="bold" fill="#455A64" transform="translate(1280 94)"><tspan x="27.35" y="28">Organization</tspan></text><path d="M1290 114.75h2.75V112H1290v2.75zm4.125 8.25h2.75v-2.75h-2.75V123zm-4.125 0h2.75v-2.75H1290V123zm0-4.125h2.75v-2.75H1290v2.75zm4.125 0h2.75v-2.75h-2.75v2.75zm4.125-6.875v2.75h2.75V112h-2.75zm-4.125 2.75h2.75V112h-2.75v2.75zm4.125 4.125h2.75v-2.75h-2.75v2.75zm0 4.125h2.75v-2.75h-2.75V123zm138.25-6.5a2.758 2.758 0 0 0 2.75-2.75 2.758 2.758 0 0 0-2.75-2.75 2.758 2.758 0 0 0-2.75 2.75 2.758 2.758 0 0 0 2.75 2.75zm0 1.375c-1.856 0-5.5.894-5.5 2.75V122h11v-1.375c0-1.856-3.644-2.75-5.5-2.75z" fill="#455A64"/><g font-size="14" fill="#000"><text font-family="OpenSans-Bold, Open Sans" font-weight="bold" transform="translate(267 106)"><tspan x="4" y="15">PEOPLE</tspan></text><text font-family="OpenSans, Open Sans" transform="translate(267 106)"><tspan x="58.172" y="15">TREE</tspan></text></g><g transform="translate(273 271)"><use fill="#000" filter="url(#o)" xlink:href="#p"/><use fill="#FFF" xlink:href="#p"/></g><g transform="translate(289.078 280.31)"><use stroke="#CFD8DC" mask="url(#q)" stroke-width="4" fill="#CFD8DC" xlink:href="#b"/><path d="M3.49 9.224h8.785M3.49 14.166h8.785M3.49 10.871h8.785M3.49 12.518h8.785" stroke="#607D8B"/><path d="M3.294 2.5h9.334" stroke="#607D8B" stroke-width="5"/></g><text font-family="HelveticaNeue, Helvetica Neue" font-size="12" fill="#CFD8DC" transform="translate(277 273)"><tspan x="48" y="23">Share</tspan></text><path d="M373.9 239.484h41.19" stroke="#979797"/><g transform="translate(273 216)"><use fill="#000" filter="url(#r)" xlink:href="#s"/><use fill="#607D8B" xlink:href="#s"/></g><g transform="translate(284.619 225.619)"><path d="M17.857 24.206c0-5.925-9.87-17.063-9.87-22.579m9.87-.437c0 5.93-9.668 14.912-9.668 22.627m15.224-11.084H1.984" stroke="#FFF" stroke-dasharray="1" opacity=".5"/><ellipse fill="#CFD8DC" cx="12.698" cy="12.698" rx="2.381" ry="2.381"/><ellipse fill="#FFF" cx="7.937" cy="1.587" rx="1.587" ry="1.587"/><ellipse fill="#FFF" cx="17.46" cy="1.587" rx="1.587" ry="1.587"/><ellipse fill="#FFF" cx="23.81" cy="12.698" rx="1.587" ry="1.587"/><ellipse fill="#FFF" cx="7.937" cy="23.81" rx="1.587" ry="1.587"/><ellipse fill="#FFF" cx="17.46" cy="23.81" rx="1.587" ry="1.587"/><ellipse fill="#FFF" cx="1.587" cy="12.698" rx="1.587" ry="1.587"/></g><text font-family="HelveticaNeue-Bold, Helvetica Neue" font-size="12" font-weight="bold" fill="#607D8B" transform="translate(277 218)"><tspan x="48" y="25">Explore</tspan></text><path d="M417 238.5v82" stroke="#979797"/><g fill="#979797" transform="translate(407 231)"><circle opacity=".2" cx="10" cy="10" r="10"/><circle cx="10" cy="10" r="7"/></g><text font-family="HelveticaNeue, Helvetica Neue" font-size="6" fill="#FFF" transform="translate(407 231)"><tspan x="8.332" y="12">0</tspan></text><g fill="#979797" transform="translate(407 271)"><circle opacity=".2" cx="10" cy="10" r="10"/><circle cx="10" cy="10" r="7"/></g><text font-family="HelveticaNeue, Helvetica Neue" font-size="6" fill="#FFF" transform="translate(407 271)"><tspan x="8.332" y="12">1</tspan></text><g fill="#0097FF" transform="translate(407 311)"><circle opacity=".2" cx="10" cy="10" r="10"/><circle cx="10" cy="10" r="7"/></g><text font-family="HelveticaNeue, Helvetica Neue" font-size="6" fill="#FFF" transform="translate(407 311)"><tspan x="8.332" y="12">2</tspan></text><text opacity=".8" font-family="HelveticaNeue, Helvetica Neue" font-size="9" fill="#455A64" transform="translate(407 231)"><tspan x="23" y="13">Isaac Newton</tspan></text><text opacity=".8" font-family="HelveticaNeue, Helvetica Neue" font-size="9" fill="#455A64" transform="translate(407 231)"><tspan x="23" y="53">Albert Einstein</tspan></text><text opacity=".8" font-family="HelveticaNeue, Helvetica Neue" font-size="9" fill="#455A64" transform="translate(407 231)"><tspan x="23" y="93">Tiger Penguin</tspan></text><g transform="translate(456 134)"><g transform="translate(525 276)"><use fill="#000" filter="url(#t)" xlink:href="#u"/><use fill="#0097FF" xlink:href="#u"/></g><text font-family="Roboto-Bold, Roboto" font-size="10.46" font-weight="bold" fill="#FFF" transform="translate(525 276)"><tspan x="7.084" y="17.256">TP</tspan></text><text transform="rotate(-32 690.233 189.703)" font-family="Roboto-Regular, Roboto" font-size="12" fill="#979797"><tspan x="642.327" y="193.703">Michael</tspan></text><text transform="rotate(-16 721.402 247.786)" font-family="Roboto-Regular, Roboto" font-size="12" fill="#979797"><tspan x="673.496" y="251.786">Trevor</tspan></text><text transform="rotate(50 636.324 589.206)" font-family="Roboto-Regular, Roboto" font-size="12" fill="#979797"><tspan x="589.712" y="593.206">Trevor</tspan></text><circle stroke="#CFD8DC" stroke-width="3" cx="442" cy="352" r="19"/><text transform="rotate(39 681.63 539.774)" font-family="Roboto-Regular, Roboto" font-size="12" fill="#979797"><tspan x="635.018" y="543.774">Matt</tspan></text><g transform="translate(325 284)"><use fill="#000" filter="url(#v)" xlink:href="#w"/><use fill="#CFD8DC" xlink:href="#w"/></g><text font-family="Roboto-Bold, Roboto" font-size="10.464" font-weight="bold" fill="#FFF" transform="translate(325 284)"><tspan x="6.762" y="17.25">LH</tspan></text><g transform="translate(428 227)"><use fill="#000" filter="url(#x)" xlink:href="#y"/><use fill="#CFD8DC" xlink:href="#y"/></g><text font-family="Roboto-Bold, Roboto" font-size="10.464" font-weight="bold" fill="#FFF" transform="translate(428 227)"><tspan x="7.086" y="17.25">RF</tspan></text><g transform="translate(344 422)"><use fill="#000" filter="url(#z)" xlink:href="#A"/><use fill="#CFD8DC" xlink:href="#A"/></g><text font-family="Roboto-Bold, Roboto" font-size="10.464" font-weight="bold" fill="#FFF" transform="translate(344 422)"><tspan x="6.578" y="17.25">BP</tspan></text><g transform="translate(513 422)"><use fill="#000" filter="url(#B)" xlink:href="#C"/><use fill="#CFD8DC" xlink:href="#C"/></g><text font-family="Roboto-Bold, Roboto" font-size="10.464" font-weight="bold" fill="#FFF" transform="translate(513 422)"><tspan x="5.015" y="17.25">MN</tspan></text><text transform="rotate(-7 738.906 302)" font-family="Roboto-Regular, Roboto" font-size="12" fill="#979797"><tspan x="691" y="306">David</tspan></text><g transform="translate(429 338)"><use fill="#000" filter="url(#D)" xlink:href="#E"/><use fill="#CFD8DC" xlink:href="#E"/></g><text font-family="Roboto-Bold, Roboto" font-size="10.464" font-weight="bold" fill="#FFF" transform="translate(429 338)"><tspan x="6.828" y="17.25">AE</tspan></text><g transform="translate(618 211)"><use fill="#000" filter="url(#F)" xlink:href="#G"/><use fill="#CFD8DC" xlink:href="#G"/></g><text font-family="Roboto-Bold, Roboto" font-size="10.464" font-weight="bold" fill="#FFF" transform="translate(618 211)"><tspan x="5.786" y="17.25">MJ</tspan></text><g transform="translate(588 176)"><use fill="#000" filter="url(#H)" xlink:href="#I"/><use fill="#CFD8DC" xlink:href="#I"/></g><text font-family="Roboto-Bold, Roboto" font-size="10.464" font-weight="bold" fill="#FFF" transform="translate(588 176)"><tspan x="6.512" y="17.25">SG</tspan></text><g transform="translate(642 252)"><use fill="#000" filter="url(#J)" xlink:href="#K"/><use fill="#CFD8DC" xlink:href="#K"/></g><text font-family="Roboto-Bold, Roboto" font-size="10.464" font-weight="bold" fill="#FFF" transform="translate(642 252)"><tspan x="7.189" y="17.25">TF</tspan></text><g transform="translate(259 498)"><use fill="#000" filter="url(#L)" xlink:href="#M"/><use fill="#CFD8DC" xlink:href="#M"/></g><text font-family="Roboto-Bold, Roboto" font-size="10.464" font-weight="bold" fill="#FFF" transform="translate(259 498)"><tspan x="5.786" y="17.25">MJ</tspan></text><g transform="translate(232 465)"><use fill="#000" filter="url(#N)" xlink:href="#O"/><use fill="#CFD8DC" xlink:href="#O"/></g><text font-family="Roboto-Bold, Roboto" font-size="10.464" font-weight="bold" fill="#FFF" transform="translate(232 465)"><tspan x="6.512" y="17.25">SG</tspan></text><g transform="translate(291 528)"><use fill="#000" filter="url(#P)" xlink:href="#Q"/><use fill="#CFD8DC" xlink:href="#Q"/></g><text font-family="Roboto-Bold, Roboto" font-size="10.464" font-weight="bold" fill="#FFF" transform="translate(291 528)"><tspan x="7.189" y="17.25">TF</tspan></text><g transform="translate(326 549)"><use fill="#000" filter="url(#R)" xlink:href="#S"/><use fill="#CFD8DC" xlink:href="#S"/></g><text font-family="Roboto-Bold, Roboto" font-size="10.464" font-weight="bold" fill="#FFF" transform="translate(326 549)"><tspan x="7.189" y="17.25">TF</tspan></text><g transform="translate(214 425)"><use fill="#000" filter="url(#T)" xlink:href="#U"/><use fill="#CFD8DC" xlink:href="#U"/></g><text font-family="Roboto-Bold, Roboto" font-size="10.464" font-weight="bold" fill="#FFF" transform="translate(214 425)"><tspan x="7.189" y="17.25">TF</tspan></text><g transform="translate(655 295)"><use fill="#000" filter="url(#V)" xlink:href="#W"/><use fill="#CFD8DC" xlink:href="#W"/></g><text font-family="Roboto-Bold, Roboto" font-size="10.464" font-weight="bold" fill="#FFF" transform="translate(655 295)"><tspan x="6.491" y="17.25">DD</tspan></text><text transform="rotate(-16 859.402 184.786)" font-family="Roboto-Regular, Roboto" font-size="12" fill="#979797"><tspan x="811.496" y="188.786">Trevor</tspan></text><text transform="rotate(-7 876.906 236)" font-family="Roboto-Regular, Roboto" font-size="12" fill="#979797"><tspan x="829" y="240">David</tspan></text><g transform="translate(780 189)"><use fill="#000" filter="url(#X)" xlink:href="#Y"/><use fill="#CFD8DC" xlink:href="#Y"/></g><text font-family="Roboto-Bold, Roboto" font-size="10.464" font-weight="bold" fill="#FFF" transform="translate(780 189)"><tspan x="7.189" y="17.25">TF</tspan></text><g transform="translate(793 232)"><use fill="#000" filter="url(#Z)" xlink:href="#aa"/><use fill="#CFD8DC" xlink:href="#aa"/></g><text font-family="Roboto-Bold, Roboto" font-size="10.464" font-weight="bold" fill="#FFF" transform="translate(793 232)"><tspan x="6.491" y="17.25">DD</tspan></text><g transform="translate(615 484)"><use fill="#000" filter="url(#ab)" xlink:href="#ac"/><use fill="#CFD8DC" xlink:href="#ac"/></g><text font-family="Roboto-Bold, Roboto" font-size="10.464" font-weight="bold" fill="#FFF" transform="translate(615 484)"><tspan x="5.786" y="17.25">MJ</tspan></text><g transform="translate(580 523)"><use fill="#000" filter="url(#ad)" xlink:href="#ae"/><use fill="#CFD8DC" xlink:href="#ae"/></g><text font-family="Roboto-Bold, Roboto" font-size="10.464" font-weight="bold" fill="#FFF" transform="translate(580 523)"><tspan x="7.189" y="17.25">TF</tspan></text><text transform="rotate(-90 441 190.5)" font-family="Roboto-Regular, Roboto" font-size="12" fill="#979797"><tspan x="411.5" y="194.5">Roger</tspan></text><text transform="rotate(-40 577.527 257.941)" font-family="Roboto-Bold, Roboto" font-size="12" font-weight="bold" fill="#979797"><tspan x="548.027" y="261.941">Tiger</tspan></text><text transform="rotate(31 296.457 272.194)" font-family="Roboto-Regular, Roboto" font-size="12" fill="#979797"><tspan x="303.873" y="276.194">Lisa</tspan></text><text transform="rotate(31 206.457 192.194)" font-family="Roboto-Regular, Roboto" font-size="12" fill="#979797"><tspan x="206.543" y="196.194">Steve</tspan></text><text transform="rotate(28 179.457 235.194)" font-family="Roboto-Regular, Roboto" font-size="12" fill="#979797"><tspan x="181.811" y="239.194">Mark</tspan></text><text transform="rotate(45 247.457 147.194)" font-family="Roboto-Regular, Roboto" font-size="12" fill="#979797"><tspan x="250.555" y="151.194">Dave</tspan></text><text transform="rotate(45 564.81 471.81)" font-family="Roboto-Regular, Roboto" font-size="12" fill="#979797"><tspan x="535.309" y="475.809">Matt</tspan></text><text transform="rotate(-43 317.349 472.238)" font-family="Roboto-Regular, Roboto" font-size="12" fill="#979797"><tspan x="326.4" y="476.238">Ben</tspan></text><text transform="rotate(-43 229.349 551.238)" font-family="Roboto-Regular, Roboto" font-size="12" fill="#979797"><tspan x="238.4" y="555.238">Ben</tspan></text><text transform="rotate(-53 272.349 585.238)" font-family="Roboto-Regular, Roboto" font-size="12" fill="#979797"><tspan x="275.007" y="589.238">Terry</tspan></text><text transform="rotate(-68 322.541 608.974)" font-family="Roboto-Regular, Roboto" font-size="12" fill="#979797"><tspan x="312.303" y="612.974">Tammy</tspan></text><text transform="rotate(-33 202.349 510.238)" font-family="Roboto-Regular, Roboto" font-size="12" fill="#979797"><tspan x="201.24" y="514.238">Sarah</tspan></text><text transform="rotate(-21 174.349 463.238)" font-family="Roboto-Regular, Roboto" font-size="12" fill="#979797"><tspan x="184.144" y="467.238">Ted</tspan></text><g transform="translate(106 525)"><use fill="#000" filter="url(#af)" xlink:href="#ag"/><use fill="#CFD8DC" xlink:href="#ag"/></g><text font-family="Roboto-Bold, Roboto" font-size="10.464" font-weight="bold" fill="#FFF" transform="translate(106 525)"><tspan x="5.786" y="17.25">MJ</tspan></text><g transform="translate(86 488)"><use fill="#000" filter="url(#ah)" xlink:href="#ai"/><use fill="#CFD8DC" xlink:href="#ai"/></g><text font-family="Roboto-Bold, Roboto" font-size="10.464" font-weight="bold" fill="#FFF" transform="translate(86 488)"><tspan x="6.512" y="17.25">SG</tspan></text><g transform="translate(72 446)"><use fill="#000" filter="url(#aj)" xlink:href="#ak"/><use fill="#CFD8DC" xlink:href="#ak"/></g><text font-family="Roboto-Bold, Roboto" font-size="10.464" font-weight="bold" fill="#FFF" transform="translate(72 446)"><tspan x="7.189" y="17.25">TF</tspan></text><text transform="rotate(-35 77.349 568.238)" font-family="Roboto-Regular, Roboto" font-size="12" fill="#979797"><tspan x="86.4" y="572.238">Ben</tspan></text><text transform="rotate(-25 50.349 526.238)" font-family="Roboto-Regular, Roboto" font-size="12" fill="#979797"><tspan x="49.24" y="530.238">Sarah</tspan></text><text transform="rotate(-14 30.349 477.238)" font-family="Roboto-Regular, Roboto" font-size="12" fill="#979797"><tspan x="40.144" y="481.238">Ted</tspan></text><text font-family="Roboto-Regular, Roboto" font-size="12" fill="#979797"><tspan x="463.448" y="354">Albert</tspan></text><text transform="rotate(-40 649.636 146.589)" font-family="Roboto-Regular, Roboto" font-size="12" fill="#979797"><tspan x="601.729" y="150.589">Simon</tspan></text><text transform="rotate(-36 790.233 75.703)" font-family="Roboto-Regular, Roboto" font-size="12" fill="#979797"><tspan x="742.327" y="79.703">Michael</tspan></text><g transform="translate(718 101)"><use fill="#000" filter="url(#al)" xlink:href="#am"/><use fill="#CFD8DC" xlink:href="#am"/></g><text font-family="Roboto-Bold, Roboto" font-size="10.464" font-weight="bold" fill="#FFF" transform="translate(718 101)"><tspan x="5.786" y="17.25">MJ</tspan></text><g transform="translate(688 66)"><use fill="#000" filter="url(#an)" xlink:href="#ao"/><use fill="#CFD8DC" xlink:href="#ao"/></g><text font-family="Roboto-Bold, Roboto" font-size="10.464" font-weight="bold" fill="#FFF" transform="translate(688 66)"><tspan x="6.512" y="17.25">SG</tspan></text><text transform="rotate(-40 749.636 36.589)" font-family="Roboto-Regular, Roboto" font-size="12" fill="#979797"><tspan x="701.729" y="40.589">Simon</tspan></text><text transform="rotate(70 336.213 69.394)" font-family="Roboto-Regular, Roboto" font-size="12" fill="#979797"><tspan x="342.043" y="73.394">Michael</tspan></text><text transform="rotate(-71 552.215 71.575)" font-family="Roboto-Regular, Roboto" font-size="12" fill="#979797"><tspan x="504.309" y="75.575">Trevor</tspan></text><text transform="rotate(-79 487.012 52.362)" font-family="Roboto-Regular, Roboto" font-size="12" fill="#979797"><tspan x="439.106" y="56.362">David</tspan></text><g transform="translate(346 122)"><use fill="#000" filter="url(#ap)" xlink:href="#aq"/><use fill="#CFD8DC" xlink:href="#aq"/></g><text font-family="Roboto-Bold, Roboto" font-size="10.464" font-weight="bold" fill="#FFF" transform="translate(346 122)"><tspan x="5.786" y="17.25">MJ</tspan></text><g transform="translate(213 248)"><use fill="#000" filter="url(#ar)" xlink:href="#as"/><use fill="#CFD8DC" xlink:href="#as"/></g><text font-family="Roboto-Bold, Roboto" font-size="10.464" font-weight="bold" fill="#FFF" transform="translate(213 248)"><tspan x="5.786" y="17.25">MJ</tspan></text><g transform="translate(401 113)"><use fill="#000" filter="url(#at)" xlink:href="#au"/><use fill="#CFD8DC" xlink:href="#au"/></g><text font-family="Roboto-Bold, Roboto" font-size="10.464" font-weight="bold" fill="#FFF" transform="translate(401 113)"><tspan x="6.512" y="17.25">SG</tspan></text><g transform="translate(237 207)"><use fill="#000" filter="url(#av)" xlink:href="#aw"/><use fill="#CFD8DC" xlink:href="#aw"/></g><text font-family="Roboto-Bold, Roboto" font-size="10.464" font-weight="bold" fill="#FFF" transform="translate(237 207)"><tspan x="6.512" y="17.25">SG</tspan></text><g transform="translate(510 127)"><use fill="#000" filter="url(#ax)" xlink:href="#ay"/><use fill="#CFD8DC" xlink:href="#ay"/></g><text font-family="Roboto-Bold, Roboto" font-size="10.464" font-weight="bold" fill="#FFF" transform="translate(510 127)"><tspan x="7.189" y="17.25">TF</tspan></text><g transform="translate(459 113)"><use fill="#000" filter="url(#az)" xlink:href="#aA"/><use fill="#CFD8DC" xlink:href="#aA"/></g><text font-family="Roboto-Bold, Roboto" font-size="10.464" font-weight="bold" fill="#FFF" transform="translate(459 113)"><tspan x="6.491" y="17.25">DD</tspan></text><g transform="translate(270 172)"><use fill="#000" filter="url(#aB)" xlink:href="#aC"/><use fill="#CFD8DC" xlink:href="#aC"/></g><text font-family="Roboto-Bold, Roboto" font-size="10.464" font-weight="bold" fill="#FFF" transform="translate(270 172)"><tspan x="6.491" y="17.25">DD</tspan></text><text transform="rotate(83 405.786 53.402)" font-family="Roboto-Regular, Roboto" font-size="12" fill="#979797"><tspan x="419.679" y="57.402">Simon</tspan></text></g><path d="M207.777 33.3c-12.699 0-22.994 10.303-22.994 22.99v887.537h1363.89V56.29c0-12.698-10.29-22.992-22.994-22.992H207.777zm20.706 57.482v800.16h1278.79V90.782H228.484z" fill="#121212"/><g transform="translate(582 801)"><use fill="#000" filter="url(#aD)" xlink:href="#aE"/><use fill="#607D8B" xlink:href="#aE"/></g><g transform="translate(600 815)" opacity=".3"><rect fill="#455A64" width="531" height="30" rx="7"/><text font-family="Roboto-Regular, Roboto" font-size="14" fill="#FFF"><tspan x="11" y="20">Search, Build, Edit</tspan></text></g><g filter="url(#aF)" transform="translate(0 115)"><use fill="#000" filter="url(#aG)" xlink:href="#aH"/><use fill="#607D8B" xlink:href="#aH"/><g transform="translate(101.667 84.167)"><path d="M156.25 211.806c0-51.85-86.358-149.306-86.358-197.568m86.358-3.821c0 51.888-84.597 130.474-84.597 197.981m133.208-96.988h-187.5" stroke="#FFF" stroke-dasharray="1" opacity=".5"/><use fill="#FFF" xlink:href="#c"/><use stroke-opacity=".4" stroke="#FFF" mask="url(#aI)" stroke-width="40" xlink:href="#c"/><ellipse fill="#FFF" cx="69.444" cy="13.889" rx="13.889" ry="13.889"/><ellipse fill="#FFF" cx="152.778" cy="13.889" rx="13.889" ry="13.889"/><ellipse fill="#FFF" cx="208.333" cy="111.111" rx="13.889" ry="13.889"/><ellipse fill="#FFF" cx="69.444" cy="208.333" rx="13.889" ry="13.889"/><ellipse fill="#FFF" cx="152.778" cy="208.333" rx="13.889" ry="13.889"/><ellipse fill="#FFF" cx="13.889" cy="111.111" rx="13.889" ry="13.889"/></g></g></g></svg>