<svg width="725" height="433" viewBox="0 0 725 433" xmlns="http://www.w3.org/2000/svg" xmlns:xlink="http://www.w3.org/1999/xlink"><title>exported-build-sample</title><defs><circle id="b" cx="21.5" cy="21.5" r="21.5"/><filter x="-50%" y="-50%" width="200%" height="200%" filterUnits="objectBoundingBox" id="a"><feOffset dy="2" in="SourceAlpha" result="shadowOffsetOuter1"/><feGaussianBlur stdDeviation="2" in="shadowOffsetOuter1" result="shadowBlurOuter1"/><feColorMatrix values="0 0 0 0 0 0 0 0 0 0 0 0 0 0 0 0 0 0 0.5 0" in="shadowBlurOuter1"/></filter><circle id="d" cx="13" cy="13" r="13"/><filter x="-50%" y="-50%" width="200%" height="200%" filterUnits="objectBoundingBox" id="c"><feOffset dy="2" in="SourceAlpha" result="shadowOffsetOuter1"/><feGaussianBlur stdDeviation="2" in="shadowOffsetOuter1" result="shadowBlurOuter1"/><feColorMatrix values="0 0 0 0 0 0 0 0 0 0 0 0 0 0 0 0 0 0 0.5 0" in="shadowBlurOuter1"/></filter><circle id="f" cx="13" cy="13" r="13"/><filter x="-50%" y="-50%" width="200%" height="200%" filterUnits="objectBoundingBox" id="e"><feOffset dy="2" in="SourceAlpha" result="shadowOffsetOuter1"/><feGaussianBlur stdDeviation="2" in="shadowOffsetOuter1" result="shadowBlurOuter1"/><feColorMatrix values="0 0 0 0 0 0 0 0 0 0 0 0 0 0 0 0 0 0 0.5 0" in="shadowBlurOuter1"/></filter><circle id="h" cx="13" cy="13" r="13"/><filter x="-50%" y="-50%" width="200%" height="200%" filterUnits="objectBoundingBox" id="g"><feOffset dy="2" in="SourceAlpha" result="shadowOffsetOuter1"/><feGaussianBlur stdDeviation="2" in="shadowOffsetOuter1" result="shadowBlurOuter1"/><feColorMatrix values="0 0 0 0 0 0 0 0 0 0 0 0 0 0 0 0 0 0 0.5 0" in="shadowBlurOuter1"/></filter><circle id="j" cx="13" cy="13" r="13"/><filter x="-50%" y="-50%" width="200%" height="200%" filterUnits="objectBoundingBox" id="i"><feOffset dy="2" in="SourceAlpha" result="shadowOffsetOuter1"/><feGaussianBlur stdDeviation="2" in="shadowOffsetOuter1" result="shadowBlurOuter1"/><feColorMatrix values="0 0 0 0 0 0 0 0 0 0 0 0 0 0 0 0 0 0 0.5 0" in="shadowBlurOuter1"/></filter><circle id="l" cx="13" cy="13" r="13"/><filter x="-50%" y="-50%" width="200%" height="200%" filterUnits="objectBoundingBox" id="k"><feOffset dy="2" in="SourceAlpha" result="shadowOffsetOuter1"/><feGaussianBlur stdDeviation="2" in="shadowOffsetOuter1" result="shadowBlurOuter1"/><feColorMatrix values="0 0 0 0 0 0 0 0 0 0 0 0 0 0 0 0 0 0 0.5 0" in="shadowBlurOuter1"/></filter><circle id="n" cx="13" cy="13" r="13"/><filter x="-50%" y="-50%" width="200%" height="200%" filterUnits="objectBoundingBox" id="m"><feOffset dy="2" in="SourceAlpha" result="shadowOffsetOuter1"/><feGaussianBlur stdDeviation="2" in="shadowOffsetOuter1" result="shadowBlurOuter1"/><feColorMatrix values="0 0 0 0 0 0 0 0 0 0 0 0 0 0 0 0 0 0 0.5 0" in="shadowBlurOuter1"/></filter><circle id="p" cx="13" cy="13" r="13"/><filter x="-50%" y="-50%" width="200%" height="200%" filterUnits="objectBoundingBox" id="o"><feOffset dy="2" in="SourceAlpha" result="shadowOffsetOuter1"/><feGaussianBlur stdDeviation="2" in="shadowOffsetOuter1" result="shadowBlurOuter1"/><feColorMatrix values="0 0 0 0 0 0 0 0 0 0 0 0 0 0 0 0 0 0 0.5 0" in="shadowBlurOuter1"/></filter><circle id="r" cx="13" cy="13" r="13"/><filter x="-50%" y="-50%" width="200%" height="200%" filterUnits="objectBoundingBox" id="q"><feOffset dy="2" in="SourceAlpha" result="shadowOffsetOuter1"/><feGaussianBlur stdDeviation="2" in="shadowOffsetOuter1" result="shadowBlurOuter1"/><feColorMatrix values="0 0 0 0 0 0 0 0 0 0 0 0 0 0 0 0 0 0 0.5 0" in="shadowBlurOuter1"/></filter><circle id="t" cx="13" cy="13" r="13"/><filter x="-50%" y="-50%" width="200%" height="200%" filterUnits="objectBoundingBox" id="s"><feOffset dy="2" in="SourceAlpha" result="shadowOffsetOuter1"/><feGaussianBlur stdDeviation="2" in="shadowOffsetOuter1" result="shadowBlurOuter1"/><feColorMatrix values="0 0 0 0 0 0 0 0 0 0 0 0 0 0 0 0 0 0 0.5 0" in="shadowBlurOuter1"/></filter></defs><g fill="none" fill-rule="evenodd"><path d="M358 183c60.613 0 47.224-52 97-52m-97 52c60.613 0 47.224-101 97-101m-97 100.603c60.613 0 47.224-.603 97-.603m-97 0c60.613 0 47.224 52 97 52" opacity=".5" stroke="#979797"/><path d="M360 188v-12l4 6zm-50-12v12l-4-6zm19 32h12l-6 4zm12-50h-12l6-4z" fill="#D8D8D8" stroke="#FFF"/><g transform="translate(313 160)"><use fill="#000" filter="url(#a)" xlink:href="#b"/><use fill="#0097FF" xlink:href="#b"/></g><text font-family="Roboto-Bold, Roboto" font-size="17.306" font-weight="bold" fill="#FFF" transform="translate(313 160)"><tspan x="10.057" y="28">TP</tspan></text><path d="M335 394c7.18 0 13-5.82 13-13s-5.82-13-13-13-13 5.82-13 13 5.82 13 13 13z"/><path d="M335 392.79c6.512 0 11.79-5.278 11.79-11.79s-5.278-11.79-11.79-11.79-11.79 5.278-11.79 11.79 5.278 11.79 11.79 11.79z" stroke="#CFD8DC" stroke-dasharray="3" fill="#FAFAFA"/><path fill="#CFD8DC" d="M335.384 380.658v-2.364h-.734v2.364h-2.354v.735h2.354v2.364h.734v-2.364h2.354v-.735z"/><text font-family="Roboto-Regular, Roboto" font-size="8" fill="#CFD8DC" transform="translate(321 368)"><tspan x="5.885" y="35">Peer</tspan></text><g font-family="Roboto-Regular, Roboto" fill="#979797"><text font-size="15" transform="translate(492 121)"><tspan x="0" y="14">Michael</tspan></text><text font-size="8" transform="translate(492 121)"><tspan x="0" y="23">QA Manager</tspan></text></g><g opacity=".6"><g transform="translate(322 100)"><use fill="#000" filter="url(#c)" xlink:href="#d"/><use fill="#CFD8DC" xlink:href="#d"/></g><text font-family="Roboto-Bold, Roboto" font-size="10.464" font-weight="bold" fill="#FFF" transform="translate(322 100)"><tspan x="6.762" y="17.25">LH</tspan></text></g><g opacity=".6"><g transform="translate(322 30)"><use fill="#000" filter="url(#e)" xlink:href="#f"/><use fill="#CFD8DC" xlink:href="#f"/></g><text font-family="Roboto-Bold, Roboto" font-size="10.464" font-weight="bold" fill="#FFF" transform="translate(322 30)"><tspan x="7.086" y="17.25">RF</tspan></text></g><g opacity=".6"><g transform="translate(322 310)"><use fill="#000" filter="url(#g)" xlink:href="#h"/><use fill="#CFD8DC" xlink:href="#h"/></g><text font-family="Roboto-Bold, Roboto" font-size="10.464" font-weight="bold" fill="#FFF" transform="translate(322 310)"><tspan x="6.578" y="17.25">BP</tspan></text></g><path stroke="#FFF" fill="#929292" d="M409 328v-12l4 6z"/><g opacity=".6"><g transform="translate(322 240)"><use fill="#000" filter="url(#i)" xlink:href="#j"/><use fill="#CFD8DC" xlink:href="#j"/></g><text font-family="Roboto-Bold, Roboto" font-size="10.464" font-weight="bold" fill="#FFF" transform="translate(322 240)"><tspan x="5.015" y="17.25">MN</tspan></text></g><g font-family="Roboto-Regular, Roboto" fill="#979797"><text font-size="15" transform="translate(492 170)"><tspan x="0" y="14">Taylor</tspan></text><text font-size="8" transform="translate(492 170)"><tspan x="0" y="23">Architect</tspan></text></g><g font-family="Roboto-Regular, Roboto" fill="#979797"><text font-size="15" transform="translate(492 219)"><tspan x="0" y="14">David</tspan></text><text font-size="8" transform="translate(492 219)"><tspan x="0" y="23">Sr. iOS Developer</tspan></text></g><path stroke="#FFF" fill="#929292" d="M549 87V75l4 6zm0 49v-12l4 6z"/><g transform="translate(183 168)"><use fill="#000" filter="url(#k)" xlink:href="#l"/><use fill="#CFD8DC" xlink:href="#l"/></g><text font-family="Roboto-Bold, Roboto" font-size="10.464" font-weight="bold" fill="#FFF" transform="translate(183 168)"><tspan x="6.828" y="17.25">AE</tspan></text><path stroke="#FFF" fill="#929292" d="M175 176v12l-4-6z"/><g transform="translate(452 119)"><use fill="#000" filter="url(#m)" xlink:href="#n"/><use fill="#CFD8DC" xlink:href="#n"/></g><text font-family="Roboto-Bold, Roboto" font-size="10.464" font-weight="bold" fill="#FFF" transform="translate(452 119)"><tspan x="5.786" y="17.25">MJ</tspan></text><g transform="translate(452 69)"><use fill="#000" filter="url(#o)" xlink:href="#p"/><use fill="#CFD8DC" xlink:href="#p"/></g><text font-family="Roboto-Bold, Roboto" font-size="10.464" font-weight="bold" fill="#FFF" transform="translate(452 69)"><tspan x="6.512" y="17.25">SG</tspan></text><g transform="translate(452 169)"><use fill="#000" filter="url(#q)" xlink:href="#r"/><use fill="#CFD8DC" xlink:href="#r"/></g><text font-family="Roboto-Bold, Roboto" font-size="10.464" font-weight="bold" fill="#FFF" transform="translate(452 169)"><tspan x="7.189" y="17.25">TF</tspan></text><g transform="translate(452 219)"><use fill="#000" filter="url(#s)" xlink:href="#t"/><use fill="#CFD8DC" xlink:href="#t"/></g><text font-family="Roboto-Bold, Roboto" font-size="10.464" font-weight="bold" fill="#FFF" transform="translate(452 219)"><tspan x="6.491" y="17.25">DD</tspan></text><g opacity=".6" font-family="Roboto-Regular, Roboto" fill="#979797"><text font-size="12" transform="translate(358 34)"><tspan x="0" y="11">Roger</tspan></text><text font-size="5" transform="translate(358 34)"><tspan x="1" y="18">Director Engineering</tspan></text></g><g opacity=".6" font-family="Roboto-Regular, Roboto" fill="#979797"><text font-size="12" transform="translate(358 104)"><tspan x="0" y="11">Lisa</tspan></text><text font-size="5" transform="translate(358 104)"><tspan x="1" y="18">Human Resources</tspan></text></g><g opacity=".6" font-family="Roboto-Regular, Roboto" fill="#979797"><text font-size="12" transform="translate(358 244)"><tspan x="0" y="11">Matt</tspan></text><text font-size="5" transform="translate(358 244)"><tspan x="1" y="18">Creative Director</tspan></text></g><g opacity=".6" font-family="Roboto-Regular, Roboto" fill="#979797"><text font-size="12" transform="translate(358 314)"><tspan x="0" y="11">Ben</tspan></text><text font-size="5" transform="translate(358 314)"><tspan x="1" y="18">Program Manager</tspan></text></g><g font-family="Roboto-Regular, Roboto" fill="#979797"><text font-size="12" transform="translate(218 171)"><tspan x="0" y="11">Albert</tspan></text><text font-size="5" transform="translate(218 171)"><tspan x="1" y="18">Managing Director</tspan></text></g><g font-family="Roboto-Regular, Roboto" fill="#979797"><text font-size="15" transform="translate(492 71)"><tspan x="0" y="14">Simon</tspan></text><text font-size="8" transform="translate(492 71)"><tspan x="0" y="23">Dev Manager</tspan></text></g></g></svg>