<svg width="1679" height="548" viewBox="0 0 1679 548" xmlns="http://www.w3.org/2000/svg" xmlns:xlink="http://www.w3.org/1999/xlink"><title>Artboard</title><defs><filter x="-50%" y="-50%" width="200%" height="200%" filterUnits="objectBoundingBox" id="c"><feOffset dy="2" in="SourceAlpha" result="shadowOffsetOuter1"/><feGaussianBlur stdDeviation="2" in="shadowOffsetOuter1" result="shadowBlurOuter1"/><feColorMatrix values="0 0 0 0 0 0 0 0 0 0 0 0 0 0 0 0 0 0 0.5 0" in="shadowBlurOuter1" result="shadowMatrixOuter1"/><feMerge><feMergeNode in="shadowMatrixOuter1"/><feMergeNode in="SourceGraphic"/></feMerge></filter><ellipse id="e" cx="175" cy="175.5" rx="175" ry="175"/><filter x="-50%" y="-50%" width="200%" height="200%" filterUnits="objectBoundingBox" id="d"><feOffset dy="2" in="SourceAlpha" result="shadowOffsetOuter1"/><feGaussianBlur stdDeviation="2" in="shadowOffsetOuter1" result="shadowBlurOuter1"/><feColorMatrix values="0 0 0 0 0 0 0 0 0 0 0 0 0 0 0 0 0 0 0.5 0" in="shadowBlurOuter1"/></filter><ellipse id="a" cx="111.111" cy="111.111" rx="20.833" ry="20.833"/><mask id="f" x="-20" y="-20" width="81.667" height="81.667"><path fill="#fff" d="M70.278 70.278h81.667v81.667H70.278z"/><use xlink:href="#a"/></mask><filter x="-50%" y="-50%" width="200%" height="200%" filterUnits="objectBoundingBox" id="g"><feOffset dy="2" in="SourceAlpha" result="shadowOffsetOuter1"/><feGaussianBlur stdDeviation="2" in="shadowOffsetOuter1" result="shadowBlurOuter1"/><feColorMatrix values="0 0 0 0 0 0 0 0 0 0 0 0 0 0 0 0 0 0 0.5 0" in="shadowBlurOuter1" result="shadowMatrixOuter1"/><feMerge><feMergeNode in="shadowMatrixOuter1"/><feMergeNode in="SourceGraphic"/></feMerge></filter><ellipse id="i" cx="175.634" cy="175.5" rx="174.695" ry="175"/><filter x="-50%" y="-50%" width="200%" height="200%" filterUnits="objectBoundingBox" id="h"><feOffset dy="2" in="SourceAlpha" result="shadowOffsetOuter1"/><feGaussianBlur stdDeviation="2" in="shadowOffsetOuter1" result="shadowBlurOuter1"/><feColorMatrix values="0 0 0 0 0 0 0 0 0 0 0 0 0 0 0 0 0 0 0.5 0" in="shadowBlurOuter1"/></filter><ellipse id="b" cx="21.62" cy="115.72" rx="20.797" ry="20.833"/><mask id="j" x="-20" y="-20" width="81.594" height="81.667"><path fill="#fff" d="M-19.177 74.887h81.594v81.667h-81.594z"/><use xlink:href="#b"/></mask><filter x="-50%" y="-50%" width="200%" height="200%" filterUnits="objectBoundingBox" id="k"><feOffset dy="2" in="SourceAlpha" result="shadowOffsetOuter1"/><feGaussianBlur stdDeviation="2" in="shadowOffsetOuter1" result="shadowBlurOuter1"/><feColorMatrix values="0 0 0 0 0 0 0 0 0 0 0 0 0 0 0 0 0 0 0.5 0" in="shadowBlurOuter1" result="shadowMatrixOuter1"/><feMerge><feMergeNode in="shadowMatrixOuter1"/><feMergeNode in="SourceGraphic"/></feMerge></filter><ellipse id="m" cx="175" cy="175.5" rx="175" ry="175"/><filter x="-50%" y="-50%" width="200%" height="200%" filterUnits="objectBoundingBox" id="l"><feOffset dy="2" in="SourceAlpha" result="shadowOffsetOuter1"/><feGaussianBlur stdDeviation="2" in="shadowOffsetOuter1" result="shadowBlurOuter1"/><feColorMatrix values="0 0 0 0 0 0 0 0 0 0 0 0 0 0 0 0 0 0 0.5 0" in="shadowBlurOuter1"/></filter></defs><g fill="none" fill-rule="evenodd"><g filter="url(#c)" transform="translate(655 71)"><use fill="#000" filter="url(#d)" xlink:href="#e"/><use fill="#607D8B" xlink:href="#e"/><g transform="translate(66.667 67.167)"><path d="M156.25 211.806c0-51.85-86.358-149.306-86.358-197.568m86.358-3.821c0 51.888-84.597 130.474-84.597 197.981m133.208-96.988h-187.5" stroke="#FFF" stroke-dasharray="1" opacity=".5"/><use fill="#FFF" xlink:href="#a"/><use stroke-opacity=".4" stroke="#FFF" mask="url(#f)" stroke-width="40" xlink:href="#a"/><ellipse fill="#FFF" cx="69.444" cy="13.889" rx="13.889" ry="13.889"/><ellipse fill="#FFF" cx="152.778" cy="13.889" rx="13.889" ry="13.889"/><ellipse fill="#FFF" cx="208.333" cy="111.111" rx="13.889" ry="13.889"/><ellipse fill="#FFF" cx="69.444" cy="208.333" rx="13.889" ry="13.889"/><ellipse fill="#FFF" cx="152.778" cy="208.333" rx="13.889" ry="13.889"/><ellipse fill="#FFF" cx="13.889" cy="111.111" rx="13.889" ry="13.889"/></g></g><g filter="url(#g)" transform="translate(164 71)"><use fill="#000" filter="url(#h)" xlink:href="#i"/><use fill="#607D8B" xlink:href="#i"/><g transform="translate(92.037 66.724)"><path d="M105.575 17.472c-72.047 0-35.972 98.899-91.43 98.899m91.43-49.449c-72.047 0-35.972 49.449-91.43 49.449m95.953 0H14.144m91.431 49.449c-72.047 0-35.972-49.449-91.43-49.449m91.43 98.899c-72.047 0-35.972-98.899-91.43-98.899" stroke="#CFD8DC" stroke-dasharray="1" opacity=".5"/><ellipse fill="#FAFAFA" cx="105.781" cy="14.331" rx="13.865" ry="13.889"/><ellipse fill="#FAFAFA" cx="105.781" cy="64.331" rx="13.865" ry="13.889"/><ellipse fill="#FAFAFA" cx="105.781" cy="114.331" rx="13.865" ry="13.889"/><ellipse fill="#FAFAFA" cx="105.781" cy="214.331" rx="13.865" ry="13.889"/><ellipse fill="#FAFAFA" cx="105.781" cy="164.331" rx="13.865" ry="13.889"/><use fill="#FFF" xlink:href="#b"/><use stroke-opacity=".4" stroke="#FFF" mask="url(#j)" stroke-width="40" xlink:href="#b"/></g></g><g filter="url(#k)" transform="translate(1164 71)"><use fill="#000" filter="url(#l)" xlink:href="#m"/><use fill="#607D8B" xlink:href="#m"/><path d="M106.667 83.249h137.422v184.809H106.667V83.248z" fill-opacity=".4" fill="#FFF"/><path d="M136.793 138.834h75.819m-75.819 71.137h75.819m-75.819-47.749h75.819m-75.819 24.362h75.819" stroke="#FFF" stroke-width="16"/><path d="M135.099 81.827h80.558" stroke="#FFF" stroke-width="27"/></g><text font-family="OpenSans-Bold, Open Sans" font-size="40" font-weight="bold" letter-spacing="10" fill="#4A4A4A" transform="translate(-111 -77)"><tspan x="367" y="565">BUILD</tspan></text><text font-family="OpenSans-Bold, Open Sans" font-size="40" font-weight="bold" letter-spacing="10" fill="#4A4A4A" transform="translate(-111 -77)"><tspan x="831" y="565">EXPLORE</tspan></text><text font-family="OpenSans-Bold, Open Sans" font-size="40" font-weight="bold" letter-spacing="10" fill="#4A4A4A" transform="translate(-111 -77)"><tspan x="1351" y="565">REPORT</tspan></text></g></svg>