<svg width="193" height="193" viewBox="0 0 193 193" xmlns="http://www.w3.org/2000/svg" xmlns:xlink="http://www.w3.org/1999/xlink"><title>clock</title><defs><ellipse id="path-1" cx="49.587" cy="49.286" rx="48.538" ry="48.629"/><ellipse id="path-3" cx="49.587" cy="49.286" rx="48.538" ry="48.629"/><ellipse id="path-5" cx="49.587" cy="49.286" rx="48.538" ry="48.629"/><ellipse id="path-7" cx="49.587" cy="49.286" rx="48.538" ry="48.629"/><ellipse id="path-9" cx="49.587" cy="49.286" rx="48.538" ry="48.629"/><ellipse id="path-11" cx="49.587" cy="49.286" rx="48.538" ry="48.629"/><ellipse id="path-13" cx="49.587" cy="49.286" rx="48.538" ry="48.629"/><ellipse id="path-15" cx="49.587" cy="49.286" rx="48.538" ry="48.629"/><ellipse id="path-17" cx="49.587" cy="49.286" rx="48.538" ry="48.629"/><ellipse id="path-19" cx="49.587" cy="49.286" rx="48.538" ry="48.629"/><ellipse id="path-21" cx="48.587" cy="49.286" rx="48.538" ry="48.629"/></defs><g id="Page-1" fill="none" fill-rule="evenodd"><g id="WINNER" transform="translate(-991 -3460)"><g id="Group-+-super-icons" transform="translate(194 3302)"><g id="super-icons" transform="translate(65 158)"><g id="clock" transform="translate(732)"><path id="Rectangle-21" fill="#FFF" d="M0 0h193v193H0z"/><ellipse id="XMLID_126_" stroke="#1485E0" stroke-width="2" cx="90.394" cy="28.943" rx="26.237" ry="26.286"/><path id="XMLID_125_" stroke="#1485E0" stroke-width="2" fill="#FFF" d="M85.409 53.257h10.495v15.771H85.409z"/><ellipse id="XMLID_124_" stroke="#1485E0" stroke-width="4.182" fill="#C4E1F7" cx="90.394" cy="124.886" rx="60.344" ry="60.457"/><g id="XMLID_679_" transform="translate(40.806 75.6)"><g id="XMLID_123_-Clipped"><mask id="mask-2" fill="#fff"><use xlink:href="#path-1"/></mask><ellipse id="XMLID_123_" stroke="#1485E0" stroke-width="2" fill="#FFF" mask="url(#mask-2)" cx="49.587" cy="49.286" rx="47.226" ry="47.314"/></g><g id="XMLID_122_-Clipped"><mask id="mask-4" fill="#fff"><use xlink:href="#path-3"/></mask><ellipse id="XMLID_122_" stroke="#FFF" fill="#FFF" mask="url(#mask-4)" cx="49.587" cy="49.286" rx="34.108" ry="34.171"/></g><g id="XMLID_121_-Clipped"><mask id="mask-6" fill="#fff"><use xlink:href="#path-5"/></mask></g><g id="XMLID_120_-Clipped"><mask id="mask-8" fill="#fff"><use xlink:href="#path-7"/></mask><path d="M49.587 49.286l-20.99-21.029" id="XMLID_120_" stroke="#1485E0" stroke-width="2" mask="url(#mask-8)"/></g><g id="XMLID_119_-Clipped"><mask id="mask-10" fill="#fff"><use xlink:href="#path-9"/></mask><path d="M49.85 49.943h30.172" id="XMLID_119_" stroke="#1485E0" stroke-width="2" mask="url(#mask-10)"/></g><g id="XMLID_118_-Clipped"><mask id="mask-12" fill="#fff"><use xlink:href="#path-11"/></mask><path d="M65.329 34.829L49.587 49.286" id="XMLID_118_" stroke="#1485E0" stroke-width="2" mask="url(#mask-12)"/></g><g id="XMLID_117_-Clipped"><mask id="mask-14" fill="#fff"><use xlink:href="#path-13"/></mask></g><g id="XMLID_116_-Clipped"><mask id="mask-16" fill="#fff"><use xlink:href="#path-15"/></mask><ellipse id="XMLID_116_" stroke="#1485E0" stroke-width="2" fill="#FFF" mask="url(#mask-16)" cx="49.587" cy="49.286" rx="3.935" ry="3.943"/></g><g id="XMLID_741_-Clipped"><mask id="mask-18" fill="#fff"><use xlink:href="#path-17"/></mask></g><g id="lignes_time_2_-Clipped"><mask id="mask-20" fill="#fff"><use xlink:href="#path-19"/></mask><g transform="translate(5.247 5.257)" id="lignes_time_2_" mask="url(#mask-20)" stroke="#1485E0"><path d="M44.34 12.486V.657" id="XMLID_111_"/><path d="M40.404 6.177L39.88.92" id="XMLID_110_"/><path d="M36.469 6.703l-1.05-5.126" id="XMLID_109_"/><path d="M32.665 7.754L30.959 2.76" id="XMLID_108_"/><path d="M28.86 9.2l-2.099-4.731" id="XMLID_107_"/><path d="M25.318 11.04l-2.623-4.6" id="XMLID_106_"/><path d="M22.039 13.143L18.89 8.937" id="XMLID_105_"/><path d="M18.89 15.64l-3.41-3.811" id="XMLID_104_"/><path d="M16.135 18.531L12.2 14.983" id="XMLID_103_"/><path d="M13.643 21.686L9.314 18.53" id="XMLID_102_"/><path d="M11.413 24.971l-4.46-2.628" id="XMLID_101_"/><path d="M9.708 28.52l-4.854-2.103" id="XMLID_100_"/><path d="M8.265 32.2L3.28 30.623" id="XMLID_99_"/><path d="M7.215 36.143L2.1 34.96" id="XMLID_98_"/><path d="M6.56 40.086l-5.248-.526" id="XMLID_97_"/><path d="M12.856 44.029H1.049" id="XMLID_96_"/><path d="M6.56 47.971l-5.248.526" id="XMLID_95_"/><path d="M7.215 51.914L2.1 53.097" id="XMLID_94_"/><path d="M8.265 55.857L3.28 57.434" id="XMLID_93_"/><path d="M9.708 59.537L4.854 61.64" id="XMLID_92_"/><path d="M11.413 63.086l-4.46 2.628" id="XMLID_91_"/><path d="M13.643 66.371l-4.329 3.155" id="XMLID_90_"/><path d="M16.135 69.526L12.2 73.074" id="XMLID_89_"/><path d="M18.89 72.417l-3.41 3.812" id="XMLID_88_"/><path d="M22.039 74.914L18.89 79.12" id="XMLID_87_"/><path d="M25.318 77.017l-2.623 4.6" id="XMLID_86_"/><path d="M28.86 78.857l-2.099 4.732" id="XMLID_85_"/><path d="M32.665 80.303l-1.706 4.994" id="XMLID_84_"/><path d="M36.469 81.354l-1.05 5.126" id="XMLID_83_"/><path d="M40.404 81.88l-.524 5.257" id="XMLID_82_"/><path d="M44.34 75.571V87.4" id="XMLID_81_"/><path d="M48.406 81.88l.525 5.257" id="XMLID_80_"/><path d="M52.342 81.354l1.05 5.126" id="XMLID_79_"/><path d="M56.146 80.303l1.574 4.994" id="XMLID_78_"/><path d="M59.82 78.857l2.23 4.732" id="XMLID_77_"/><path d="M63.361 77.017l2.624 4.6" id="XMLID_76_"/><path d="M66.772 74.914l3.017 4.206" id="XMLID_75_"/><path d="M69.79 72.417l3.541 3.812" id="XMLID_74_"/><path d="M72.675 69.526l3.936 3.548" id="XMLID_73_"/><path d="M75.168 66.371l4.198 3.155" id="XMLID_72_"/><path d="M77.398 63.086l4.46 2.628" id="XMLID_71_"/><path d="M79.103 59.537l4.854 2.103" id="XMLID_70_"/><path d="M80.546 55.857l4.985 1.577" id="XMLID_69_"/><path d="M81.596 51.914l5.116 1.183" id="XMLID_68_"/><path d="M82.252 47.971l5.247.526" id="XMLID_67_"/><path d="M75.824 44.029H87.63" id="XMLID_66_"/><path d="M82.252 40.086l5.247-.526" id="XMLID_65_"/><path d="M81.596 36.143l5.116-1.183" id="XMLID_64_"/><path d="M80.546 32.2l4.985-1.577" id="XMLID_63_"/><path d="M79.103 28.52l4.854-2.103" id="XMLID_62_"/><path d="M77.398 24.971l4.46-2.628" id="XMLID_61_"/><path d="M75.168 21.686l4.198-3.155" id="XMLID_60_"/><path d="M72.675 18.531l3.936-3.548" id="XMLID_59_"/><path d="M69.79 15.64l3.541-3.811" id="XMLID_58_"/><path d="M66.772 13.143l3.017-4.206" id="XMLID_57_"/><path d="M63.361 11.04l2.624-4.6" id="XMLID_56_"/><path d="M59.82 9.2l2.23-4.731" id="XMLID_55_"/><path d="M56.146 7.754L57.72 2.76" id="XMLID_54_"/><path d="M52.342 6.703l1.05-5.126" id="XMLID_53_"/><path d="M48.406 6.177L48.931.92" id="XMLID_52_"/></g></g><g id="light_1_-Clipped" transform="translate(1)"><mask id="mask-22" fill="#fff"><use xlink:href="#path-21"/></mask><path d="M7.92 161.657h-155.845V-67.029H91.877L7.92 161.657z" id="light_1_" opacity=".44" fill="#FFF" mask="url(#mask-22)"/></g></g><g id="XMLID_675_" transform="translate(73.602 36.171)" stroke="#1485E0"><path d="M29.123 0H6.034C3.017 0 .131.526.131 3.68V18.4H34.24V3.68C34.108.526 32.139 0 29.123 0z" id="XMLID_50_" stroke-width="4" fill="#FFF"/><path d="M4.985 5.914h28.86" id="XMLID_49_" stroke-width="2" stroke-dasharray="2,2"/><path d="M4.985 11.171h28.86" id="XMLID_48_" stroke-width="2" stroke-dasharray="2,2"/></g></g></g></g></g></g></svg>