<svg width="193" height="193" viewBox="0 0 193 193" xmlns="http://www.w3.org/2000/svg" xmlns:xlink="http://www.w3.org/1999/xlink"><title>https_window</title><defs><path id="path-1" d="M0 0h185v139H0V0z"/><path id="path-3" d="M180.605.355H2.693C1.49.355.567 1.277.567 2.482v12.056h182.165V2.482c0-1.205-.922-2.127-2.127-2.127z"/><path id="path-5" d="M56.847.284L20.98 36.168 6.734 21.914l-6.238 6.24L20.981 48.65 63.155 6.524 56.847.284z"/><path id="path-7" d="M0 123.753V.355h129.57L84.208 123.753H0z"/><path id="path-9" d="M0 0h182.165H0z"/><path id="path-11" d="M2.197 4.61a2.127 2.127 0 1 0 0-4.254 2.127 2.127 0 0 0 0 4.254z"/><path id="path-13" d="M2.197 4.61a2.127 2.127 0 1 0 0-4.254 2.127 2.127 0 0 0 0 4.254z"/><path id="path-15" d="M2.197 4.61a2.127 2.127 0 1 0 0-4.254 2.127 2.127 0 0 0 0 4.254z"/></defs><g id="Page-1" fill="none" fill-rule="evenodd"><g id="WINNER" transform="translate(-986 -3780)"><g id="Group-+-super-icons" transform="translate(194 3302)"><g id="super-icons" transform="translate(65 158)"><g id="https_window" transform="translate(727 320)"><path id="Rectangle-21" fill="#FFF" d="M0 0h193v193H0z"/><g id="Group-3" transform="translate(4 29)"><mask id="mask-2" fill="#fff"><use xlink:href="#path-1"/></mask><path d="M-3.544-3.546h192.088v146.092H-3.544V-3.546z" id="Fill-1" fill="#C4E1F7" mask="url(#mask-2)"/></g><g id="Group-6" transform="translate(4.709 29.71)"><mask id="mask-4" fill="#fff"><use xlink:href="#path-3"/></mask><path d="M-2.977-3.191h189.253v21.275H-2.977V-3.19z" id="Fill-4" fill="#FFF" mask="url(#mask-4)"/></g><g id="Group-9" transform="translate(66.375 74.388)"><mask id="mask-6" fill="#fff"><use xlink:href="#path-5"/></mask><path d="M-3.048-3.262H66.7v55.458H-3.048V-3.262z" id="Fill-7" fill="#1485E0" mask="url(#mask-6)"/></g><g id="Group-12" transform="translate(4 43.893)"><mask id="mask-8" fill="#fff"><use xlink:href="#path-7"/></mask><path d="M-3.686-3.191h136.8v130.49h-136.8V-3.192z" id="Fill-10" fill-opacity=".44" fill="#FFF" mask="url(#mask-8)"/></g><g id="Group-18" transform="translate(5.418 43.893)"><g id="Group-15"><mask id="mask-10" fill="#fff"><use xlink:href="#path-9"/></mask><path d="M-3.544-3.546h189.253v7.092H-3.544v-7.092z" id="Fill-13" fill="#C4E1F7" mask="url(#mask-10)"/></g><path d="M0 0h182.165" id="Stroke-16" stroke="#1485E0" stroke-width="2"/></g><g id="Group-34" transform="translate(11.797 33.964)"><g id="Group-21"><mask id="mask-12" fill="#fff"><use xlink:href="#path-11"/></mask><path d="M-3.473-3.191h11.34V8.156h-11.34V-3.191z" id="Fill-19" fill="#FFF" mask="url(#mask-12)"/></g><path d="M2.197 4.61a2.127 2.127 0 1 0 0-4.254 2.127 2.127 0 0 0 0 4.254z" id="Stroke-22" stroke="#1485E0" stroke-width="2"/><g id="Group-26" transform="translate(7.797)"><mask id="mask-14" fill="#fff"><use xlink:href="#path-13"/></mask><path d="M-3.473-3.191h11.34V8.156h-11.34V-3.191z" id="Fill-24" fill="#FFF" mask="url(#mask-14)"/></g><path d="M9.994 4.61a2.127 2.127 0 1 0 0-4.254 2.127 2.127 0 0 0 0 4.254z" id="Stroke-27" stroke="#1485E0" stroke-width="2"/><g id="Group-31" transform="translate(15.594)"><mask id="mask-16" fill="#fff"><use xlink:href="#path-15"/></mask><path d="M-3.473-3.191h11.34V8.156h-11.34V-3.191z" id="Fill-29" fill="#FFF" mask="url(#mask-16)"/></g><path d="M17.791 4.61a2.127 2.127 0 1 0 0-4.254 2.127 2.127 0 0 0 0 4.254z" id="Stroke-32" stroke="#1485E0" stroke-width="2"/></g><path d="M4 29h185v139H4V29z" id="Stroke-35" stroke="#1485E0" stroke-width="4"/></g></g></g></g></g></svg>