<svg width="193" height="193" viewBox="0 0 193 193" xmlns="http://www.w3.org/2000/svg"><title>credit_cards</title><g id="Page-1" fill="none" fill-rule="evenodd"><g id="WINNER" transform="translate(-624 -3460)"><g id="Group-+-super-icons" transform="translate(194 3302)"><g id="super-icons" transform="translate(65 158)"><g id="credit_cards" transform="translate(365)"><path id="Rectangle-21" fill="#FFF" d="M0 0h193v193H0z"/><g id="back" transform="translate(47.627 41)"><path d="M137.373 90.79c0 3.684-2.906 6.578-6.604 6.578H6.604C2.906 97.368 0 94.474 0 90.79V6.58C0 2.895 2.906 0 6.604 0H130.77c3.698 0 6.604 2.895 6.604 6.579v84.21z" id="XMLID_280_" stroke="#1485E0" stroke-width="4" fill="#C4E1F7"/><path id="XMLID_279_" fill="#1485E0" d="M1.321 11.842h134.731v18.421H1.321z"/><path id="XMLID_278_" fill="#FFF" d="M10.567 40.789h116.239v13.158H10.567z"/><g id="XMLID_277_" transform="translate(10.567 65.79)" stroke-width="2" stroke="#1485E0"><g id="XMLID_466_"><path d="M116.239 0h-1.321" id="XMLID_469_"/><path d="M112.276 0H2.642" id="XMLID_468_" stroke-dasharray="2,2"/><path d="M1.32 0H0" id="XMLID_467_"/></g></g><g id="XMLID_276_" transform="translate(10.567 73.684)" stroke-width="2" stroke="#1485E0"><g id="XMLID_446_"><path d="M116.239 0h-1.321" id="XMLID_452_"/><path d="M112.276 0H2.642" id="XMLID_449_" stroke-dasharray="2,2"/><path d="M1.32 0H0" id="XMLID_447_"/></g></g></g><g id="front" transform="translate(8 68.632)"><path d="M137.373 90.79c0 3.684-2.906 6.578-6.604 6.578H6.604C2.906 97.368 0 94.474 0 90.79V6.58C0 2.895 2.906 0 6.604 0H130.77c3.698 0 6.604 2.895 6.604 6.579v84.21z" id="XMLID_275_" stroke="#1485E0" stroke-width="4" fill="#FFF"/><g id="logo" transform="translate(41.948 28.947)"><ellipse id="XMLID_274_" fill="#C4E1F7" cx="37.57" cy="18.421" rx="15.454" ry="15.395"/><ellipse id="XMLID_273_" fill="#1485E0" cx="15.511" cy="18.421" rx="15.454" ry="15.395"/><g id="XMLID_272_" transform="translate(18.813)" fill="#FFF"><path d="M18.757 3.026c8.586 0 15.454 6.842 15.454 15.395s-6.868 15.395-15.454 15.395S3.302 26.974 3.302 18.42 10.303 3.026 18.757 3.026zm0-2.631C8.717.395.66 8.42.66 18.42s8.058 18.026 18.097 18.026c10.039 0 18.096-8.026 18.096-18.026S28.796.395 18.757.395z" id="XMLID_45_"/></g></g></g></g></g></g></g></g></svg>