<svg width="95" height="43" viewBox="0 0 95 43" xmlns="http://www.w3.org/2000/svg"><title>tnw</title><defs><linearGradient x1="8.801%" y1="26.504%" x2="38.99%" y2="40.619%" id="linearGradient-1"><stop stop-color="#DEDEDE" offset="0%"/><stop stop-color="#FFF" offset="75%"/></linearGradient><linearGradient x1="-4.9%" y1="41.386%" x2="87.084%" y2="60.335%" id="linearGradient-2"><stop stop-color="#DEDEDE" offset="0%"/><stop stop-color="#FFF" offset="75%"/></linearGradient><linearGradient x1="10.153%" y1="54.079%" x2="106.954%" y2="38.049%" id="linearGradient-3"><stop stop-color="#FFF" offset="0%"/><stop stop-color="#FFF" offset="70%"/><stop stop-color="#DEDEDE" offset="100%"/></linearGradient></defs><g id="Page-1" fill="none" fill-rule="evenodd"><g id="WINNER" transform="translate(-460 -3020)"><g id="tnw" transform="translate(460 3020)"><g id="Layer_1"><g id="Group"><path d="M84.832.001L80.184 13.89 77.32 2.568C76.67 0 75.835 0 75.36 0c0 0-1.043 0-2.085.302L71.03 10.388l4.336 19.563h8.656L94.966.001H84.832z" id="Shape" fill="url(#linearGradient-1)"/><path d="M62.98 13.925L59.424 2.592C58.664.17 57.574 0 56.914 0c0 0-1.241 0-2.556.302v17.6l4.644 12.05h1.358l4.544-.303-1.924-15.724z" id="Shape" fill="url(#linearGradient-2)"/><path d="M75.36.002L67.5.004c-.587 0-2.14-.002-2.57 2.564L60.36 29.951h7.165L73.42 2.568C73.972.001 75.184.002 75.36.002z" id="Shape" fill="#FFF"/><path d="M27.758.302s-1.267-.3-2.533-.3H0l3.127 8.556h7.742v21.393h8.444V8.558h8.445V.302z" id="Shape" fill="url(#linearGradient-3)"/><path d="M48.869 0c-1.4 0-2.533 1.15-2.533 2.568v10.798L37.228 1.697A4.29 4.29 0 0 0 33.865.006L25.225 0s2.11 0 2.11 2.568v27.383h8.445V13.634L47.272 28.36a4.192 4.192 0 0 0 3.315 1.591h4.193V2.568c0-1.517.954-2.568 2.133-2.568H48.87z" id="Shape" fill="#FFF"/></g><g id="Group" transform="translate(3.167 35.94)" fill="#FFF"><path d="M1.96 6.847V1.42H.007V.198h5.356V1.42h-1.96v5.427H1.96zM8.166 6.847V.197H9.61v2.58h2.58V.197h1.445v6.65h-1.445v-2.84h-2.58v2.84H8.166zM16.917 6.847V.197h4.469V1.42h-3.024v1.428h2.19v1.16h-2.19V5.66h3.183v1.186h-4.628zM28.78 6.847V.197h1.446l2.748 4.242h.018V.198h1.33v6.649h-1.33L30.128 2.57h-.017v4.277h-1.33zM37.603 6.847V.197h4.469V1.42h-3.024v1.428h2.19v1.16h-2.19V5.66h3.183v1.186h-4.628zM44.758 6.847l2.102-3.513L44.944.198h1.65l1.17 1.995L48.872.198h1.49l-1.87 3.145 2.127 3.504h-1.605L47.622 4.52l-1.348 2.327h-1.516zM54.981 6.847V1.42h-1.95V.198h5.355V1.42h-1.96v5.427h-1.445zM66.765 6.847L65.02.197h1.454l.691 3.029c.16.61.266 1.096.32 1.455h.017c.048-.335.148-.817.302-1.446l.665-3.037h1.33l.709 3.055c.177.76.28 1.237.31 1.428h.018c.036-.257.133-.727.293-1.41l.665-3.073h1.33l-1.711 6.649h-1.233L69.142 2.22h-.018l-1.108 4.627h-1.25zM75.916 6.847V.197h4.468V1.42h-3.023v1.428h2.19v1.16h-2.19V5.66h3.183v1.186h-4.628zM83.461 6.847V.197h2.625c1.56 0 2.34.549 2.34 1.645 0 .444-.116.79-.35 1.042a1.614 1.614 0 0 1-.9.486v.018c.952.174 1.428.716 1.428 1.626 0 .623-.228 1.084-.683 1.384-.455.3-1.023.45-1.702.45H83.46v-.001zm1.419-3.909h1.064c.733 0 1.1-.266 1.1-.8 0-.539-.361-.808-1.083-.808H84.88v1.608zm0 2.795h1.161c.769 0 1.153-.297 1.153-.89 0-.58-.405-.871-1.215-.871h-1.1v1.76z" id="Shape"/></g></g></g></g></g></svg>