<svg width="193" height="193" viewBox="0 0 193 193" xmlns="http://www.w3.org/2000/svg" xmlns:xlink="http://www.w3.org/1999/xlink"><title>devices</title><defs><path id="path-1" d="M114.585 165.714c0 3.315-2.714 6.026-6.031 6.026H6.03C2.714 171.74 0 169.03 0 165.714V6.026C0 2.712 2.714 0 6.03 0h102.524c3.317 0 6.03 2.712 6.03 6.026v159.688z"/><path id="path-3" d="M0 0h102.523v137.844H0V0z"/><path id="path-5" d="M0 0h101.015v136.338H0V0z"/><path d="M0 0h102.523v137.844H0V0zm101.015 1.506v134.832H1.508V1.506h99.507z" id="path-7"/><path id="path-9" d="M47.232 0h47.232L43.78 137.844H0V0h47.232z"/><path d="M2.865 1.808c.452 0 .753.301.753.753s-.301.753-.753.753c-.453 0-.754-.301-.754-.753s.377-.753.754-.753zm0-1.507c-1.282 0-2.262.98-2.262 2.26 0 1.28.98 2.26 2.262 2.26 1.281 0 2.261-.98 2.261-2.26 0-1.28-.98-2.26-2.261-2.26z" id="path-11"/><path d="M2.865 1.883c.452 0 .753.301.753.753s-.301.754-.753.754c-.453 0-.754-.302-.754-.754s.377-.753.754-.753zm0-1.506c-1.282 0-2.262.979-2.262 2.26 0 1.28.98 2.26 2.262 2.26 1.281 0 2.261-.98 2.261-2.26 0-1.281-.98-2.26-2.261-2.26z" id="path-13"/><path d="M2.11 1.356c.302 0 .528.226.528.527a.515.515 0 0 1-.527.527.515.515 0 0 1-.528-.527c0-.301.302-.527.528-.527zm0-.98c-.828 0-1.507.679-1.507 1.507 0 .829.679 1.507 1.508 1.507s1.507-.678 1.507-1.507c0-.828-.678-1.506-1.507-1.506z" id="path-15"/><path id="path-17" d="M0 0h50.508v94.91H0V0z"/><path d="M0 0h52.015v95.662H0V0zm50.508.753v93.403h-49V.753h49z" id="path-19"/><path id="path-21" d="M23.324 0h23.324L11.434 95.662H0V0h23.324z"/><path id="path-23" d="M0 116.678V7.23c0-2.486 1.96-4.82 4.448-5.122C9.95 1.431 19.977.377 30.606.377 41.16.377 51.111 1.43 56.69 2.109c2.488.301 4.373 2.636 4.373 5.122v109.447c0 1.657-1.207 3.766-2.79 4.143-4.221 1.054-13.267 2.485-27.666 2.485-14.398 0-23.444-1.43-27.666-2.485-1.658-.377-2.94-2.486-2.94-4.143z"/><path d="M2.262 1.808c.452 0 .753.301.753.753s-.301.753-.753.753c-.453 0-.754-.301-.754-.753s.301-.753.754-.753zm0-1.507C.98.301 0 1.281 0 2.561c0 1.28.98 2.26 2.262 2.26 1.281 0 2.261-.98 2.261-2.26 0-1.28-.98-2.26-2.261-2.26z" id="path-25"/><path d="M1.508 1.28c.301 0 .527.226.527.528a.515.515 0 0 1-.527.527.515.515 0 0 1-.528-.527c0-.302.226-.527.528-.527zm0-.979C.678.301 0 .98 0 1.808c0 .828.678 1.506 1.508 1.506.829 0 1.507-.678 1.507-1.506C3.015.979 2.337.3 1.508.3z" id="path-27"/><path id="path-29" d="M0 0h50.508v94.156H0V0z"/><path d="M0 0h52.015v95.662H0V0zm50.508 1.506v92.65h-49V1.506h49z" id="path-31"/><path id="path-33" d="M23.4 0h23.4L11.584 95.662H0V0h23.4z"/></defs><g id="Page-1" fill="none" fill-rule="evenodd"><g id="WINNER" transform="translate(-622 -3780)"><g id="Group-+-super-icons" transform="translate(194 3302)"><g id="super-icons" transform="translate(65 158)"><g id="devices" transform="translate(363 320)"><path id="Rectangle-21" fill="#FFF" d="M0 0h193v193H0z"/><g id="Page-1" transform="translate(55.415 6)"><g id="Group-3"><mask id="mask-2" fill="#fff"><use xlink:href="#path-1"/></mask><path d="M-3.77-3.766h122.124v179.272H-3.77V-3.766z" id="Fill-1" fill="#FFF" mask="url(#mask-2)"/></g><path d="M114.585 165.714c0 3.315-2.714 6.026-6.031 6.026H6.03C2.714 171.74 0 169.03 0 165.714V6.026C0 2.712 2.714 0 6.03 0h102.524c3.317 0 6.03 2.712 6.03 6.026v159.688z" id="Stroke-4" stroke="#1485E0" stroke-width="4"/><g id="Group-7" transform="translate(6.03 15.818)"><mask id="mask-4" fill="#fff"><use xlink:href="#path-3"/></mask><path d="M-3.77-3.766h110.062V141.61H-3.769V-3.766z" id="Fill-5" fill="#C4E1F7" mask="url(#mask-4)"/></g><g id="Group-14" transform="translate(6.03 15.818)"><g id="Group-10" transform="translate(.754 .753)"><mask id="mask-6" fill="#fff"><use xlink:href="#path-5"/></mask><path d="M-3.77-3.766h108.555v143.87H-3.77V-3.766z" id="Fill-8" fill="#C4E1F7" mask="url(#mask-6)"/></g><g id="Group-13"><mask id="mask-8" fill="#fff"><use xlink:href="#path-7"/></mask><path d="M-3.77-3.766h110.062V141.61H-3.769V-3.766z" id="Fill-11" fill="#1485E0" mask="url(#mask-8)"/></g></g><g id="Group-17" transform="translate(6.03 15.818)"><mask id="mask-10" fill="#fff"><use xlink:href="#path-9"/></mask><path d="M-61.815-10.922h162.68V144.02h-162.68V-10.922z" id="Fill-15" fill-opacity=".44" fill="#FFF" mask="url(#mask-10)"/></g><path d="M57.142 165.865a4.37 4.37 0 0 0 4.372-4.369 4.37 4.37 0 0 0-4.372-4.369 4.37 4.37 0 0 0-4.373 4.37 4.37 4.37 0 0 0 4.373 4.368z" id="Stroke-18" stroke="#1485E0" stroke-width="2"/><g id="Group-21" transform="translate(54.277 4.52)"><mask id="mask-12" fill="#fff"><use xlink:href="#path-11"/></mask><path d="M-3.166-3.465H8.895V8.587H-3.166V-3.465z" id="Fill-19" fill="#1485E0" mask="url(#mask-12)"/></g></g><g id="Page-1" transform="translate(23 56.468)"><g id="Group-3" transform="translate(27.138 3.766)"><mask id="mask-14" fill="#fff"><use xlink:href="#path-13"/></mask><path d="M-3.166-3.39H8.895V8.662H-3.166V-3.39z" id="Fill-1" fill="#1485E0" mask="url(#mask-14)"/></g><g id="Group-6" transform="translate(8.292 4.52)"><mask id="mask-16" fill="#fff"><use xlink:href="#path-15"/></mask><path d="M-3.166-3.39H7.388V7.156H-3.166V-3.39z" id="Fill-4" fill="#1485E0" mask="url(#mask-16)"/></g><g id="Group-13" transform="translate(4.523 12.052)"><g id="Group-9" transform="translate(.754)"><mask id="mask-18" fill="#fff"><use xlink:href="#path-17"/></mask><path d="M-3.77-3.766h58.047V98.675H-3.77V-3.766z" id="Fill-7" fill="#C4E1F7" mask="url(#mask-18)"/></g><g id="Group-12"><mask id="mask-20" fill="#fff"><use xlink:href="#path-19"/></mask><path d="M-3.77-3.766h59.555V99.429H-3.77V-3.766z" id="Fill-10" fill="#1485E0" mask="url(#mask-20)"/></g></g><g id="Group-16" transform="translate(4.523 12.052)"><mask id="mask-22" fill="#fff"><use xlink:href="#path-21"/></mask><path d="M-82.17-38.416H63.173v138.598H-82.169V-38.416z" id="Fill-14" fill-opacity=".44" fill="#FFF" mask="url(#mask-22)"/></g><g id="Group-19"><mask id="mask-24" fill="#fff"><use xlink:href="#path-23"/></mask><path d="M-3.77-3.39h68.6v130.463h-68.6V-3.39z" id="Fill-17" fill="#FFF" mask="url(#mask-24)"/></g><path d="M0 116.678V7.23c0-2.486 1.96-4.82 4.448-5.122C9.95 1.431 19.977.377 30.606.377 41.16.377 51.111 1.43 56.69 2.109c2.488.301 4.373 2.636 4.373 5.122v109.447c0 1.657-1.207 3.766-2.79 4.143-4.221 1.054-13.267 2.485-27.666 2.485-14.398 0-23.444-1.43-27.666-2.485-1.658-.377-2.94-2.486-2.94-4.143z" id="Stroke-20" stroke="#1485E0" stroke-width="4"/><g id="Group-23" transform="translate(27.892 3.766)"><mask id="mask-26" fill="#fff"><use xlink:href="#path-25"/></mask><path d="M-3.77-3.465H8.293V8.587H-3.769V-3.465z" id="Fill-21" fill="#1485E0" mask="url(#mask-26)"/></g><g id="Group-26" transform="translate(9.046 4.52)"><mask id="mask-28" fill="#fff"><use xlink:href="#path-27"/></mask><path d="M-3.77-3.465H6.786V7.081H-3.77V-3.465z" id="Fill-24" fill="#1485E0" mask="url(#mask-28)"/></g><g id="Group-33" transform="translate(4.523 11.299)"><g id="Group-29" transform="translate(.754 .753)"><mask id="mask-30" fill="#fff"><use xlink:href="#path-29"/></mask><path d="M-3.77-3.766h58.047V97.922H-3.77V-3.766z" id="Fill-27" fill="#C4E1F7" mask="url(#mask-30)"/></g><g id="Group-32"><mask id="mask-32" fill="#fff"><use xlink:href="#path-31"/></mask><path d="M-3.77-3.766h59.555V99.429H-3.77V-3.766z" id="Fill-30" fill="#1485E0" mask="url(#mask-32)"/></g></g><g id="Group-36" transform="translate(4.523 11.299)"><mask id="mask-34" fill="#fff"><use xlink:href="#path-33"/></mask><path d="M-82.17-38.416H63.324v138.598H-82.169V-38.416z" id="Fill-34" fill-opacity=".44" fill="#FFF" mask="url(#mask-34)"/></g></g></g></g></g></g></g></svg>