<svg width="193" height="193" viewBox="0 0 193 193" xmlns="http://www.w3.org/2000/svg" xmlns:xlink="http://www.w3.org/1999/xlink"><title>calculator</title><defs><path id="path-1" d="M115.888 162.953H8.112c-4.52 0-8.112-3.605-8.112-8.142V3.606C0 1.628 1.507.116 3.477.116h117.046c1.97 0 3.477 1.512 3.477 3.49V154.81c0 4.42-3.593 8.142-8.112 8.142z"/><path id="path-3" d="M0 0h119.364v48.851H0V0z"/><path id="path-5" d="M0 0h100.822v32.567H0V0z"/><path d="M100.822 2.326v30.241H2.318V2.327h98.504zM103.14 0H0v34.894h103.14V0z" id="path-7"/><path id="path-9" d="M115.888 162.953H8.112c-4.52 0-8.112-3.605-8.112-8.142V3.606C0 1.628 1.507.116 3.477.116h117.046c1.97 0 3.477 1.512 3.477 3.49V154.81c0 4.42-3.593 8.142-8.112 8.142"/><path id="path-11" d="M0 0h20.86v16.284H0V0z"/><path d="M20.86 2.326v13.958H2.318V2.326H20.86zM23.178 0H0v18.61h23.178V0z" id="path-13"/><path id="path-15" d="M0 0h20.86v16.284H0V0z"/><path d="M20.86 2.326v13.958H2.318V2.326H20.86zM23.178 0H0v18.61h23.178V0z" id="path-17"/><path id="path-19" d="M0 0h20.86v16.284H0V0z"/><path d="M20.86 2.326v13.958H2.318V2.326H20.86zM23.178 0H0v18.61h23.178V0z" id="path-21"/><path id="path-23" d="M0 0h20.86v16.284H0V0z"/><path d="M20.86 2.326v13.958H2.318V2.326H20.86zM23.178 0H0v18.61h23.178V0z" id="path-25"/><path id="path-27" d="M0 0h20.86v16.284H0V0z"/><path d="M20.86 2.326v13.958H2.318V2.326H20.86zM23.178 0H0v18.61h23.178V0z" id="path-29"/><path id="path-31" d="M0 0h20.86v16.284H0V0z"/><path d="M20.86 2.326v13.958H2.318V2.326H20.86zM23.178 0H0v18.61h23.178V0z" id="path-33"/><path id="path-35" d="M0 0h20.86v16.284H0V0z"/><path d="M20.86 2.326v13.958H2.318V2.326H20.86zM23.178 0H0v18.61h23.178V0z" id="path-37"/><path id="path-39" d="M0 0h20.86v16.284H0V0z"/><path d="M20.86 2.326v13.958H2.318V2.326H20.86zM23.178 0H0v18.61h23.178V0z" id="path-41"/><path id="path-43" d="M0 0h20.86v16.284H0V0z"/><path d="M20.86 2.326v13.958H2.318V2.326H20.86zM23.178 0H0v18.61h23.178V0z" id="path-45"/><path id="path-47" d="M0 0h20.86v16.284H0V0z"/><path d="M20.86 2.326v13.958H2.318V2.326H20.86zM23.178 0H0v18.61h23.178V0z" id="path-49"/><path id="path-51" d="M0 0h20.86v16.284H0V0z"/><path d="M20.86 2.326v13.958H2.318V2.326H20.86zM23.178 0H0v18.61h23.178V0z" id="path-53"/><path id="path-55" d="M0 0h20.86v16.284H0V0z"/><path d="M20.86 2.326v13.958H2.318V2.326H20.86zM23.178 0H0v18.61h23.178V0z" id="path-57"/><path id="path-59" d="M8.112 16.284C3.592 16.284 0 12.678 0 8.258V0h47.514v16.284H8.112z"/><path d="M47.514 2.326v13.958H9.271c-3.824 0-6.953-3.024-6.953-6.863V2.326h45.196zM49.832 0H0v9.421c0 5.118 4.172 9.189 9.271 9.189h40.56V0z" id="path-61"/><path id="path-63" d="M0 0h20.86v16.284H0V0z"/><path d="M20.86 2.326v13.958H2.318V2.326H20.86zM23.178 0H0v18.61h23.178V0z" id="path-65"/><path id="path-67" d="M0 16.284V0h20.86v8.258c0 4.536-3.593 8.026-8.112 8.026H0z"/><path d="M20.86 2.326v7.095c0 3.839-3.13 6.863-6.953 6.863H2.317V2.326H20.86zM23.178 0H0v18.61h13.907c5.099 0 9.27-4.071 9.27-9.189V0z" id="path-69"/><path d="M.58 3.606V2.094l1.042-1.047v2.908l-.463.465-.58-.814zm1.158 1.512v2.908L.695 6.979V5.467l.696-.698.347.349z" id="path-71"/><path d="M1.043 5.467v1.512L0 8.026V5.118l.464-.466.579.815zM4.403.814L3.362 1.861H1.275L.232.814h4.172zm0 7.444H.117l1.043-1.047h2.086l1.159 1.047zm-.926-4.303l.58.581-.58.582H1.159l-.58-.582.58-.581h2.318zm.116-.35V2.095l1.043-1.047v2.791l-.464.466-.58-.698z" id="path-73"/><path d="M4.404.814L3.36 1.861H1.159L.116.814h4.288zm0 7.444H.116l1.043-1.047h2.086l1.159 1.047zM3.36 3.955l.58.581-.58.582H1.043l-.58-.582.58-.581h2.318zm.116-.35V2.095L4.52 1.047v2.908l-.464.465-.58-.814zM4.52 5.119v2.908L3.477 6.979V5.467l.695-.698.348.349z" id="path-75"/><path d="M0 3.955V1.047l1.043 1.047v1.512l-.695.698L0 3.954zm3.477 0l.58.581-.58.582H1.159l-.58-.582.58-.581h2.318zm.116-.35V2.095l1.043-1.047v2.908l-.464.465-.58-.814zm1.043 1.513v2.908L3.593 6.979V5.467l.695-.698.348.349z" id="path-77"/><path d="M0 3.838V.93l1.043 1.047V3.49l-.695.698L0 3.838zM4.404.814L3.36 1.861H1.275L.232.814h4.172zm0 7.444H.116l1.043-1.047h2.086l1.159 1.047zm-.927-4.303l.58.581-.58.582H1.159l-.58-.582.58-.581h2.318zm1.159 1.163v2.908L3.593 6.979V5.467l.695-.698.348.349z" id="path-79"/><path d="M0 3.955V1.047l1.043 1.047v1.512l-.695.698L0 3.954zm1.043 1.512v1.512L0 8.026V5.118l.464-.466.579.815zM4.403.814L3.362 1.861H1.275L.232.814h4.172zm0 7.444H.117l1.043-1.047h2.086l1.159 1.047zm-.926-4.303l.58.581-.58.582H1.159l-.58-.582.58-.581h2.318zm1.159 1.163v2.908L3.593 6.979V5.467l.695-.698.348.349z" id="path-81"/><path d="M4.404.814L3.36 1.861H1.159L.116.814h4.288zm-.927 2.792V2.094L4.52 1.047v2.908l-.464.465-.58-.814zM4.52 5.118v2.908L3.477 6.979V5.467l.695-.698.348.349z" id="path-83"/><path d="M.58 3.955V1.047l1.042 1.047v1.512l-.695.698-.348-.35zm1.042 1.512v1.512L.58 8.026V5.118l.464-.466.58.815zM4.983.814L3.94 1.861H1.854L.811.814h4.172zm0 7.444H.695l1.043-1.047h2.086l1.16 1.047zm-.811-4.652V2.094l1.043-1.047v2.908l-.464.465-.579-.814zm1.043 1.512v2.908L4.172 6.979V5.467l.695-.698.348.349z" id="path-85"/><path d="M2.086 2.21l-.58.581H.58L0 2.21l.58-.582h.927l.579.582zm.811-.698l-.58.582-.579-.582v-.93L2.318 0l.58.582v.93zm0 2.443l-.58.581-.579-.581v-.93l.58-.582.58.581v.93zM4.52 2.21l-.58.581h-.927l-.58-.581.58-.582h.927l.58.582z" id="path-87"/><path d="M4.52 1.28l-.58.581H.58L0 1.279.58.698h3.36l.58.581zm0 1.86l-.58.582H.58L0 3.14l.58-.581h3.36l.58.581z" id="path-89"/><path d="M.232 2.908L0 2.21l.695-.233.696.35.58.93H.926l-.695-.35zm.463 2.21L0 4.885l.232-.814.811-.465h1.043l-.58 1.046-.81.466zM2.897 2.21l-.58 1.047-.579-1.047v-.814l.58-.582.58.582v.814zm0 3.49l-.58.58-.579-.58v-.815l.58-1.047.58.93V5.7zm.927-.582l.812-.233-.232-.698-.811-.465h-1.16l.58 1.047.811.349zm-.116-1.745H2.55l.579-.93.695-.35.812.233-.232.698-.696.349z" id="path-91"/><path id="path-93" d="M4.52 1.047l-.58.581H.58L0 1.047.58.465h3.36l.58.582z"/><path d="M0 3.955V1.047l1.043 1.047v1.512l-.695.698L0 3.954zm1.043 1.512v1.512L0 8.026V5.118l.464-.466.579.815zM4.403.814L3.362 1.861H1.275L.232.814h4.172zm0 7.444H.117l1.043-1.047h2.086l1.159 1.047zm-.926-4.303l.58.581-.58.582H1.159l-.58-.582.58-.581h2.318zm.116-.35V2.095l1.043-1.047v2.908l-.464.465-.58-.814zm1.043 1.513v2.908L3.593 6.979V5.467l.695-.698.348.349z" id="path-95"/><path d="M0 3.955V1.047l1.043 1.047v1.512l-.695.698L0 3.954zM4.404.815L3.36 1.86H1.275L.232.814h4.172zm0 7.443H.116l1.043-1.047h2.086l1.159 1.047zm-.927-4.303l.58.581-.58.582H1.159l-.58-.582.58-.581h2.318zm.116-.35V2.095l1.043-1.047v2.908l-.464.465-.58-.814zm1.043 1.513v2.908L3.593 6.979V5.467l.695-.698.348.349z" id="path-97"/><path d="M.232 5.467V2.443L2.434.233v5.699l-.812.814-1.39-1.28zM2.434 8.49v5.7L.232 11.98V8.955l1.39-1.396.812.93z" id="path-99"/><path d="M2.318 10.235v3.025L.116 15.47v-5.7l.811-.814 1.39 1.28zM9.039.93L6.837 3.14H2.665L.464.93h8.575zm0 14.888H.58l2.202-2.21h4.172l2.086 2.21zm-1.97-8.49l1.043 1.046L7.07 9.421H2.434L1.39 8.374l1.043-1.046h4.635zm.232-.815V3.49l2.202-2.21v5.7l-.811.814L7.3 6.513z" id="path-101"/><path id="path-103" d="M.116 3.024V.814h2.202v2.21H.116z"/><path d="M1.043 7.095v-5.7l2.202 2.21V6.63l-1.39 1.396-.812-.931zM9.966.93L7.764 3.14H3.593L1.39.93h8.575zm0 14.888h-8.46l2.202-2.21H7.88l2.086 2.21zm-1.97-8.49L9.04 8.374 7.996 9.421H3.361L2.318 8.374 3.36 7.328h4.635zm2.318 2.326v5.7l-2.202-2.21v-3.025l1.39-1.396.812.93z" id="path-105"/><path id="path-107" d="M89.322.349H.348V41.29h73.97L89.321.349z"/><path d="M2.202 5.234L.348 8.491 0 7.095l1.275-2.094.811-.232.116.465zm-.116-1.628l1.275-2.21 1.39-.35-1.854 3.258-.463.116-.348-.814z" id="path-109"/></defs><g id="Page-1" fill="none" fill-rule="evenodd"><g id="WINNER" transform="translate(-259 -3780)"><g id="Group-+-super-icons" transform="translate(194 3302)"><g id="super-icons" transform="translate(65 158)"><g id="calculator" transform="translate(0 320)"><path id="Rectangle-21" fill="#FFF" d="M0 0h193v193H0z"/><g id="Group-3" transform="translate(37 16)"><mask id="mask-2" fill="#fff"><use xlink:href="#path-1"/></mask><path d="M-5.794-5.7h135.588V168.77H-5.794V-5.7z" id="Fill-1" fill="#C4E1F7" mask="url(#mask-2)"/></g><g id="Group-6" transform="translate(39.318 18.326)"><mask id="mask-4" fill="#fff"><use xlink:href="#path-3"/></mask><path d="M-5.794-5.816h130.953v60.483H-5.794V-5.816z" id="Fill-4" fill="#FFF" mask="url(#mask-4)"/></g><g id="Group-13" transform="translate(47.43 25.305)"><g id="Group-9" transform="translate(1.159 1.163)"><mask id="mask-6" fill="#fff"><use xlink:href="#path-5"/></mask><path d="M-5.794-5.816h112.41v44.199H-5.793V-5.816z" id="Fill-7" fill="#C4E1F7" mask="url(#mask-6)"/></g><g id="Group-12"><mask id="mask-8" fill="#fff"><use xlink:href="#path-7"/></mask><path d="M-5.794-5.816h114.729V40.71H-5.795V-5.816z" id="Fill-10" fill="#1485E0" mask="url(#mask-8)"/></g></g><g id="Group-16" transform="translate(37 16)"><mask id="mask-10" fill="#fff"><use xlink:href="#path-9"/></mask><path d="M1.159 52.34h120.523" id="Stroke-14" stroke="#1485E0" stroke-width="2" mask="url(#mask-10)"/></g><g id="Group-107" transform="translate(47.43 76.482)"><g id="Group-19" transform="translate(1.159 1.163)"><mask id="mask-12" fill="#fff"><use xlink:href="#path-11"/></mask><path d="M-5.794-5.816h32.448V22.1H-5.794V-5.816z" id="Fill-17" fill="#FFF" mask="url(#mask-12)"/></g><g id="Group-22"><mask id="mask-14" fill="#fff"><use xlink:href="#path-13"/></mask><path d="M-5.794-5.816h34.766v30.242H-5.794V-5.816z" id="Fill-20" fill="#1485E0" mask="url(#mask-14)"/></g><g id="Group-25" transform="translate(27.813 1.163)"><mask id="mask-16" fill="#fff"><use xlink:href="#path-15"/></mask><path d="M-5.794-5.816h32.448V22.1H-5.794V-5.816z" id="Fill-23" fill="#FFF" mask="url(#mask-16)"/></g><g id="Group-28" transform="translate(26.654)"><mask id="mask-18" fill="#fff"><use xlink:href="#path-17"/></mask><path d="M-5.794-5.816h34.766v30.242H-5.794V-5.816z" id="Fill-26" fill="#1485E0" mask="url(#mask-18)"/></g><g id="Group-31" transform="translate(54.467 1.163)"><mask id="mask-20" fill="#fff"><use xlink:href="#path-19"/></mask><path d="M-5.794-5.816h32.448V22.1H-5.794V-5.816z" id="Fill-29" fill="#FFF" mask="url(#mask-20)"/></g><g id="Group-34" transform="translate(53.308)"><mask id="mask-22" fill="#fff"><use xlink:href="#path-21"/></mask><path d="M-5.794-5.816h34.766v30.242H-5.794V-5.816z" id="Fill-32" fill="#1485E0" mask="url(#mask-22)"/></g><g id="Group-37" transform="translate(81.121 1.163)"><mask id="mask-24" fill="#fff"><use xlink:href="#path-23"/></mask><path d="M-5.794-5.816h32.448V22.1H-5.794V-5.816z" id="Fill-35" fill="#FFF" mask="url(#mask-24)"/></g><g id="Group-40" transform="translate(79.963)"><mask id="mask-26" fill="#fff"><use xlink:href="#path-25"/></mask><path d="M-5.794-5.816h34.766v30.242H-5.794V-5.816z" id="Fill-38" fill="#1485E0" mask="url(#mask-26)"/></g><g id="Group-43" transform="translate(1.159 24.426)"><mask id="mask-28" fill="#fff"><use xlink:href="#path-27"/></mask><path d="M-5.794-5.816h32.448V22.1H-5.794V-5.816z" id="Fill-41" fill="#FFF" mask="url(#mask-28)"/></g><g id="Group-46" transform="translate(0 23.262)"><mask id="mask-30" fill="#fff"><use xlink:href="#path-29"/></mask><path d="M-5.794-5.816h34.766v30.242H-5.794V-5.816z" id="Fill-44" fill="#1485E0" mask="url(#mask-30)"/></g><g id="Group-49" transform="translate(27.813 24.426)"><mask id="mask-32" fill="#fff"><use xlink:href="#path-31"/></mask><path d="M-5.794-5.816h32.448V22.1H-5.794V-5.816z" id="Fill-47" fill="#FFF" mask="url(#mask-32)"/></g><g id="Group-52" transform="translate(26.654 23.262)"><mask id="mask-34" fill="#fff"><use xlink:href="#path-33"/></mask><path d="M-5.794-5.816h34.766v30.242H-5.794V-5.816z" id="Fill-50" fill="#1485E0" mask="url(#mask-34)"/></g><g id="Group-55" transform="translate(54.467 24.426)"><mask id="mask-36" fill="#fff"><use xlink:href="#path-35"/></mask><path d="M-5.794-5.816h32.448V22.1H-5.794V-5.816z" id="Fill-53" fill="#FFF" mask="url(#mask-36)"/></g><g id="Group-58" transform="translate(53.308 23.262)"><mask id="mask-38" fill="#fff"><use xlink:href="#path-37"/></mask><path d="M-5.794-5.816h34.766v30.242H-5.794V-5.816z" id="Fill-56" fill="#1485E0" mask="url(#mask-38)"/></g><g id="Group-61" transform="translate(81.121 24.426)"><mask id="mask-40" fill="#fff"><use xlink:href="#path-39"/></mask><path d="M-5.794-5.816h32.448V22.1H-5.794V-5.816z" id="Fill-59" fill="#FFF" mask="url(#mask-40)"/></g><g id="Group-64" transform="translate(79.963 23.262)"><mask id="mask-42" fill="#fff"><use xlink:href="#path-41"/></mask><path d="M-5.794-5.816h34.766v30.242H-5.794V-5.816z" id="Fill-62" fill="#1485E0" mask="url(#mask-42)"/></g><g id="Group-67" transform="translate(1.159 47.688)"><mask id="mask-44" fill="#fff"><use xlink:href="#path-43"/></mask><path d="M-5.794-5.816h32.448V22.1H-5.794V-5.816z" id="Fill-65" fill="#FFF" mask="url(#mask-44)"/></g><g id="Group-70" transform="translate(0 46.525)"><mask id="mask-46" fill="#fff"><use xlink:href="#path-45"/></mask><path d="M-5.794-5.816h34.766v30.242H-5.794V-5.816z" id="Fill-68" fill="#1485E0" mask="url(#mask-46)"/></g><g id="Group-73" transform="translate(27.813 47.688)"><mask id="mask-48" fill="#fff"><use xlink:href="#path-47"/></mask><path d="M-5.794-5.816h32.448V22.1H-5.794V-5.816z" id="Fill-71" fill="#FFF" mask="url(#mask-48)"/></g><g id="Group-76" transform="translate(26.654 46.525)"><mask id="mask-50" fill="#fff"><use xlink:href="#path-49"/></mask><path d="M-5.794-5.816h34.766v30.242H-5.794V-5.816z" id="Fill-74" fill="#1485E0" mask="url(#mask-50)"/></g><g id="Group-79" transform="translate(54.467 47.688)"><mask id="mask-52" fill="#fff"><use xlink:href="#path-51"/></mask><path d="M-5.794-5.816h32.448V22.1H-5.794V-5.816z" id="Fill-77" fill="#FFF" mask="url(#mask-52)"/></g><g id="Group-82" transform="translate(53.308 46.525)"><mask id="mask-54" fill="#fff"><use xlink:href="#path-53"/></mask><path d="M-5.794-5.816h34.766v30.242H-5.794V-5.816z" id="Fill-80" fill="#1485E0" mask="url(#mask-54)"/></g><g id="Group-85" transform="translate(81.121 47.688)"><mask id="mask-56" fill="#fff"><use xlink:href="#path-55"/></mask><path d="M-5.794-5.816h32.448V22.1H-5.794V-5.816z" id="Fill-83" fill="#FFF" mask="url(#mask-56)"/></g><g id="Group-88" transform="translate(79.963 46.525)"><mask id="mask-58" fill="#fff"><use xlink:href="#path-57"/></mask><path d="M-5.794-5.816h34.766v30.242H-5.794V-5.816z" id="Fill-86" fill="#1485E0" mask="url(#mask-58)"/></g><g id="Group-91" transform="translate(1.159 70.95)"><mask id="mask-60" fill="#fff"><use xlink:href="#path-59"/></mask><path d="M-5.794-5.816h59.102V22.1H-5.794V-5.816z" id="Fill-89" fill="#FFF" mask="url(#mask-60)"/></g><g id="Group-94" transform="translate(0 69.787)"><mask id="mask-62" fill="#fff"><use xlink:href="#path-61"/></mask><path d="M-5.794-5.816h61.42v30.242h-61.42V-5.816z" id="Fill-92" fill="#1485E0" mask="url(#mask-62)"/></g><g id="Group-97" transform="translate(54.467 70.95)"><mask id="mask-64" fill="#fff"><use xlink:href="#path-63"/></mask><path d="M-5.794-5.816h32.448V22.1H-5.794V-5.816z" id="Fill-95" fill="#FFF" mask="url(#mask-64)"/></g><g id="Group-100" transform="translate(53.308 69.787)"><mask id="mask-66" fill="#fff"><use xlink:href="#path-65"/></mask><path d="M-5.794-5.816h34.766v30.242H-5.794V-5.816z" id="Fill-98" fill="#1485E0" mask="url(#mask-66)"/></g><g id="Group-103" transform="translate(81.121 70.95)"><mask id="mask-68" fill="#fff"><use xlink:href="#path-67"/></mask><path d="M-5.794-5.816h32.448V22.1H-5.794V-5.816z" id="Fill-101" fill="#FFF" mask="url(#mask-68)"/></g><g id="Group-106" transform="translate(79.963 69.787)"><mask id="mask-70" fill="#fff"><use xlink:href="#path-69"/></mask><path d="M-5.794-5.816h34.766v30.242H-5.794V-5.816z" id="Fill-104" fill="#1485E0" mask="url(#mask-70)"/></g></g><g id="Group-150" transform="translate(56.7 81.135)"><g id="Group-110" transform="translate(1.159)"><mask id="mask-72" fill="#fff"><use xlink:href="#path-71"/></mask><path d="M-5.215-4.769H7.533v18.61H-5.215v-18.61z" id="Fill-108" fill="#1485E0" mask="url(#mask-72)"/></g><g id="Group-113" transform="translate(26.654)"><mask id="mask-74" fill="#fff"><use xlink:href="#path-73"/></mask><path d="M-5.794-5.001H10.43v19.075H-5.794V-5.001z" id="Fill-111" fill="#1485E0" mask="url(#mask-74)"/></g><g id="Group-116" transform="translate(53.308)"><mask id="mask-76" fill="#fff"><use xlink:href="#path-75"/></mask><path d="M-5.679-5.001h15.993v19.075H-5.679V-5.001z" id="Fill-114" fill="#1485E0" mask="url(#mask-76)"/></g><g id="Group-119" transform="translate(0 23.262)"><mask id="mask-78" fill="#fff"><use xlink:href="#path-77"/></mask><path d="M-5.794-4.769H10.43v18.61H-5.794v-18.61z" id="Fill-117" fill="#1485E0" mask="url(#mask-78)"/></g><g id="Group-122" transform="translate(26.654 23.262)"><mask id="mask-80" fill="#fff"><use xlink:href="#path-79"/></mask><path d="M-5.794-5.001H10.43v19.075H-5.794V-5.001z" id="Fill-120" fill="#1485E0" mask="url(#mask-80)"/></g><g id="Group-125" transform="translate(53.308 23.262)"><mask id="mask-82" fill="#fff"><use xlink:href="#path-81"/></mask><path d="M-5.794-5.001H10.43v19.075H-5.794V-5.001z" id="Fill-123" fill="#1485E0" mask="url(#mask-82)"/></g><g id="Group-128" transform="translate(0 46.525)"><mask id="mask-84" fill="#fff"><use xlink:href="#path-83"/></mask><path d="M-5.679-5.001h15.993V13.84H-5.679V-5z" id="Fill-126" fill="#1485E0" mask="url(#mask-84)"/></g><g id="Group-131" transform="translate(12.748 69.787)"><mask id="mask-86" fill="#fff"><use xlink:href="#path-85"/></mask><path d="M-5.215-5.001h16.224v19.075H-5.215V-5.001z" id="Fill-129" fill="#1485E0" mask="url(#mask-86)"/></g><g id="Group-134" transform="translate(53.308 72.113)"><mask id="mask-88" fill="#fff"><use xlink:href="#path-87"/></mask><path d="M-5.794-5.816h16.108v16.168H-5.794V-5.816z" id="Fill-132" fill="#1485E0" mask="url(#mask-88)"/></g><g id="Group-137" transform="translate(79.963 72.113)"><mask id="mask-90" fill="#fff"><use xlink:href="#path-89"/></mask><path d="M-5.794-5.118h16.108V9.538H-5.794V-5.118z" id="Fill-135" fill="#1485E0" mask="url(#mask-90)"/></g><g id="Group-140" transform="translate(79.963 24.426)"><mask id="mask-92" fill="#fff"><use xlink:href="#path-91"/></mask><path d="M-5.794-5.001H10.43v17.097H-5.794V-5z" id="Fill-138" fill="#1485E0" mask="url(#mask-92)"/></g><g id="Group-143" transform="translate(79.963 3.49)"><mask id="mask-94" fill="#fff"><use xlink:href="#path-93"/></mask><path d="M-5.794-5.35h16.108V7.444H-5.794V-5.35z" id="Fill-141" fill="#1485E0" mask="url(#mask-94)"/></g><g id="Group-146" transform="translate(26.654 46.525)"><mask id="mask-96" fill="#fff"><use xlink:href="#path-95"/></mask><path d="M-5.794-5.001H10.43v19.075H-5.794V-5.001z" id="Fill-144" fill="#1485E0" mask="url(#mask-96)"/></g><g id="Group-149" transform="translate(53.308 46.525)"><mask id="mask-98" fill="#fff"><use xlink:href="#path-97"/></mask><path d="M-5.794-5.001H10.43v19.075H-5.794V-5.001z" id="Fill-147" fill="#1485E0" mask="url(#mask-98)"/></g></g><g id="Group-163" transform="translate(104.215 34.61)"><g id="Group-153" transform="translate(0 1.163)"><mask id="mask-100" fill="#fff"><use xlink:href="#path-99"/></mask><path d="M-5.563-5.583H8.228v25.589h-13.79V-5.583z" id="Fill-151" fill="#1485E0" mask="url(#mask-100)"/></g><g id="Group-156" transform="translate(5.794)"><mask id="mask-102" fill="#fff"><use xlink:href="#path-101"/></mask><path d="M-5.679-4.885h20.976v26.519H-5.679v-26.52z" id="Fill-154" fill="#1485E0" mask="url(#mask-102)"/></g><g id="Group-159" transform="translate(17.383 12.794)"><mask id="mask-104" fill="#fff"><use xlink:href="#path-103"/></mask><path d="M-5.679-5.001H8.112v13.84h-13.79V-5z" id="Fill-157" fill="#1485E0" mask="url(#mask-104)"/></g><g id="Group-162" transform="translate(20.86)"><mask id="mask-106" fill="#fff"><use xlink:href="#path-105"/></mask><path d="M-4.751-4.885h20.86v26.519h-20.86v-26.52z" id="Fill-160" fill="#1485E0" mask="url(#mask-106)"/></g></g><g id="Group-166" transform="translate(43.953 21.816)"><mask id="mask-108" fill="#fff"><use xlink:href="#path-107"/></mask><path d="M-97.346-90.607h223.664v214.014H-97.346V-90.607z" id="Fill-164" fill-opacity=".44" fill="#FFF" mask="url(#mask-108)"/></g><g id="Group-169" transform="translate(136.664 127.66)"><mask id="mask-110" fill="#fff"><use xlink:href="#path-109"/></mask><path d="M-5.794-4.769h16.34v19.075h-16.34V-4.769z" id="Fill-167" fill="#1485E0" mask="url(#mask-110)"/></g><path d="M152.888 178.953H45.112c-4.52 0-8.112-3.605-8.112-8.142V19.606c0-1.978 1.507-3.49 3.477-3.49h117.046c1.97 0 3.477 1.512 3.477 3.49V170.81c0 4.42-3.593 8.142-8.112 8.142z" id="Stroke-170" stroke="#1485E0" stroke-width="3.986"/></g></g></g></g></g></svg>