<svg width="193" height="193" viewBox="0 0 193 193" xmlns="http://www.w3.org/2000/svg" xmlns:xlink="http://www.w3.org/1999/xlink"><title>coffee</title><defs><ellipse id="path-1" cx="54.144" cy="53.973" rx="53.656" ry="53.728"/><ellipse id="path-3" cx="54.144" cy="53.973" rx="53.656" ry="53.728"/><ellipse id="path-5" cx="54.144" cy="53.973" rx="53.656" ry="53.728"/><ellipse id="path-7" cx="54.144" cy="53.973" rx="53.656" ry="53.728"/><ellipse id="path-9" cx="54.144" cy="53.973" rx="53.656" ry="53.728"/></defs><g id="Page-1" fill="none" fill-rule="evenodd"><g id="WINNER" transform="translate(-259 -3460)"><g id="Group-+-super-icons" transform="translate(194 3302)"><g id="super-icons" transform="translate(65 158)"><g id="coffee"><path id="Rectangle-21" fill="#FFF" d="M0 0h193v193H0z"/><path d="M89.222 179.654c-1.71.367-3.422.49-5.133.612-.733 0-1.467.122-2.2.122" id="XMLID_202_" stroke="#1485E0" stroke-width="2"/><path d="M59.156 174.88c-22.245-12.116-30.434-40.02-18.334-62.295 12.1-22.275 39.967-30.475 62.211-18.358 22.245 12.116 30.434 40.02 18.334 62.295a46.3 46.3 0 0 1-24.078 21.051" id="XMLID_201_" stroke="#1485E0" stroke-width="2"/><path d="M162.067 37.072l-13.811 13.83c-2.812 2.814-7.456 2.814-10.39 0l-6.966-6.977c-2.811-2.815-2.811-7.465 0-10.403l13.811-13.83c2.811-2.814 7.456-2.814 10.389 0l6.967 6.977c2.81 2.815 2.81 7.465 0 10.403z" id="take" stroke="#1485E0" stroke-width="4" fill="#FFF"/><ellipse id="base_4_" stroke="#1485E0" stroke-width="4" fill="#FFF" cx="98.144" cy="88.107" rx="64.167" ry="64.254"/><g id="XMLID_847_" transform="translate(44 34.134)"><g id="inside-Clipped"><mask id="mask-2" fill="#fff"><use xlink:href="#path-1"/></mask><ellipse id="inside" stroke="#1485E0" stroke-width="2" fill="#C4E1F7" mask="url(#mask-2)" cx="54.144" cy="53.973" rx="51.944" ry="52.015"/></g><g id="cream-Clipped"><mask id="mask-4" fill="#fff"><use xlink:href="#path-3"/></mask></g><g id="XMLID_849_-Clipped"><mask id="mask-6" fill="#fff"><use xlink:href="#path-5"/></mask><g id="XMLID_849_" mask="url(#mask-6)" stroke="#1485E0" stroke-width="2" fill="#FFF"><path d="M38.378 5.752c-6.356 11.872 16.5 17.257 8.31 32.31C38.257 53.607 6.968 50.425 1.468 60.705c-3.178 5.875.122 13.83 10.877 18.97 20.534 9.914 45.59 1.47 56.712-18.97C80.3 39.9 74.066 14.931 53.9 2.937c-.122.123-10.633-6.364-15.522 2.815z" transform="translate(48.889 18.358)" id="XMLID_199_"/></g></g><g id="XMLID_198_-Clipped"><mask id="mask-8" fill="#fff"><use xlink:href="#path-7"/></mask><ellipse id="XMLID_198_" stroke="#1485E0" stroke-width="2.03" mask="url(#mask-8)" cx="55" cy="53.973" rx="52.067" ry="52.137"/></g><g id="light_7_-Clipped"><mask id="mask-10" fill="#fff"><use xlink:href="#path-9"/></mask><path d="M21.756 138.299h-145.2V-74.657H99.978L21.756 138.3z" id="light_7_" opacity=".44" fill="#FFF" mask="url(#mask-10)"/></g></g></g></g></g></g></g></svg>