<svg width="167" height="39" viewBox="0 0 167 39" xmlns="http://www.w3.org/2000/svg"><title>recode</title><g id="Page-1" fill="none" fill-rule="evenodd"><g id="WINNER" transform="translate(-1069 -3032)" stroke="#FFF" fill="#FFF"><g id="recode" transform="translate(1070 3032)"><g id="svg2"><g id="layer1" transform="translate(.304 .736)"><path d="M16.684 9.08l.072 22.706 3.945-.036.905-.726-.072-14.618s.027-1.086 2.05-2.225c2.624-1.478 4.208-1.445 4.208-1.445s1.978 2.365 2.066-.624c.092-3.153-.092-3.052-1.696-3.169-.971-.064-2.765.07-4.793 1.476-.621.43-1.835.256-1.835.256V9.188l-4.85-.109z" id="path3050"/><path d="M49.843 37.49l4.862.052L67.4.813h-5.016l-12.54 36.678z" id="path3056"/><path d="M69.142 10.656l-4.103 12.6s-.26 3.056 2.165 5.305c2.662 2.469 3.984 2.977 5.215 3.013 1.23.036 4.7.355 5.812-.426.706-.497 1.896-1.43 1.896-1.43l-1.667-3.417s-2.024 1.604-4.739.842c-2.714-.762-3.293-3.627-3.293-3.627s-.688-4.716.108-6.275c.797-1.56 1.86-2.765 2.838-3.236.977-.472 2.059-.665 2.962-.045 1.021.701 1.507 1.433 1.507 1.433l2.166-3.95s-.012.696-1.889-.958c-1.137-1.001-7.246-1.965-8.978.17z" id="path3826"/><g id="path3830-+-path3832" transform="translate(81.879 8.938)"><path d="M10.336.106s-3.185-.87-6.949 3.41c-3.763 4.28-3.72 13.549.652 17.337 4.191 3.633 9.223 3.123 13.029.218 3.916-2.989 3.619-14.8.651-18.136-2.968-3.337-7.383-2.83-7.383-2.83zm2.758 5.97s-2.389-2.684-5.067-.145c-2.678 2.54-1.396 9.667-.579 10.446 1.224 1.168 3.768 2.966 5.863.363 1.81-2.249 1.81-8.85-.217-10.664z" id="path3830"/></g><path d="M154.174 9.043l11.509 11.39-11.437 11.026-.072-7.036 4.343-3.918-4.27-4.425-.073-7.037z" id="path3842"/><path d="M11.69 9.08L.087 20.586l11.256 11.317.072-6.96-4.402-4.272 4.662-4.8.015-6.793z" id="path3844"/><g id="path3054-+-path3052" transform="translate(32.427 8.938)"><path d="M16.423 12.997s.746-2.548 1.22-4.075c.649-2.087.43-3.23-.713-5.167-1.338-2.267-4.408-3.36-5.494-3.504C10.351.106 6.768.178 5.61.759c-1.158.58-4.56 3.59-5.14 7.073-.579 3.482.297 9.231 1.125 10.592 1.12 1.843 3.47 3.808 6.076 4.171 2.606.363 2.163.12 5.138-.036.574-.03.758-1.273 1.435-2.693.645-1.283 1.25-3.046 1.25-3.046s-1.936 1.461-3.297 1.896c-.624.2-3.185.36-4.126-.33-.941-.688-2.078-2.335-2.356-3.08-.47-1.265-.359-2.324-.359-2.324l11.067.015zM5.283 9.754h9.049s.108-2.938-1.195-4.135c-1.303-1.197-1.664-1.233-2.714-1.378-1.05-.145-2.389.109-2.895.544-.507.435-1.05.508-1.629 1.487-.579.98-.615 3.482-.615 3.482z" id="path3054"/></g><g id="path3834-+-path3836" transform="translate(105.388)"><path d="M14.621.338l5.863.145.217 31.847-6.007.073-.073-2.322s-.796 3.845-8.469 2.031C-1.52 30.3 0 15.855 2.822 11.938c2.824-3.918 9.483-2.322 10.134-1.887.652.436 1.594 1.524 1.594 1.524L14.621.338zm-7.31 15.815s-.727.783-.83 2.79c-.116 2.287-.035 5.373 1.409 7.076 2.46 2.901 5.48.178 6.007-.798.724-1.342 1.028-7.988-.68-9.54-2.854-2.577-4.224-1.287-5.906.472z" id="path3834"/></g><g id="path3840-+-path3838" transform="translate(130.52 8.938)"><path d="M5.355 12.587l13.262.025s.873-5.044-2.93-9.714C13.677.428 10.24-.23 7.47.165c-3.438.49-4.816 2.111-5.85 3.597-1.179 1.69-2.341 12.285.989 15.52 4.003 3.89 6.837 4.529 11.824 2.66 2.133-.8 3.532-2.917 3.532-2.917l-2.591-2.466s-1.723 2.19-5.052 2.19c-3.626-.239-5.455-3.975-4.967-6.162zm-.298-3.269h8.967s.08-4.999-4.484-5.001c-5.212-.003-4.483 5.001-4.483 5.001z" id="path3840"/></g></g></g></g></g></g></svg>